<mxfile host="Electron" agent="Mozilla/5.0 (Macintosh; Intel Mac OS X 10_15_7) AppleWebKit/537.36 (KHTML, like Gecko) draw.io/24.7.8 Chrome/128.0.6613.36 Electron/32.0.1 Safari/537.36" version="24.7.8" pages="2">
  <diagram name="Page-1" id="htOY6HsNpc4OGtoVOJc2">
    <mxGraphModel dx="1000" dy="731" grid="1" gridSize="10" guides="1" tooltips="1" connect="1" arrows="1" fold="1" page="1" pageScale="1" pageWidth="1169" pageHeight="827" math="1" shadow="0">
      <root>
        <mxCell id="0" />
        <mxCell id="s63r-YuF349uBnM-Qt6y-13" value="First Layer" parent="0" />
        <mxCell id="E0gzkdAGFKsDHq4gkVWE-7" value="" style="rounded=0;whiteSpace=wrap;html=1;fontSize=16;" parent="s63r-YuF349uBnM-Qt6y-13" vertex="1">
          <mxGeometry x="80" y="370" width="590" height="430" as="geometry" />
        </mxCell>
        <mxCell id="E0gzkdAGFKsDHq4gkVWE-9" value="" style="rounded=0;whiteSpace=wrap;html=1;fontSize=16;" parent="s63r-YuF349uBnM-Qt6y-13" vertex="1">
          <mxGeometry x="770" y="500" width="350" height="290" as="geometry" />
        </mxCell>
        <mxCell id="E0gzkdAGFKsDHq4gkVWE-5" value="" style="rounded=0;whiteSpace=wrap;html=1;fontSize=16;" parent="s63r-YuF349uBnM-Qt6y-13" vertex="1">
          <mxGeometry x="765" y="54" width="350" height="396" as="geometry" />
        </mxCell>
        <mxCell id="E0gzkdAGFKsDHq4gkVWE-2" value="" style="rounded=0;whiteSpace=wrap;html=1;fontSize=16;" parent="s63r-YuF349uBnM-Qt6y-13" vertex="1">
          <mxGeometry x="90" y="80" width="350" height="240" as="geometry" />
        </mxCell>
        <mxCell id="1" parent="0" />
        <mxCell id="E0gzkdAGFKsDHq4gkVWE-4" value="1. Environment Definition" style="text;html=1;align=center;verticalAlign=middle;whiteSpace=wrap;rounded=0;fontSize=20;fontStyle=5" parent="1" vertex="1">
          <mxGeometry x="90" y="80" width="350" height="40" as="geometry" />
        </mxCell>
        <mxCell id="E0gzkdAGFKsDHq4gkVWE-6" value="2. Training Data Collection" style="text;html=1;align=center;verticalAlign=middle;whiteSpace=wrap;rounded=0;fontSize=20;fontStyle=5" parent="1" vertex="1">
          <mxGeometry x="770" y="54" width="340" height="40" as="geometry" />
        </mxCell>
        <mxCell id="E0gzkdAGFKsDHq4gkVWE-8" value="3. Online DPC Application" style="text;html=1;align=center;verticalAlign=middle;whiteSpace=wrap;rounded=0;fontSize=20;fontStyle=5" parent="1" vertex="1">
          <mxGeometry x="80" y="370" width="350" height="40" as="geometry" />
        </mxCell>
        <mxCell id="E0gzkdAGFKsDHq4gkVWE-10" value="4. Analyse and Data Visualization" style="text;html=1;align=center;verticalAlign=middle;whiteSpace=wrap;rounded=0;fontSize=20;fontStyle=5" parent="1" vertex="1">
          <mxGeometry x="770" y="500" width="350" height="40" as="geometry" />
        </mxCell>
        <mxCell id="E0gzkdAGFKsDHq4gkVWE-11" value="User defined:" style="text;html=1;align=center;verticalAlign=middle;whiteSpace=wrap;rounded=0;fontSize=16;" parent="1" vertex="1">
          <mxGeometry x="90" y="140" width="100" height="30" as="geometry" />
        </mxCell>
        <mxCell id="E0gzkdAGFKsDHq4gkVWE-17" value="Instantiate:" style="text;html=1;align=left;verticalAlign=middle;whiteSpace=wrap;rounded=0;fontSize=16;" parent="1" vertex="1">
          <mxGeometry x="90" y="230" width="100" height="30" as="geometry" />
        </mxCell>
        <mxCell id="E0gzkdAGFKsDHq4gkVWE-18" value="&lt;ul style=&quot;font-size: 14px;&quot;&gt;&lt;li&gt;env parameters:&lt;/li&gt;&lt;ul&gt;&lt;li&gt;meas/process noise&lt;/li&gt;&lt;li&gt;type (Double Integrator, Rocket)&lt;/li&gt;&lt;/ul&gt;&lt;/ul&gt;" style="text;html=1;align=left;verticalAlign=middle;whiteSpace=wrap;rounded=0;" parent="1" vertex="1">
          <mxGeometry x="170" y="155" width="270" height="50" as="geometry" />
        </mxCell>
        <mxCell id="E0gzkdAGFKsDHq4gkVWE-19" value="&lt;ul style=&quot;font-size: 14px;&quot;&gt;&lt;li&gt;env (Environment)&lt;/li&gt;&lt;ul&gt;&lt;li&gt;def step(u)-&amp;gt; y&lt;/li&gt;&lt;li&gt;Attr `done`&lt;/li&gt;&lt;/ul&gt;&lt;/ul&gt;" style="text;html=1;align=left;verticalAlign=middle;whiteSpace=wrap;rounded=0;" parent="1" vertex="1">
          <mxGeometry x="176" y="234" width="190" height="56" as="geometry" />
        </mxCell>
        <mxCell id="E0gzkdAGFKsDHq4gkVWE-20" value="" style="endArrow=classic;html=1;rounded=0;exitX=1;exitY=1;exitDx=0;exitDy=0;entryX=0.009;entryY=0.365;entryDx=0;entryDy=0;entryPerimeter=0;strokeWidth=2;" parent="1" edge="1">
          <mxGeometry width="50" height="50" relative="1" as="geometry">
            <mxPoint x="439" y="230" as="sourcePoint" />
            <mxPoint x="767.1499999999999" y="230" as="targetPoint" />
          </mxGeometry>
        </mxCell>
        <mxCell id="E0gzkdAGFKsDHq4gkVWE-22" value="env" style="edgeLabel;html=1;align=center;verticalAlign=middle;resizable=0;points=[];fontSize=14;labelBackgroundColor=none;" parent="E0gzkdAGFKsDHq4gkVWE-20" vertex="1" connectable="0">
          <mxGeometry x="0.1491" y="-2" relative="1" as="geometry">
            <mxPoint x="-8" y="-12" as="offset" />
          </mxGeometry>
        </mxCell>
        <mxCell id="E0gzkdAGFKsDHq4gkVWE-21" value="" style="endArrow=classic;html=1;rounded=0;strokeWidth=2;" parent="1" edge="1">
          <mxGeometry width="50" height="50" relative="1" as="geometry">
            <mxPoint x="340" y="322" as="sourcePoint" />
            <mxPoint x="340" y="370" as="targetPoint" />
          </mxGeometry>
        </mxCell>
        <mxCell id="E0gzkdAGFKsDHq4gkVWE-23" value="env" style="edgeLabel;html=1;align=center;verticalAlign=middle;resizable=0;points=[];fontSize=14;labelBackgroundColor=none;" parent="E0gzkdAGFKsDHq4gkVWE-21" vertex="1" connectable="0">
          <mxGeometry x="-0.3522" y="2" relative="1" as="geometry">
            <mxPoint x="14" y="1" as="offset" />
          </mxGeometry>
        </mxCell>
        <mxCell id="E0gzkdAGFKsDHq4gkVWE-24" value="User defined:" style="text;html=1;align=center;verticalAlign=middle;whiteSpace=wrap;rounded=0;fontSize=16;" parent="1" vertex="1">
          <mxGeometry x="770" y="90" width="100" height="30" as="geometry" />
        </mxCell>
        <mxCell id="E0gzkdAGFKsDHq4gkVWE-25" value="Instantiate:" style="text;html=1;align=left;verticalAlign=middle;whiteSpace=wrap;rounded=0;fontSize=16;" parent="1" vertex="1">
          <mxGeometry x="770" y="140" width="100" height="30" as="geometry" />
        </mxCell>
        <mxCell id="E0gzkdAGFKsDHq4gkVWE-26" value="&lt;ul style=&quot;font-size: 14px;&quot;&gt;&lt;li&gt;n_samples&lt;/li&gt;&lt;/ul&gt;" style="text;html=1;align=left;verticalAlign=middle;whiteSpace=wrap;rounded=0;" parent="1" vertex="1">
          <mxGeometry x="850" y="92.5" width="270" height="25" as="geometry" />
        </mxCell>
        <mxCell id="E0gzkdAGFKsDHq4gkVWE-27" value="&lt;ul style=&quot;&quot;&gt;&lt;li style=&quot;font-size: 14px;&quot;&gt;input_gen (InputGenerator)&lt;/li&gt;&lt;ul style=&quot;font-size: 14px;&quot;&gt;&lt;li&gt;WhiteNoise, (PID)&lt;/li&gt;&lt;/ul&gt;&lt;li style=&quot;&quot;&gt;&lt;span style=&quot;font-size: 14px;&quot;&gt;traj_col (TrajectoryCollector)&lt;/span&gt;&lt;/li&gt;&lt;/ul&gt;" style="text;html=1;align=left;verticalAlign=middle;whiteSpace=wrap;rounded=0;" parent="1" vertex="1">
          <mxGeometry x="850" y="138" width="240" height="66" as="geometry" />
        </mxCell>
        <mxCell id="E0gzkdAGFKsDHq4gkVWE-28" value="" style="rounded=0;whiteSpace=wrap;html=1;fillColor=#ffe6cc;strokeColor=#000000;dashed=1;strokeWidth=3;" parent="1" vertex="1">
          <mxGeometry x="820" y="230" width="270" height="210" as="geometry" />
        </mxCell>
        <mxCell id="E0gzkdAGFKsDHq4gkVWE-29" value="env" style="rounded=0;whiteSpace=wrap;html=1;fontSize=14;" parent="1" vertex="1">
          <mxGeometry x="895" y="280" width="120" height="30" as="geometry" />
        </mxCell>
        <mxCell id="E0gzkdAGFKsDHq4gkVWE-30" value="input_gen" style="rounded=0;whiteSpace=wrap;html=1;fontSize=14;" parent="1" vertex="1">
          <mxGeometry x="895" y="330" width="120" height="30" as="geometry" />
        </mxCell>
        <mxCell id="E0gzkdAGFKsDHq4gkVWE-31" value="traj_col" style="rounded=0;whiteSpace=wrap;html=1;fontSize=14;" parent="1" vertex="1">
          <mxGeometry x="895" y="380" width="120" height="40" as="geometry" />
        </mxCell>
        <mxCell id="E0gzkdAGFKsDHq4gkVWE-32" value="" style="endArrow=none;html=1;rounded=0;" parent="1" edge="1">
          <mxGeometry width="50" height="50" relative="1" as="geometry">
            <mxPoint x="860" y="402" as="sourcePoint" />
            <mxPoint x="860" y="292" as="targetPoint" />
          </mxGeometry>
        </mxCell>
        <mxCell id="E0gzkdAGFKsDHq4gkVWE-41" value="y" style="edgeLabel;html=1;align=center;verticalAlign=middle;resizable=0;points=[];fontSize=16;labelBackgroundColor=none;fontStyle=1" parent="E0gzkdAGFKsDHq4gkVWE-32" vertex="1" connectable="0">
          <mxGeometry x="0.5273" relative="1" as="geometry">
            <mxPoint x="-10" y="5" as="offset" />
          </mxGeometry>
        </mxCell>
        <mxCell id="E0gzkdAGFKsDHq4gkVWE-33" value="" style="endArrow=none;html=1;rounded=0;" parent="1" edge="1">
          <mxGeometry width="50" height="50" relative="1" as="geometry">
            <mxPoint x="1050" y="402" as="sourcePoint" />
            <mxPoint x="1050" y="292" as="targetPoint" />
          </mxGeometry>
        </mxCell>
        <mxCell id="E0gzkdAGFKsDHq4gkVWE-40" value="u" style="edgeLabel;html=1;align=center;verticalAlign=middle;resizable=0;points=[];fontSize=16;labelBackgroundColor=none;fontStyle=1" parent="E0gzkdAGFKsDHq4gkVWE-33" vertex="1" connectable="0">
          <mxGeometry x="0.4545" y="-2" relative="1" as="geometry">
            <mxPoint x="3" y="-5" as="offset" />
          </mxGeometry>
        </mxCell>
        <mxCell id="E0gzkdAGFKsDHq4gkVWE-34" value="" style="endArrow=classic;html=1;rounded=0;endFill=1;" parent="1" edge="1">
          <mxGeometry width="50" height="50" relative="1" as="geometry">
            <mxPoint x="860" y="402" as="sourcePoint" />
            <mxPoint x="895" y="402" as="targetPoint" />
          </mxGeometry>
        </mxCell>
        <mxCell id="E0gzkdAGFKsDHq4gkVWE-35" value="" style="endArrow=classic;html=1;rounded=0;startArrow=none;startFill=0;endFill=1;" parent="1" edge="1">
          <mxGeometry width="50" height="50" relative="1" as="geometry">
            <mxPoint x="860" y="346" as="sourcePoint" />
            <mxPoint x="895" y="346" as="targetPoint" />
          </mxGeometry>
        </mxCell>
        <mxCell id="E0gzkdAGFKsDHq4gkVWE-36" value="" style="endArrow=none;html=1;rounded=0;startArrow=classic;startFill=1;" parent="1" edge="1">
          <mxGeometry width="50" height="50" relative="1" as="geometry">
            <mxPoint x="860" y="292" as="sourcePoint" />
            <mxPoint x="895" y="292" as="targetPoint" />
          </mxGeometry>
        </mxCell>
        <mxCell id="E0gzkdAGFKsDHq4gkVWE-37" value="" style="endArrow=none;html=1;rounded=0;endFill=0;startArrow=classic;startFill=1;" parent="1" edge="1">
          <mxGeometry width="50" height="50" relative="1" as="geometry">
            <mxPoint x="1016" y="402" as="sourcePoint" />
            <mxPoint x="1051" y="402" as="targetPoint" />
          </mxGeometry>
        </mxCell>
        <mxCell id="E0gzkdAGFKsDHq4gkVWE-38" value="" style="endArrow=classic;html=1;rounded=0;endFill=1;" parent="1" edge="1">
          <mxGeometry width="50" height="50" relative="1" as="geometry">
            <mxPoint x="1016" y="347" as="sourcePoint" />
            <mxPoint x="1051" y="347" as="targetPoint" />
          </mxGeometry>
        </mxCell>
        <mxCell id="E0gzkdAGFKsDHq4gkVWE-39" value="" style="endArrow=none;html=1;rounded=0;startArrow=classic;startFill=1;" parent="1" edge="1">
          <mxGeometry width="50" height="50" relative="1" as="geometry">
            <mxPoint x="1016" y="291" as="sourcePoint" />
            <mxPoint x="1051" y="291" as="targetPoint" />
          </mxGeometry>
        </mxCell>
        <mxCell id="E0gzkdAGFKsDHq4gkVWE-42" value="" style="endArrow=classic;html=1;rounded=0;exitX=1;exitY=0.75;exitDx=0;exitDy=0;entryX=1.011;entryY=0.858;entryDx=0;entryDy=0;entryPerimeter=0;" parent="1" edge="1">
          <mxGeometry width="50" height="50" relative="1" as="geometry">
            <mxPoint x="1016" y="415" as="sourcePoint" />
            <mxPoint x="1107" y="415" as="targetPoint" />
          </mxGeometry>
        </mxCell>
        <mxCell id="E0gzkdAGFKsDHq4gkVWE-43" value="Training Data" style="edgeLabel;html=1;align=center;verticalAlign=middle;resizable=0;points=[];labelBackgroundColor=none;fontSize=14;" parent="E0gzkdAGFKsDHq4gkVWE-42" vertex="1" connectable="0">
          <mxGeometry x="0.3187" y="3" relative="1" as="geometry">
            <mxPoint x="-20" y="11" as="offset" />
          </mxGeometry>
        </mxCell>
        <mxCell id="E0gzkdAGFKsDHq4gkVWE-44" value="&lt;font style=&quot;font-size: 14px;&quot;&gt;for _ in range(n_samples):&lt;/font&gt;" style="text;html=1;align=left;verticalAlign=middle;whiteSpace=wrap;rounded=0;" parent="1" vertex="1">
          <mxGeometry x="823" y="230" width="180" height="50" as="geometry" />
        </mxCell>
        <mxCell id="E0gzkdAGFKsDHq4gkVWE-45" value="User defined:" style="text;html=1;align=center;verticalAlign=middle;whiteSpace=wrap;rounded=0;fontSize=16;" parent="1" vertex="1">
          <mxGeometry x="80" y="400" width="100" height="30" as="geometry" />
        </mxCell>
        <mxCell id="E0gzkdAGFKsDHq4gkVWE-46" value="Instantiate:" style="text;html=1;align=left;verticalAlign=middle;whiteSpace=wrap;rounded=0;fontSize=16;" parent="1" vertex="1">
          <mxGeometry x="80" y="522.5" width="100" height="30" as="geometry" />
        </mxCell>
        <mxCell id="E0gzkdAGFKsDHq4gkVWE-47" value="&lt;ul style=&quot;font-size: 14px;&quot;&gt;&lt;li&gt;n_sim&lt;/li&gt;&lt;li&gt;DPC parameters&lt;/li&gt;&lt;li&gt;DPC algo&lt;/li&gt;&lt;li&gt;Reference Traj&lt;/li&gt;&lt;li&gt;Constraints&lt;/li&gt;&lt;/ul&gt;" style="text;html=1;align=left;verticalAlign=middle;whiteSpace=wrap;rounded=0;" parent="1" vertex="1">
          <mxGeometry x="90" y="423.75" width="320" height="87.5" as="geometry" />
        </mxCell>
        <mxCell id="E0gzkdAGFKsDHq4gkVWE-48" value="&lt;ul style=&quot;&quot;&gt;&lt;li style=&quot;font-size: 14px;&quot;&gt;&lt;span style=&quot;background-color: initial;&quot;&gt;DPC&lt;/span&gt;&lt;br&gt;&lt;/li&gt;&lt;ul&gt;&lt;li style=&quot;font-size: 14px;&quot;&gt;&lt;span style=&quot;background-color: initial;&quot;&gt;Add constraints&lt;/span&gt;&lt;/li&gt;&lt;li style=&quot;font-size: 14px;&quot;&gt;&lt;span style=&quot;background-color: initial;&quot;&gt;build optimization problem&lt;/span&gt;&lt;/li&gt;&lt;/ul&gt;&lt;/ul&gt;" style="text;html=1;align=left;verticalAlign=middle;whiteSpace=wrap;rounded=0;" parent="1" vertex="1">
          <mxGeometry x="80" y="552" width="300" height="66" as="geometry" />
        </mxCell>
        <mxCell id="E0gzkdAGFKsDHq4gkVWE-49" value="" style="rounded=0;whiteSpace=wrap;html=1;fillColor=#ffe6cc;strokeColor=#000000;dashed=1;strokeWidth=3;" parent="1" vertex="1">
          <mxGeometry x="390" y="402.5" width="270" height="387.5" as="geometry" />
        </mxCell>
        <mxCell id="E0gzkdAGFKsDHq4gkVWE-50" value="env" style="rounded=0;whiteSpace=wrap;html=1;fontSize=14;" parent="1" vertex="1">
          <mxGeometry x="465" y="452.5" width="120" height="30" as="geometry" />
        </mxCell>
        <mxCell id="E0gzkdAGFKsDHq4gkVWE-51" value="DPC" style="rounded=0;whiteSpace=wrap;html=1;fontSize=14;" parent="1" vertex="1">
          <mxGeometry x="465" y="502.5" width="120" height="30" as="geometry" />
        </mxCell>
        <mxCell id="E0gzkdAGFKsDHq4gkVWE-52" value="traj_col" style="rounded=0;whiteSpace=wrap;html=1;fontSize=14;" parent="1" vertex="1">
          <mxGeometry x="465" y="712.5" width="120" height="40" as="geometry" />
        </mxCell>
        <mxCell id="E0gzkdAGFKsDHq4gkVWE-53" value="" style="endArrow=none;html=1;rounded=0;" parent="1" edge="1">
          <mxGeometry width="50" height="50" relative="1" as="geometry">
            <mxPoint x="410" y="735.5" as="sourcePoint" />
            <mxPoint x="410" y="464.5" as="targetPoint" />
          </mxGeometry>
        </mxCell>
        <mxCell id="E0gzkdAGFKsDHq4gkVWE-54" value="y" style="edgeLabel;html=1;align=center;verticalAlign=middle;resizable=0;points=[];fontSize=16;labelBackgroundColor=none;fontStyle=1" parent="E0gzkdAGFKsDHq4gkVWE-53" vertex="1" connectable="0">
          <mxGeometry x="0.5273" relative="1" as="geometry">
            <mxPoint x="-10" y="5" as="offset" />
          </mxGeometry>
        </mxCell>
        <mxCell id="E0gzkdAGFKsDHq4gkVWE-55" value="" style="endArrow=none;html=1;rounded=0;" parent="1" edge="1">
          <mxGeometry width="50" height="50" relative="1" as="geometry">
            <mxPoint x="640" y="735.5" as="sourcePoint" />
            <mxPoint x="640" y="464.5" as="targetPoint" />
          </mxGeometry>
        </mxCell>
        <mxCell id="E0gzkdAGFKsDHq4gkVWE-56" value="u" style="edgeLabel;html=1;align=center;verticalAlign=middle;resizable=0;points=[];fontSize=16;labelBackgroundColor=none;fontStyle=1" parent="E0gzkdAGFKsDHq4gkVWE-55" vertex="1" connectable="0">
          <mxGeometry x="0.4545" y="-2" relative="1" as="geometry">
            <mxPoint x="3" y="-5" as="offset" />
          </mxGeometry>
        </mxCell>
        <mxCell id="E0gzkdAGFKsDHq4gkVWE-57" value="" style="endArrow=classic;html=1;rounded=0;endFill=1;" parent="1" edge="1">
          <mxGeometry width="50" height="50" relative="1" as="geometry">
            <mxPoint x="410" y="734.5" as="sourcePoint" />
            <mxPoint x="465" y="734.5" as="targetPoint" />
          </mxGeometry>
        </mxCell>
        <mxCell id="E0gzkdAGFKsDHq4gkVWE-58" value="" style="endArrow=classic;html=1;rounded=0;startArrow=none;startFill=0;endFill=1;" parent="1" edge="1">
          <mxGeometry width="50" height="50" relative="1" as="geometry">
            <mxPoint x="430" y="518.5" as="sourcePoint" />
            <mxPoint x="465" y="518.5" as="targetPoint" />
          </mxGeometry>
        </mxCell>
        <mxCell id="E0gzkdAGFKsDHq4gkVWE-59" value="" style="endArrow=none;html=1;rounded=0;startArrow=classic;startFill=1;" parent="1" edge="1">
          <mxGeometry width="50" height="50" relative="1" as="geometry">
            <mxPoint x="410" y="464.5" as="sourcePoint" />
            <mxPoint x="466" y="464.5" as="targetPoint" />
          </mxGeometry>
        </mxCell>
        <mxCell id="E0gzkdAGFKsDHq4gkVWE-60" value="" style="endArrow=none;html=1;rounded=0;endFill=0;startArrow=classic;startFill=1;" parent="1" edge="1">
          <mxGeometry width="50" height="50" relative="1" as="geometry">
            <mxPoint x="586" y="734.5" as="sourcePoint" />
            <mxPoint x="640" y="734.5" as="targetPoint" />
          </mxGeometry>
        </mxCell>
        <mxCell id="E0gzkdAGFKsDHq4gkVWE-61" value="" style="endArrow=classic;html=1;rounded=0;endFill=1;" parent="1" edge="1">
          <mxGeometry width="50" height="50" relative="1" as="geometry">
            <mxPoint x="586" y="519.5" as="sourcePoint" />
            <mxPoint x="621" y="519.5" as="targetPoint" />
          </mxGeometry>
        </mxCell>
        <mxCell id="E0gzkdAGFKsDHq4gkVWE-62" value="" style="endArrow=none;html=1;rounded=0;startArrow=classic;startFill=1;" parent="1" edge="1">
          <mxGeometry width="50" height="50" relative="1" as="geometry">
            <mxPoint x="586" y="463.5" as="sourcePoint" />
            <mxPoint x="640" y="463.5" as="targetPoint" />
          </mxGeometry>
        </mxCell>
        <mxCell id="E0gzkdAGFKsDHq4gkVWE-63" value="" style="endArrow=classic;html=1;rounded=0;exitX=1;exitY=0.75;exitDx=0;exitDy=0;strokeWidth=2;" parent="1" edge="1">
          <mxGeometry width="50" height="50" relative="1" as="geometry">
            <mxPoint x="586" y="748" as="sourcePoint" />
            <mxPoint x="770" y="748" as="targetPoint" />
          </mxGeometry>
        </mxCell>
        <mxCell id="E0gzkdAGFKsDHq4gkVWE-64" value="Sim Data" style="edgeLabel;html=1;align=center;verticalAlign=middle;resizable=0;points=[];labelBackgroundColor=none;fontSize=14;" parent="E0gzkdAGFKsDHq4gkVWE-63" vertex="1" connectable="0">
          <mxGeometry x="0.3187" y="3" relative="1" as="geometry">
            <mxPoint x="3" y="-14" as="offset" />
          </mxGeometry>
        </mxCell>
        <mxCell id="E0gzkdAGFKsDHq4gkVWE-65" value="&lt;font style=&quot;font-size: 14px;&quot;&gt;for _ in range(n_sim):&lt;/font&gt;" style="text;html=1;align=left;verticalAlign=middle;whiteSpace=wrap;rounded=0;" parent="1" vertex="1">
          <mxGeometry x="393" y="402.5" width="180" height="50" as="geometry" />
        </mxCell>
        <mxCell id="E0gzkdAGFKsDHq4gkVWE-70" value="" style="endArrow=classic;html=1;rounded=0;entryX=0.998;entryY=0.094;entryDx=0;entryDy=0;entryPerimeter=0;strokeWidth=2;" parent="1" edge="1">
          <mxGeometry width="50" height="50" relative="1" as="geometry">
            <mxPoint x="764" y="420" as="sourcePoint" />
            <mxPoint x="672" y="420" as="targetPoint" />
          </mxGeometry>
        </mxCell>
        <mxCell id="E0gzkdAGFKsDHq4gkVWE-71" value="&lt;font style=&quot;font-size: 14px;&quot;&gt;Training Data&lt;/font&gt;" style="edgeLabel;html=1;align=center;verticalAlign=middle;resizable=0;points=[];" parent="E0gzkdAGFKsDHq4gkVWE-70" vertex="1" connectable="0">
          <mxGeometry x="-0.3034" y="-1" relative="1" as="geometry">
            <mxPoint x="-12" y="-19" as="offset" />
          </mxGeometry>
        </mxCell>
        <mxCell id="E0gzkdAGFKsDHq4gkVWE-74" value="&lt;font style=&quot;font-size: 22px;&quot;&gt;do-DPC Implementation Pipeline&lt;/font&gt;" style="text;html=1;align=center;verticalAlign=middle;whiteSpace=wrap;rounded=0;" parent="1" vertex="1">
          <mxGeometry x="260" y="20" width="517" height="30" as="geometry" />
        </mxCell>
        <mxCell id="s63r-YuF349uBnM-Qt6y-7" value="" style="endArrow=classic;html=1;rounded=0;fontSize=18;" edge="1" parent="1">
          <mxGeometry width="50" height="50" relative="1" as="geometry">
            <mxPoint x="326" y="630" as="sourcePoint" />
            <mxPoint x="430" y="630" as="targetPoint" />
          </mxGeometry>
        </mxCell>
        <mxCell id="s63r-YuF349uBnM-Qt6y-8" value="$$u_r, y_r$$" style="edgeLabel;html=1;align=center;verticalAlign=middle;resizable=0;points=[];fontSize=18;labelBackgroundColor=none;" vertex="1" connectable="0" parent="s63r-YuF349uBnM-Qt6y-7">
          <mxGeometry x="-0.4941" y="-2" relative="1" as="geometry">
            <mxPoint y="-14" as="offset" />
          </mxGeometry>
        </mxCell>
        <mxCell id="s63r-YuF349uBnM-Qt6y-14" value="" style="group" vertex="1" connectable="0" parent="1">
          <mxGeometry x="430" y="490" width="190" height="220" as="geometry" />
        </mxCell>
        <mxCell id="s63r-YuF349uBnM-Qt6y-1" value="" style="rounded=0;whiteSpace=wrap;html=1;fontSize=18;" vertex="1" parent="s63r-YuF349uBnM-Qt6y-14">
          <mxGeometry width="190" height="220" as="geometry" />
        </mxCell>
        <mxCell id="s63r-YuF349uBnM-Qt6y-2" value="&lt;b&gt;DPC&lt;/b&gt;" style="text;html=1;align=center;verticalAlign=middle;whiteSpace=wrap;rounded=0;fontSize=18;" vertex="1" parent="s63r-YuF349uBnM-Qt6y-14">
          <mxGeometry x="69.0909090909091" y="15.714285714285714" width="51.81818181818182" height="23.571428571428577" as="geometry" />
        </mxCell>
        <mxCell id="s63r-YuF349uBnM-Qt6y-3" value="DPCParameters" style="rounded=1;whiteSpace=wrap;html=1;fontSize=18;" vertex="1" parent="s63r-YuF349uBnM-Qt6y-14">
          <mxGeometry x="17.96" y="50" width="154.09" height="60" as="geometry" />
        </mxCell>
        <mxCell id="s63r-YuF349uBnM-Qt6y-4" value="PredMatrices&lt;div style=&quot;font-size: 18px;&quot;&gt;RegMatrices&lt;/div&gt;&lt;div style=&quot;font-size: 18px;&quot;&gt;(from training data)&lt;/div&gt;" style="rounded=1;whiteSpace=wrap;html=1;fontSize=18;" vertex="1" parent="s63r-YuF349uBnM-Qt6y-14">
          <mxGeometry x="13.239999999999998" y="120" width="163.53" height="81.14" as="geometry" />
        </mxCell>
        <mxCell id="s63r-YuF349uBnM-Qt6y-16" value="" style="endArrow=classic;html=1;rounded=0;startArrow=none;startFill=0;endFill=1;" edge="1" parent="1">
          <mxGeometry width="50" height="50" relative="1" as="geometry">
            <mxPoint x="620" y="600" as="sourcePoint" />
            <mxPoint x="640" y="600" as="targetPoint" />
          </mxGeometry>
        </mxCell>
        <mxCell id="s63r-YuF349uBnM-Qt6y-17" value="" style="shape=image;verticalLabelPosition=bottom;labelBackgroundColor=default;verticalAlign=top;aspect=fixed;imageAspect=0;image=data:image/png,iVBORw0KGgoAAAANSUhEUgAAA5QAAAKwCAYAAADnfDDcAAAAAXNSR0IArs4c6QAAAIRlWElmTU0AKgAAAAgABQESAAMAAAABAAEAAAEaAAUAAAABAAAASgEbAAUAAAABAAAAUgEoAAMAAAABAAIAAIdpAAQAAAABAAAAWgAAAAAAAACQAAAAAQAAAJAAAAABAAOgAQADAAAAAQABAACgAgAEAAAAAQAAA5SgAwAEAAAAAQAAArAAAAAAOICfvwAAAAlwSFlzAAAWJQAAFiUBSVIk8AAAQABJREFUeAHsvQd8XNWZ/v9YvViWJXdbstx7b9gYg8F0TA0JJSQOJslmP0l2/2GzCclvsywJS8qGlA1ZIKEGCAnNBJsWDO4U996LXGVLlixbVi/+n+eIo1wPI3tGGo1mpOfAeO7ce+4p33NndJ/7vuc9Hc6YBCUREAEREAEREAEREAEREAEREAERCIJAB5NigsivrCIgAiIgAiIgAiIgAiIgAiIgAiLQQECCsgGFNkRABERABERABERABERABERABIIhIEEZDC3lFQEREAEREAEREAEREAEREAERaCAgQdmAQhsiIAIiIAIiIAIiIAIiIAIiIALBEJCgDIaW8oqACIiACIiACIiACIiACIiACDQQkKBsQKENERABERABERABERABERABERCBYAhIUAZDS3lFQAREQAREQAREQAREQAREQAQaCEhQNqDQhgiIgAiIgAiIgAiIgAiIgAiIQDAEJCiDoaW8IiACIiACIiACIiACIiACIiACDQQkKBtQaEMEREAEREAEREAEREAEREAERCAYAhKUwdBSXhEQAREQAREQAREQAREQAREQgQYCEpQNKLQhAiIgAiIgAiIgAiIgAiIgAiIQDAEJymBoKa8IiIAIiIAIiIAIiIAIiIAIiEADAQnKBhTaEAEREAEREAEREAEREAEREAERCIaABGUwtJRXBERABERABERABERABERABESggYAEZQMKbYiACIiACIiACIiACIiACIiACARDQIIyGFrKKwIiIAIiIAIiIAIiIAIiIAIi0EBAgrIBhTZEQAREQAREQAREQAREQAREQASCISBBGQwt5RUBERABERABERABERABERABEWggIEHZgEIbIiACIiACIiACIiACIiACIiACwRCQoAyGlvKKgAiIgAiIgAiIgAiIgAiIgAg0EJCgbEChDREQAREQAREQAREQAREQAREQgWAISFAGQ0t5RUAEREAEREAEREAEREAEREAEGghIUDag0IYIiIAIiIAIiIAIiIAIiIAIiEAwBCQog6GlvCIgAiIgAiIgAiIgAiIgAiIgAg0EJCgbUGhDBERABERABERABERABERABEQgGAISlMHQUl4REAEREAEREAEREAEREAEREIEGAhKUDSi0IQIiIAIiIAIiIAIiIAIiIAIiEAwBCcpgaCmvCIiACIiACIiACIiACIiACIhAAwEJygYU2hABERABERABERABERABERABEQiGgARlMLSUVwREQAREQAREQAREQAREQAREoIGABGUDCm2IgAiIgAiIgAiIgAiIgAiIgAgEQ0CCMhhayisCIiACIiACIiACIiACIiACItBAQIKyAYU2REAEREAEREAEREAEREAEREAEgiEgQRkMLeUVAREQAREQAREQAREQAREQARFoICBB2YBCGyIgAiIgAiIgAiIgAiIgAiIgAsEQkKAMhpbyioAIiIAIiIAIiIAIiIAIiIAINBCQoGxAoQ0REAEREAEREAEREAEREAEREIFgCEhQBkNLeUVABERABERABERABERABERABBoISFA2oNCGCIiACIiACIiACIiACIiACIhAMAQkKIOhpbwiIAIiIAIiIAIiIAIiIAIiIAINBCQoG1BoQwREQAREQAREQAREQAREQAREIBgCEpTB0FJeERABERABERABERABERABERCBBgISlA0otCECIiACIiACIiACIiACIiACIhAMAQnKYGgprwiIgAiIgAiIgAiIgAiIgAiIQAMBCcoGFNoQAREQAREQAREQAREQAREQAREIhoAEZTC0lFcEREAEREAEREAEREAEREAERKCBgARlAwptiIAIiIAIiEDLEThz5sxnCve37zOZtEMEREAEREAEIphAXAS3TU0TAREQAREQgagjUFtbi+rqalRVVSE5ORnx8fG2Dx06dGjYzx2JiYmIi9Of4agbYDVYBERABETgLAKyUJ6FQx9EQAREQATaEoHWsADu2rULv/zlL3HhhRfijTfeAAWmS2+//TbmzJmDe+65BytWrHC79S4CIiACIiACUUtAj0ajdujUcBEQgUgj8Pzzz2Pt2rVISUmxTaOYoVWKFipaovi5oqLCvnM/U2VlJSZMmICZM2eiU6dOWLx4MT7++GPExsZaIVJXV4eYmBikpqYiMzMTOTk5mDRpErp06WLP9/fP6dOnsW3bNuzcuRNHjx4FP7NuWsu6d++O/v37Y8yYMbY8f+dH875Tp07ZPp84cQIDBgxAt27dwt6d0tJS7NmzB1u2bMGxY8cse9eI/Px8rF+/3l4TbGO0JVpdeY3z2mJf2Fdenx07dkRGRgZ69+6NQYMGWfaub7TWkgev9fT0dHsNu+vf5Wnqu/tO7d2711p/s7Oz0blzZ/v9aWqZOk8EREAERCA4AhKUwfFSbhEQARFolMCrr76K119//SwXRwrCmpqahnMoLnkzzRthJt5s33bbbRgxYoS9Maco/ctf/mKP8UadwtLdsPNGefDgwbjjjjtwySWX2Btzm/HTf1hmYWGhtXy9+eab9sb/8OHDVlCyHRSlvXr1snVdffXVuPjii6249JYR7dvs7wcffGBF21e+8pVWEZQcM4p3poSEhLOQ8nNaWpq9Rpwr7FkZIvhDUVGRvaZ4fa5Zs8YKypMnT9prlH2ieKegvPHGG/H1r3+9oSfl5eXg9Xj8+HGMHj0aFH1kFIrE65rt+tvf/oaSkhLcfPPNGDVqVMNDnVDUoTJEQAREQATOTUCC8tx8dFQEREAEAiZw9913Y+rUqUhKSrLnUDDQYkar47Jly6x15rvf/a4VG7T0MPF95MiR9kacwpEvpmuvvRaTJ09Gjx49UFZWZm/eP/zwQ7z//vtYunQpvv/97+Nb3/qWtQo5aw9v7n/yk5/g5Zdftjfv48ePxw033IB+/fpZAUOxSasZBRdFwb//+7/jF7/4ha2vrfyTl5dn+7dgwQLMmDED06dPbytda9V+8MEHmf7whz+01zSF4Re/+EVrKafVnZbwffv24e9//7u9/n0FJffn5ubaa/nzn/98SAVlcXEx3nrrLRQUFGDcuHEYMmSIBGWrXi2qXAREoL0RkKBsbyOu/oqACLQYAc6ZGzt2bIMopLCkWyBfq1atsuLvpptusq6ttNow0apId0G+6JrK+XYM1kIrC62IAwcOtDfhvGln2bQwUjAuWrTI3jxfd9119ub8yJEjeOGFF+wxitK5c+fiiiuusOfTlZb7nDDdvn07/vSnP1lLWYvBCGPBZOhENS2ALiCOPwugN++5msh8TK7cc+VtzWPB9Kc5ffnkk0+saKMF+J/+6Z/sAw9em3TvpgWe1kFaCnnN0QLpTbz+eP3y+qZFsTnj4i2X2yyLlndXPj/Tku+bAuXke54+i4AIiIAInJ+ABOX5GSmHCIiACAREoGvXruDLm9zcMgo6ih3O62ss8YafN9ycb+nmS3rnAPIGnnPQ3nvvPezYscO6H15zzTVWUG7YsAFPP/20vamnCy2tj8zvm+haO9PM12S5rCPYRIsr5wXSKsSbeN6oOzdOlsn+OyurK5uWI4pqnkuxR3dHukjS+so2+AoMlrt161Z7ep8+fSwPWlfpMknxQsHNerKysmzdjhutZOTAupjWrVuHoUOHNtTbt29f+5mMOaeP7eKcVJbHuYA8n8KIbaJrMdvI/tHyS8HOd9d+ihi2ny/f/trKm/EP+8m2kTHrY/9YH/vMBwpeXjxGXpyXyQcYnCNLd1v2heWwr+TUs2dPW4YLEMTzgmk3501u3LjRPhShKzEt8f7S5Zdf3uDOzePsAy3qZMexO3DgABYuXGjbSrYUm7Qoss201rt+U3zys7u+KBJ5LXBMXGJfDh06ZD0AeG2xfLaTfPg9YR85vrwunQsyebBNHE+ONevg9Ui+ZMS8/iLv8vrgdU/RzIdB7ntK5pw7ynO5HQxT1w+9i4AIiEC0E5CgjPYRVPtFQAQimgADkbibeN4c8waWAsw38ZhL3OY5zOtNvNFlwBOez5th3kTzppnvnNPGQDycW8k5bP7EpLesW265xfsxoG2KmyVLluCll14CLVa8KeeNNW/Chw8fji984Qt2PiitVmwX+8F2vvbaa+D8UgoS3szzOIXtrbfeitmzZ9s+uQbwHFrBKFooEL797W9bEUFXX7o1UpgwINFVV11lj7Fe3sjzJv/RRx/FX//6VzDKKhMjrfLFxHK/+tWv4o9//KMNDvM///M/1qJLF04KFbJjGyk0afX9zW9+Y+ulkKWL8DPPPGMFKgPpUJxQBNHafOedd1rBFqo5gRQunIdL99LVq1fbObEUSBx3Wv9oeaZI9iaOAzlSMNOdlEGXXnnlFfvggeNz//3327GhaGJeXpNOQHGcAkkcN16PFKxeUefvXG+Z8+bNw7333mvHjWPAqLfz58+348FyaNV/5JFHbP8ogmllp3s4H5hQXPKao5BmIKqvfe1rNr+zQFIw85r4zne+Y/vEtjz00EO2SayLovIHP/iBZeIe5FAUUtByrvKmTZssX14/5Mvrl98Lbnv7wAIpVJ977jnQ7ZyimCzYfgrJWbNmge7uHBeWpSQCIiAC7Y2ABGV7G3H1VwREIGoI+N7UsuF0W+XNMkUGhSXz0JpHyxzTRRddZCO42g/n+Mdf2efIboUhxRnFIUUJhRznq1FcUQSxDbzpvuyyy6zAovjlfMaf/vSnVhxR8DGyLMUnhQJF38MPP4xcM6+O4pHHnHWH/eMN+/79+20wF4oAiki6ANMaRzFL0UVx97Of/czeyJPHBRdcYC1WbA/byDmULJcCihYvBiFiosiiYCdLWntZJnnwfLoa850CkWVQeDzxxBNWCFMw0J2T51HA/+53v7Mi88c//jGGDRt2LnwBHWPk1D/84Q82wAzrnzhxonXfZNvJ6amnnrL9Iy+KS5fIi3zJi0KUDxgoLmm95vhwm+KH1rUHHngAu3fvtnNL2e5AhTAt7czLsWNEVc77DSQxH0Uug/LwYQDbQhHJsaZlmA8+aOHjeLD/vL7YH84fZts5duw7RSbFPudmfvOb37TjRVHMMaGwf/fdd+0DCJ7HMeL1x+N0E3cClEKQ1zCXbuH1QpHKusmXFt7f//739ntERmwX28hrhdeaE5O87nlNsW28Dsic5VIAs28SlIFcFcojAiLQ1ghIULa1EVV/REAEop4AxQ1vZp3AYodoraMVjYKBQoo30nTLZB7e4DMgCm+ieQNPF8dQJgq0jz76yN5UU5RMmzatwZLDG2juW7lypb2Rp8il8KAQoPBj8B8KBApNCgtGAaUooRskhRpv1p3bo1tuhf2nGKDQY58pXGcaN12+8wafN+60fFEYMOItWbBeBuBh2RQeFIOXXnqpXfPRuVvSmsTEMtyNP62mDDBD8UnBSYZsIwXUO++8Y62xFL9f+tKXrIij9Y+CjUKUbaBVk/VSsNHS2dREXotN8KYXX3zRWgHJi+2nACd/suQxWtfokss6HS9eA9ymxY7WXVp/abGk+KFoYxkUTgcPHrRBc/jOxHEJNJERRTMtjJx/y4cF5E4rIMum4Ccz38TzaMWl+zG58/rkHEy2lyKS48wy+ACB1wEfiNAKyoBS3M88FGsM6kPLOC2S5MK6WR/7yuuK48jvBV1uWQbbxP5xzMmL1yjHisKTZd51111WsJMNx5NL9VA0csz5QIHWc44ny2CdPM6ybr/9dvvQwXkJ8NpgeXRF5rWjJAIiIALtkYB+/drjqKvPIiACEUuAYorikTfAtHzQkkILCoUSxdef//xne5zWFd74Mj+P0TWT27wZd2IpVJ1kEB8GAmJ7eKNNN1FaabyJbqLeRIspb84pcuiqSNdViguXKArYbpZLqxQtTxQZ7AOTe+eN+4MPPmjFkTu3n4lay/10b2Q9XMeTbooUERSbziLFfBSA3uRElCufYm3OnDnWldSbjyKD7rObN2+24o2WUApNlyg+KaJ+9KMfWfdSztVrjqBk0CaKRY7jz3/+c2t18wo0Witpefve975nxQ2j9XIMKBiZXH84/r/97W/twwbXVvdO4Uk+FNjsizvHHT/XOx8iUDzR9ZjutBxbMueY0qpLsc8X2fOadWXTkkcRyb5wzCjg2BfvwxLWy/wcxylTpnymGRSIdCvlwwW2gZzYD4p4usNS6LJ8jiXHm+2gOPUmiujHHnvM1kNByyjJ3kSLLwUh2VG407LpBCUtp3xI4lycvWWzXUoiIAIi0N4JSFC29ytA/RcBEYgoAhSDtFbR9ZHzyXiTS8sOLTi0wPBmnXO9uGQDb+SZeCNNl0cmZ7WyH0L0D936aKHhzTvdFX3FpL9qaDWl2OONPs/xiknmp9C4/vrr7TImtKoxLwUhLVZMnDvHvlB4sl5vonijdZaJAXjIxSUKRica3bs75n2naGeiZZLCyDdRCFNIUwBRbLBt3sR+UbiQBd192d/mJApKWplpeaOYYfneRGsd58fSEsa5hnTRJAMKSvaT1whFD88lH3+JYpOBm2j5pSjyFXX+znH72B6u8cgyaClcsWKFbQPHjePE9tGCR4sxl6rhHFOXvGPCff7GhW1xItSd531n2ewvBT5FJa8PJle2K9N99p7L7w5FIa/jz33uc5aj97jbpkWXFk+OBcffJTLmHFIKWs4J9gpKl0fvIiACItCeCUhQtufRV99FQAQijgCFAROtX7yJpsDiTTKtO9xH8UOLDa05LvFG3IkDd747Fop3Ws14M06R0JhY8a2H1kcKH/bBa9lz+dheCmK651IgsHzerDtBSTdCijj2l333TXRjZKIlkXPZXHLCgp+92+64e2f5bANFiq9YpFjhvE1a8mgVpNDw587ICK9sH4O7sL8unUsYuTy+77T+UlizTQxSQyHLhwSuLO5nuzj/kcKRvCiUXOK4U+zRcuePF1nwYYQT4u487nd1uH2NvVPMcn1UCnxaaNkGjjGtfxxDzqHleFCw0grI65Xt9l6TrI+f2Qdvcm2guzJFIwU6rwc+LOEx9p2CjmNNcefKZHl8ueTKd5/5zuuXbFkGy37yySetldWbh+NLthSe9Ajg2DOx/XyoQRdfLtXzn//5nw3XLVlz/NlPJREQARFozwQkKNvz6KvvIiACEUeAN7288WdAFd689zNum9xHix7FmT/rCK1HfFHU8IY+1InChjf3FBKBWkB5409h4bvMhWsbb9TpHsnyKO54A+8VSBQGFEbslxMb7ly+kxETrbne8+zOAP5h+WwDLWu+Aoxl0urJPHSrZB5/iedRTDCfsxD7yxfIPidiyOzZZ5+1bWO53kQObDOFPS3Zvlwoxnl9UGwxnzf55nXHGtvvjvu+c7xmmvmsfDHRkkcLLSPh0nJJ0cd5s5wDSYsqxy/QRGFKF2i601Kk8xoiA9dGsuGDBH4fgkm8dnl9UTRyriVFo7/E46yL483vGxM/0zLLMhgUifMseZxRY+nKyz7S9Zyuts792F/Z2icCIiACbZmABGVbHl31TQREIOoIUAxQLNH6RfdHRpvkDTRvbH2tOq5ztGYxP606XJePFhw3j9Dlac67u6EPpgx3jq8oaqwM5nfnePP428fjgZbrLct3m2WTta/48uYLRT3e8hrbpgsuBQnF4ldMFFdaRimgfBOvDwoaN4fQHWc7KYj4CmeiwKPFnPMYaTW/7777rMWScy3pEhyooKR7MecHM9IqH1xw+Q4KNlqPKWIp2OmuS7dgPoAIdlx4Dl98UMMXHwRw/H3LcZ8pEpmYh9/Df/u3f7NzKLlsCN2NOYeVc2wZBZiBgP7jP/7DimgnRMM5BqpLBERABFqbQHj/8rR2b1W/CIiACEQBAd7EUhg4i4ezxjXWdN7wUogsX77crl3IgD20EAWSeAPN+s6VeJNMyxfnK9IFMZBEEcDzaDX1Z0GkMKIVkOVRKFMk+VoKA6nnXHnO1y+eSzHpm4/WPwol7qdligLdCQ1vfbRk0kLHMthfl/zldccae6cllOPNOuliSXdg79xQ73nkxbz+ePn2xXteS2w7MU53W1otaUWnlZLusOTjmxprH91NaeVknzgH88tf/rJ9KMKxoCiloGTwJn9leutg+b510HLL64uC0gUFohsz83Gfb+J+53rNY+wjRS6vCVrcOSeYLrR0z6X7LOdcUlwyiE+gLuG+deqzCIiACEQzAQnKaB49tV0ERKBNEqAg4cvfza6/DlNMUkBSwDFYCgOz8OVu9v2dwzmCFKq8ST5f4s00Xfp4E51r1gQMJFFg8OabLoY8zzexf3RrpJsjxVg/49pLUdXcRDHg+h2IsHOsvfVSzNPiSysvRTStURQ5vonzBzl3kAwpVJqT6EJJzqyP4ol9aIm5ee6a8nIKpN20lrJN/kSsO9/Lm+XzxeTq4nE+SPBnaeeDB84jpSBjECTfIE7ODZmuwa5cVzbL4z5Xvvc485ArLboUp5wLyQjKvvNmme98if1nOXy5xGv7mWeesetk3n333RKUDozeRUAE2hWBsydZtKuuq7MiIAIi0DYI0JrCpRi4qDvFD9cKZFRWF8nUt5d0oeVaglxLMZDEm/ypU6fa4CYUrAy+cr5EgURRy3lwdBNkNFBvojCYP3++XWOQ4o3RUr1WPm/eYLYpkikcmFh3UxPFHCN+UnxwmQq+exMtl3R9ZJAXumbSNbk5iVZl1kfB87e//c1y8VceBRnFHfvG7WASrweWz4cCFK7BJApnvhpLtDRzbVGKbArxfuYBgbOwU+DxYQfr57h7hacrz40b8/hawWmp5fqRbDeFpVcwUuRxvPkQgNc1x8X3umc7aMVnm/i94HXnm8e1g21jfc4SSgFO1v6s7DzHzbFl/d52ufL0LgIiIALtgYAslO1hlNVHERCBNk+ALpJco5BBeXhjz3Ufr7zySjuPjVFWacVhYBIGJPnoo49s4JO5c+fitttuOy8bugcyH4XV22+/bYUl57jxJp1CgWKLZVJ4cikQ1kcxyaBCdFPkgvKMtMnlTniMYmbJkiVWONFNkAvTO0upP7Fx3gZ6MlAIMnIsE4O70FLqxB63OTcxkESRwqVZKJDYN86hI08KZXKkwKFwJ1e239/6iYHU4/Jwzh7dPil4GPxlx44ddq4fRRCtghRitIbRLZQWMq7tSd4UVIEmCqUf//jH1lVz+vTpuP/++/1aC/2Vx/HivEhy4cMLWsWdBZXjv27dOjuedHflgw2u2eisgBRb5P7JJ59Y91Cup8q2U+jxIQLHh2PGMhcvXmwfdlAc8lqhuzEfSFAEUthxDL3XCPnTEk6XbI7VggULrLWY0Wwp8Piwgi8y43fi4YcftnM1aQVmQB2OJ8Us66Fgpqsuy+d3g9cwBeoPfvADO+Z0Reb1SvdZCk4GI5o3b54VwBw/7lcSAREQgfZIQIKyPY66+iwCIhBWArRu8GbYX5AVb0N4I8sbVWcR8d44e/P526alhK6CdBukiOPNLm/CV69ebW/8KTxYP8UcrVS8oeeSB4EkigiKBLr0URzSjZUChzfyFAQslzfjDE5CEUnLGW/SeQ7nwlF4UZTxpp0ihOKS1iaKAwpTRtF01iy2h/3mDT9ftCT54+BcN8nLbfNc3vDz5p5il9ZDBnlhX1kW28Y+kAXPo2jhy1/5FEGXXXaZdcnleFDoUGxQ5LAsuutSzNx5552WO+cOusT+O4uWryWMn8mLbfa2m7wocBxjWoEpkMiIgpLt5MMCCk3mo1hyFjHWxzayXczXWGIeimy6GfMcf/1u7FxeA6yf1xMD47C/nNvIPnBcjxw5YgNCUWzy4QPf+bCBiedSjDHwDi3Vf/zjH60Vk4KTYpLijVbe2bNn28BS7DuvEY6l+z7wumGb2Ufy87ad9TAwEINS8VweY9kUmSyT1nWeT5HLdlIE0jrP/OwH2bvvBvnx2mFdTCyL+SiYKehpfaVHAMeXHMmUdbNsutYqiYAIiEB7JCBB2R5HXX0WAREIGwHe9FN00QJ3PgsGhQ6FIW9+eU4w1id2iMLjn//5nzFjxgwrJimCKEBo9eINMm+GabmhpZALvPMmPtBE8cAInrTaMAAJrU0UCEycP8iyGOWT267dvFn/r//6LxsBlEKULqIUH7whZ/5bb70V1113nZ2f6W0Hz2dbKUT4csLJm4d95TGKBm67RCFB8XLHHXdYayoFDMUshQLHwAlK9ofnkjOFoW9iGygQKIj7GSvhM2aeHEUFxTQFDEUHRQQFJYW1N1GMsnzmYxu9icKZ1wFFDF/exHmqP/zhD63r65tvvmnHjaKYiedQYN144424+uqr7TbrYWL7ec2w77712Qyf/uMshbRUcmz8cfXm927TOsvyaakkU75oqaUQ43jSAsmHA+RBAefEJMvgNuegMj8F9Zo1a6xVm9c6LaXsE69LClEKNFoZKdh5vbCdfODAY48//rg9l2zdNebayGuafeeyHnTLpvjleJMpLezkw4cB9957r33QwYiyFJ8cTyb2jQ8e2HY+eOB5TGz77bffbsviQxpe82wj66JVld8j9o3fOSUREAERaK8EOpinb2cvdNVeSajfIiACItACBGjBoVWQQUcoILi8QmM38sxLCyNvvHkjzRtir1gKtHm0nlC4sRze/DqrFQUFb5CdaPVaBQMtmy6AtB7x3Vnh2C8nmnlj7ts/ukTyRasmBQUFEPPzJp/C0Qkj1wZapRhBk3+e6K7IMn1FHwUDXUR5PkUs++QSOZI3GbD//EwGFH4UChTXXF6F/XCcG2PBvGw3y+M7y6GYce1nH3zFDa1ojP7KcyhSOI6OCTnweuBn1u3vIQPHjaLPy5j9ZxsppngO++vKJC8KHY4DWfDlL3G8aG1j+1gGWbgy/OX37mO/yZJtIgfWybHkGLH/FFhsG0U42fhL5E0u7ppkn3gOGfF8lsXj7DvnUZI9+0TGLJeBpLifHOjC6r1u2DdyI3P2j23jcYpI8nfjyzrYftbDvni/G44vryn2gf1ifrbHfZdYD68nHmN+5uX12Vif/XHQPhEQARFoSwTM35EOEpRtaUTVFxEQgYgiwJtRfzfsje331/hg8vo7vy3uOxeTcx0ji8aON7Y/lPz81eFvXzB1Bnp+Y/ka2x9MG0KRtyntCOacYPK6/jTlHHeu3kVABESgvRCQoGwvI61+ioAIiIAIiIAIiIAIiIAIiECICVBQBh4eLsSVqzgREAEREAEREAEREAEREAEREIHoJiBBGd3jp9aLgAiIgAiIgAiIgAiIgAiIQKsRkKBsNfSqWAREQAREQAREQAREQAREQASim4AEZXSPn1ovAiIgAiIgAiIgAiIgAiIgAq1GQIKy1dCrYhEQAREQAREQAREQAREQARGIbgISlNE9fmq9CIiACIiACIiACIiACIiACLQaAQnKVkOvikVABERABERABERABERABEQguglIUEb3+Kn1IiACIiACIiACIiACIiACItBqBCQoWw29KhYBERABERABERABERABERCB6CYQF93NV+tJoK6uDrm5uSgsLERqaio6dOjQKmBcvWfOnGmV+ttCpY4h+yKOTR9Rx1EMm87QnSmWjkTT38Ww6ey8Z4qjl0bztsWyefx4thg2n2FLcSwvL0dcXByGDBmCpKSk0DRUpZyTgATlOfFE/kHeMJeUlOCXv/wlnn76aSQmJraaEImNjbXAamtrIx9chLaQf6DIkQwlhpo+SLoWm87O90yx9CUS/OeYmBjwpe918Oy8Z/AGkb+L+hvjpdK0bbLkw2i+lJpGQN/rpnHzPaslrsXKykpMmDABTz31FIYNG+ZbpT63AAEJyhaAGs4iKUDi4+OthbKiogJf+9rXkJKSYv/ohkuQsA38A3/gwAH7xK5v37725ilc9YeTd0vWRY7FxcU4cuQIsrOzkZaWJlEZJHB3Le7fv98Kc3LkH31di0GCNNnJsqamxv628Alvnz59gi9EZ1iO9B7Jz88HfxvpRaLrMbgLg9didXU1+L3WtRgcO9/cZFlVVWW/1/wb07NnT98s+hwAAXI8duyY/Zudk5Njr0t9rwMA58lChhR+ucbDrlOnTs2+Flkex4B/81966SVs27bNU5s2W5qABGVLEw5D+fwDSyvC8OHD8dBDD6Fjx45hqPWzVaxYscK2Y+rUqZ89qD0BEcjLy8OaNWtAhl27dg3oHGX6LIHly5fbBy0XXHDBZw9qT8AEaL1YsmQJOnfujPHjxwd8njKeTYBCaMuWLbjooovsjdPZR/UpEALuWszIyMC4ceMCOUV5GiFAcb548WL07t0bI0eObCSXdp+PwM6dO7F3717MnDlTbpXng9XIcT7c4LWYlZWFESNGNJIr+N2nT5+2ojI5OTn4k3VGkwgoKE+TsEXeSe7JDC0KrZFYr3vJHanpI0CG5Mc/+EpNI+CuQ77LnatpDN1ZvA55PZKlnr47KsG/kyMZ6nsdPDt3hmOoa9ERafq7l2XTS9GZvBb197p51wGvRfc3pnklnX22/vafzSMcnyQow0E5jHVQWLZGcvXy3W23RjvaSp1i2LyR1HXYPH7ubO916N12x/UeGAF3PYphYLzOl0scz0fo/MfdNXn+nMohAi1HwH2X3XvL1aSSW5qABGVLEw5z+a1lRXD18t1th7nrqk4EGgjoOmxA0awN73fZu92sQtvhye56FMPQDL44Np+juyabX5JKEIGmE3DfZffe9JJ0ZmsTkKBs7RFQ/SIgAiIgAiIgAiIgAiIgAiIQpQQkKKN04NRsERABERABERABERABEYhWAnJ1jdaR+2y7FeX1s0y0RwREQAREQAREQAREIIoIhMONlwKI9bh34nEBYMJRfxQNxzmbSn58MSAPk2Pny5bHXF5uK0UuAQnKyB0btUwEREAEREAEREAERKARAhQk7kVhR0HSkskJSb6zPq4DzjXA+e5EUUvW31bKJj8mL7vS0lK7zzG2H8w//Myl8dyL60wqRR4BCcrIGxO1SAREQAREQAREQARE4BwEuGxHUVERuOZgayzJQyGbnp6OwsJCFBcXn6OlOtQYATLs1KmTFeOHDx9uLBsoIhMTE+2ayGlpaVZkNppZB1qFgARlq2BXpSIgAiIgAiIgAiIgAk0hQMvWiRMnQKsWLVgpKSlWdDjLV1PKDPacpKQkax1NSEiwdQd7vvLXuwuTI62PcXFxfoUiLcEUnpWVlfYBAh8eZGRkiHmEXUASlBE2IGqOCIiACIiACIiACIhA4wTKy8utoKSYo8WKL4qScLlD0r2VopbihmKWdYdTzDZOJnqOkCGFYllZmXUZprD0ZejciKuqqqwVuKSkBLRMc7w59kqRQ0CCMnLGQi0RAREQAREQAREQARE4BwGKEIoKio/MzEzrMknrVjgThQ7rpPWM7+GuP5x9bcm6+ADAzY0kQ19B6ermHFUeJ3c+TOD4c19j+d15eg8fAc1sDR9r1SQCIiACIiACIiACItBMAhQWTOG0Snqb7BUy3m1vHm0HR+BcHHmMgtJZoJ3lMrgalLslCUhQtiRdlS0CIiACIiACIiACIhBSAucSHyGtqJHCnKDlYe92I9m1OwAC5+PoPc7xb+1rIIAutassEpTtarjVWREQAREQAREQAREQAREQAREIHQEJytCxVEkiIAIiIAIiIAIiIAIiIAIi0K4ISFC2q+FWZ0VABERABERABERABERABEQgdAQkKEPHsl2XZNzZYf43Pu18cUtJBERABERABERABERABESgrROQoGzrIxym/jHSWkJsB8THdGiIwhWmqlWNCIiACIiACIiACLR7At7ANe0ehgCElUB4F+4Ja9dUWTgInCitwqHichwqKsW2w1VIio9DxY58JCbEITk+BinmPSUxFhkpCeZzbDiapDpEQAREQAREQAREoMUIeD2xvNstVqGfgrkW4xtvvIEtW7bgsssuw5gxY5CWlmZzVlZWYuHChfjwww9x4403YsSIEejYsaOfUrRLBEJDQIIyNBzbbSmHiyuwaHs+lu0qQHFxlRGQtVhXsh/JRkimJcUhIzUBnVPi0Ts9Gb3Sk5BpPqcmxtmXBGa7vWzUcREQAREQARGIagLGIQt8tdYsH1ojV65ciT//+c/Ys2cPvvWtb2HSpEl2GZO1a9fiqaeewnvvvYdRo0Zh8ODBUc1ajY98AhKUkT9GEd3Ck+VV2JV/Gqv3n0B1zRnExZ5Bh4J8M5+SawTxx9a4wHJKpXlPMRbKPhlJmNK/Cy4d2g1TB3RBfKy8riN6gNU4ERABERABEYgGAkZgnTHt5Iu3HS2VWD5rqa0zr1q+6kyFMQHXWX9+fRttO5uoSOPj43HPPfcgKSkJv/jFLzBs2DCMHDnSCspf/epX2LVrF77xjW9g1qxZyMjIaCkcKlcELAEJSl0IzSJAi+PorHRUVNUgr6DQlpWaZj7X1KG0sganyqtRbF4FpypQUV2Lo6fKcfRkBTYeLMbbPY9ixqCuuMAIS5ajJAIiIAIiIAIiIAJNImCE2V9WHsDCbcfsdJuWEpUNgtIIybq6OsTFxZpn5oELyhojRJnmXtQPk3Iym9RVdxItj1dddZV1b120aBFOnTqFrKwsbNy4EePGjcNXv/pVdOvWzWXXuwi0GAEJyhZD2z4K7mVcWWcM7oZBXVOwYdMpnDE/6AMHZaPSPLUrqajBybIqKyiPGUGZX1KJE2XVOHKiHIt3FuDjvUU4WFSG46erMG1gF+R0SZHFsn1cNuqlCIiACIiACISEgFc4cvrNU4v2IMlMtWnZVO+FxfmTdD0NJhhOtbk/YpppPLWaKyhZzujRo61wpIvr008/jf79+2PAgAG44YYbMGTIEGZREoEWJyBB2eKI23YFnB/J1+CuyYjNjzMur7GYNrb3ZyK91pkf3LyT5fjEiMh3Nh/FGuMie9wE9PnAzL/cdPgkpu7pgm9dOghDe6ZJVLbtS0a9EwEREAEREIGQEaA8c6KyU7K5JzHxGjqb94adIavJp6B6XVi/0zXAJ4u/j5wexJRkAheGIjHYzpe//GWsWrUKK1asMPEsivGHP/zBBuMJRfkqQwQCISBBGQgl5TkvgVguF2J+UO2cSTtp8uxTuL935xRcOiwO47IzsP3oKSwy0WDfWH/EWimrzA9snnGFvX5ML1w9qieyMlLOLkCfREAEREAEREAERKBRAmfwlQv74bJh3Vv8wTQtklVVVaiprkFSchJiY0wU+wBFJR+wM43qnd5oT4I9UFZWhvz8fOuCW1FRAX6ura0NthjlF4EmE5CgbDI6neglwMnpnBZQa34oOUGd61L6Jv7WcvkQvvoa99ZuaYnISE7A8t3HsS3vFJYaN9hSusmaOZeXmj8II82PbWJcaJ7g+bZFn0VABERABERABNoSgQ4Y1rOTfYWlVzWVqKysQmIql+MIUE36NIzCtLnLjpw8eRIvvfQSjh8/jt69e6N79+5YunSp3b7++ut9atRHEWgZAhKULcNVpZ6HQJyxYk7ul4mxWZ0xvFcnvPDJfmw7WoKNxv31oFnXcnd+KeZcmGPmF2QYcRr4ZPfzVKvDIiACIiACIiACItBsAuXVdagyAQjjGnmIHkgFzRWTrGPbtm343//9X2RnZ9uorunp6fj1r39tH+xPmzYNXbp0abZoDaQvytO+Ccj8077Hv9V7n2AskNeM7omf3DQKd13QF/1NcB8G8Fls3GF/smArnli2D2UmWqySCIiACIiACIiACEQEgU/dVm1bvNthbtyaNWvwwgsv4OjRo7j22mvx3e9+F7fffruN8Lp+/Xo8/PDDKC0tDXOrVF17JCALZXsc9Qjrc5JZn5JWSs7D7NIxAX/fegwf7i60gXu41Mjpymozr7KXcWNJM0F/9AwkwoZPzREBERABERCBdkXAG4/Hux0uCFyuhC6uzz//PN566y3ccsstmDlzJpKTk+3r7rvvxmOPPWbF5oQJE3D55ZdrLcpwDU47rUeCsp0OfCR2e0iPNPTpnIxsE5DH/FZix7ESbD1yCvuOlxpRWYvrTMCe0X3STWS0z87PjMT+qE0iIAIiIAIiIAIiEGoCFJQFBQVWVPbo0cO6ug4dOrShGi4ZcvjwYfvat2+fzZuRkdFwXBsiEGoCEpShJqrymkUgNTEOlw3vYSfVP750D942S4wcP12Jp1bsM5FhS3D75GzMNsJSlspmYdbJIiACIiACIiACUUogLi4Ow4YNw6OPPmqjuaampoL7vIlWyjvuuAOJiYlISEjwHtK2CIScwNlXX8iLV4EiEDwBRnbt3y0Vcy/qj35dU/Hmxjx8sq8IK0w02Goz+T2/pALXGBfY7EwtLRI8XZ0hAiIgAiIgAiIQ7QQYTZ9rUDaWkpKSwJeSCISDgARlOCirjiYRoAts146JSDEurnRzXbP/BJbtOm4tlpUmstp1o3shp0uqnXvZpAp0kgiIgAiIgAiIgAiIgAiIQLMIKMJJs/Dp5JYmkJmagC9OzcG3LxuEK0d2R0JcB+wtKMXjS/bi4b/vxIEis3gvF8BUEgEREAEREAEREAEREAERCDsBWSjDjlwVBkuA0V+n9M9EWlIcBnTtiGc/zLVLiyzZWYBTFdX40rQcXDy4m4L1BAtW+UVABERABERABERABESgmQQkKJsJUKeHhwBdXsf3zUCn5Hg7j/L97fnYYYL0LNyWj5gOHVBSXoMZg7uieyfNFwjPiKgWERABERABERABERABEQAkKHUVRBWBgd064t+uHGqF44srD+BgUbkN2nPQuL6WV9fgihE90UOiMqrGVI0VAREQAREQAREQARGIXgKaQxm9Y9duW05r5e2T++JH143ABcYVNj0lHlvMepW/X7QHTy7fh215p9otG3VcBERABERABERABERABMJJQBbKcNJWXSEjwPmUFw7qirozZ9A9LREf7MjHViMkzUeUV9XaCLAXDOgC4w2rJAIiIAIiIAIiIAIiIAIi0EIEJChbCKyKbXkCXK9y1vAe6JySgOSEWCww61XuPV6KV9ceMmtVViLJ7BveqxOYT0kEREAEREAEREAEREAERCD0BCQoQ89UJYaZwMScDLNeZYJZkzIFTyzbZ5cVWbqrwEaC/eqM/pg9pneYW6TqREAEREAEREAEREAERKB9EJCgbMI4b9iwAevWrcOOHTtw7NgxVFdXIz09HQMHDsQVV1yBUaNGnVVqZWUl/vKXv2Dt2rU4fvy4zX/G+GbyFRMTg5EjR+Lyyy/H9OnTzzpPHwInkNMlFdeO7oWE2FjMW3cYK/Yct66vT6/IRYGxVn5uQpaNEBt4icopAiIgAiIgAiIgAiIgAiJwPgISlOcj5HOcInDp0qVYuHAhCgoKcPLkSZsjISEBq1evRlFREUpLSzFlyhQzf69+Al9VVRXmz5+Pd99914rJPn36INYIn5qaGvuemJiIiRMn+tSkj8ESyMpIwa0Ts5AYH4NaM07bzZzK5buOo6i0CinG/XW6mXPZx+TRtMpgySq/CIiACIiACIiACIiACPgnIEHpn8s59+7evRspKSn45je/iaFDh6Jz587Yu3cvHn/8cTz11FPWcvnMM8/YPK4gisbx48djxowZmDt3Ljp16gQKTSYeS01NdVn13gwCHU2wnluMNZLLi/z07W3YdOgkduefxo/nb8XXLx5gj2VnpjSjBp0qAiIgAiIgAiIgAiIgAiLgCEhQOhIBvtPq+PWvf91aF3v37m2FIa2TPXqY4DBGWH7729/Gpk2brKikKyuPMdGymZSUhJ49e1rX2ACrCyibs4QGlDkMmVq7PQzCMzorHf/v2hHgWpVvbcrDcWOlfPaj/ThcXGGWHMnG+L4ZigAbhmuhNato7euwNfseqrq9DL3boSq/vZUjhqEZcXFsPse2wLAt9KH5I6kSRCAyCEhQNmEcKBR9U1pamnVz7dq1Kw4fPozTp0+jtra2IRsFJV1kP/zwQytCOeeSVsmsLGNNM3MvnfBsOCGIDf6oci4mU2v9wLp6+e62g+hCyLMmm7UqJ/XLgFlFBInG3XXJzuPYcbQE800kWKay6hqMz+6M1MR4+zlS/nHs3HuktCua2uFl592Opj5ESlvFLzQjIY7N5yiGzWfoSnAs3bvbHy3vrt28r2qt5NrA+r3brdWe9livuEfWqEtQhmg8KB4PHjxo50/SnZXCMj6+XqzwoqeL7KlTp/D+++/jvffeQ3JyMrKzs60I/fKXv4xx48Y1iMLGmlReXo6ysjJUVFTYHzD3ZeJcTApYJuZhXWxPOH5sXRsYmKiurs7WyzZyjihTONpgK/Lzj8GOyVmpyEzqA9RUo9a0cW9hGf6y6gAKT1fg9MQ+uHRIF9NG21ArPv0UE7ZdfCjAAE5MHGNuk6lSYAQi+VoMrAeRk8uxdNcgf0/4veZ+vlrzex05lAJrCb/XbnqD+16TnxgGxs97LZKZrsXAuPnL5b6/vE8gS/7d5na0JV4D/E6xD+6+g30I93fK1cc2tNbvovt+uLb4juX5jvvmD+dnts3d47ix9Fe/Y8txd+PN31Im/r66vrt8vP/kte367q9M7Qs9AQnKZjLlhcyLloLukUcewdGjR604HDBgAOLi6vHyfcKECejXr1+DayyD+axatQrz5s1Dbm4u5syZg5tvvvmcraEYffHFF21AIH6J+GJiG/Ly8jBs2DCsWLHCRpzll859yc5ZaIgOsi5+gZmWL18eolKbX0xsTAfU1NZhBKpwOr0GZ4xe21PSAUt2FeHYiRJ8sikG07rVITGmFhU1rfe00/WUP5hMW7Zswfbt291uvQdBIFKvxSC6EDFZyZI3bnwtW7YsYtoVbQ3hQz+yZIRw97sdbX1o7fbqWgzdCLjfSN43MPJ8NCZOIaKnFwUx78Hc94p9C2dife5hWzjrZp9ptGAMDm4zGKQTZ67/PE5ObBcfDrp7NHe8td/ZbraNL69hxLddLp97kEDjzJEjR+w5vnn5mdcCDTzuHtxfHu0LPQEJymYy5YXOH+Q33ngDCxYswOjRo3HXXXfZL7krml/qSy+91H7s0qULOnbsaH8E+/bta7/kixYtAudjzp49u8Gq6c71vnP+JaPB8ukLvzDuB5Q/Im+99ZbNSstoRkZG2C2UbEN+fr79YWMbXNvC+QPrZeXdjjOisp+ZV9lvQCyGFdRi0b5SfLi3CJ/kluLEyVhUlidgxoDO6N8nFRXVRoibk8PZbl5DLvGPQmFhof1DSUuzS+Fsj6sz2t4dR3ct8hqMtGsxWpg6lvwDzqWR6JLP3y63X9fj+UeSrMiJ77wB4kNEzrPnDR6TGJ6fIXO4a07XYmC8zpXLsaSw4PeanlKZmZkN12mkX5PuO8U+sq38jef9EIWDu+c4V/9DfYzXZK2592H9jm2o6/BXHvtKgbht2zZrmGCeO++803qn8eEf28Lf7J07d2LNmjVWeDEoJKdrRZqo5DiyTWzzuQQg8zEP+857at7nMnGfu265zcQ8vH/yFdj2oP5pMQISlM1Eyy/Cm2++ieeff96KyFtvvdUKQ2+x/MEbMWKEd5edP8k1K7t3726f/G/cuNE+ceGcSub3lyZNmgS+fBO/TDfeeCN27dqFsWPH2psW3zwt/ZlPl2gdZdvpvttYH1q6Hecrf0xZJbJ7FKC6pg5rDxbjUEUMVp5KwzDjFjttQC+kJyeYH6jzldJyx/lUjYKSFu5evXq1XEVtuGR+J3kt8o9OJF+L0TAEvGkpLi62Dzh4Q+L+YEdD2yOpjYwMTkE5ZMgQK8wjqW3R0hZeiydOnLA3kroWmzdq7sElH7jxniHaEu83uEQb/1bSQkdhzHuOemFh/oCH6W843S7rKquQmMT66z3GgmJpjanBW1Td7zDjcjxjVhQgBxokGMuDf/ec+Nq8eTN++9vfgkvV0SDBv4fnEm1BtT1EmSn6OJ5sF8fxXIl/29k/GmXYJ+Zv7EECA2VS8CuFj0ATvgHha1yk18Qv7RNPPIHf//731kr5m9/8Btddd13AzeYXYfDgwVYA8geewXz4hQk21f+IBntW+8zfKSURl4/ohe9dPQyzx/QyFska7Dp6Co8v2YPfvL8LpyqC598SJN0fjJYou62X6WXn3W7r/W6J/olfS1BVmSLQugT4vY7m77a3/WdtGyXJB8LUky394giaW8CG2AtNqs+2tX4sXD8CeWfd9HS4/PLLMWrUKDvl6uOPP7YPXHiMZTDRyMCpM1dddVXDg4NAyg9nHttQzz+B1M3sLp/n1LM2eVwpvARkoWwibz4do4sr153kU77bbrsNU6dOPe8TFt/qSkpKbAAWPmnhD0RjT1t8z4vkz5H+RU42UV8nfhoBlutWzlt7GLvyS8DwN/wJus0sKzKsZ6dIRqy2BUAg0q/DALqgLCIgAn4I6LvtB4p21f8BX/+iCZSwEIj/x5SRlkDDe4WEmlrE1dUi1ljNrJINtCJzjk2T5gJZn/U6C7QYWmU5zYoebosXL7ZxNOgKSiPD1q1braDkagKTJ0+206oCLVf5RKApBCQom0CNIvCdd97Bc889Z7+4dDf9yle+4rckmvPpFkF3J7pmMAIsfwS4n+6NCxcutE+XuHQI51FGmjuC30752xlj3E060OD9D392f9kiZV9iXCwuHGTmm6Ym4HSFcdfdXYj9x0vxwicHEG9cV24eDwzu3hFxTXFjiZROtvN2yHLf/AtADJvPUCWEngCvS4nK5nFtW99tjzVq17vAomeBltWTFn6cqzZYr1XniZkzrVmCko2g+zfnUjJo2tVXX23nSXL/0qVL7TQqHs/JyeEuJRFoUQISlEHi5Y8wI63SMnngwAH8/Oc/x8UXX2z9+SkSeZyikBOCKSA5QTrXRHGlAKVPN+dA0v+bPu9cPuSxxx6z+adNm2Z93INsTuRk5x/4BuePyGnWuVrCvwVDe6ThP2aPwB+W7LXLiTAozxPL9mF/YSnuvXIoBnZNlag8F0QdEwEREAEREIFIIZCQCpj/kRwGRWn7zDuJIBVl7adTa2ITm01tzJgx1hL55JNPgnO1mXgvSkHJ6LOf+9zn7L1osytSASJwHgISlOcB5O/wa6+9hk8++cQeeuCBB+wcSApJvvgFHj58OObOnYuZM2faSdKccLxy5UobcYtik192vnNyMZf6oIWTvvBRmcpPAMUH0KFwH1IL9iOm21AYE2zUdIXLivROT8aXp+WgR3oinl6eiwNFZViyo8BGfL3nov64YEAXJJoosUoiIAIiIAIiIAKRRoCC7lNz4eSvAv0vMfchCS3cSC6pVG0C/NWY6UqJiDVeWgGnM5+uL509JeBTGsvIpVMY9JFB/DhnklFdGZGbbrAMXEOrpTdifGPlaL8INJeABGUTCHJNSUaP4heZAtIbSIdfXIaGp3XSJX65p0yZYudXMkodrZb0a6cbAvcz2qsLgezOiZr34oPA7vcRk7scvYpKgdpDwD4z/7DPODPBIFxPCJtPa0C3jsbNNQulFbX4+9aj2HLklHk/hhQz37LSzJO4cGBXpCbq69J80ipBBERABERABFqIQG8zX4WvFk6UsEZLoppRXs3UmSYnY4gIav6ln4o4XWr69Ok4dOiQXcKOgXp4X9qvXz9r4PBzinaJQMgJ6A45SKSct/HQQw8FdRafEt17771BnRM1mUvzgSPr0GHPB+hTbQRlyTrUlWwELv0B0HcqEFe/5lo09KdnpyT8f1cMBgP1nDlzCLsLTuOVNYdQXFaFWDPuFwzsgtQEfWWiYSzVRhEQAREQARFoSQIdqsvRoabKPEg31smmemaZe4vmJsbmuPbaa/H000/j9ddfR15eHvr372/nVza3bJ0vAoESkB9foKSUzz+B9GxjjZyIMz1GAolpQEUxYvLWAX//EbDpVf/nRPDeOLOUyxcvyMG3LxuM0X3SwYiwy3Yfx8Pv7cT7xmJ5sjwylhWJYIRqmgiIgAiIgAi0bQI0UUZIorccp03R842urlyBgFOv6E2nJALhIiBzS7hIt9V6OnPL8x8AAEAASURBVPU24VAvR11qdxzd+hFiD32MnuU7gEOrgI7dzasHMPBSIJj5Ba3MKs1YKGcO7YYaM9f15dWH8OGeQqzKLbLWybKqWswa3gPd0v7h0tzKzVX1IiACIiACIiACYSXgUZR0W23FRM+5nj172rmU77//PvLz8611kq6vSiIQLgISlOEi3VbroVWyxyhjoRyF3IqBiKvtYgSlcXM9thnIXVY/Mb77cCC9T1QR6JQcj1smZBnXV6OFzY/1R3sLsXDbMVSY+ZR1Zt+1o3uhc4pZe0pJBERABERABERABFqZAJef47qUR48eteKSFkslEQgXAQnKcJFu6/XU1pkJ6maGetZU1GVdiJh37zNWSuP6emStWWR4ETDkynqLZZRxuHlCH3TpmGBdX983gvLjvUUoMetWllbW4MZxvdHdzLtUEgEREAEREAEREIHWJFBQUGBXEJg1axYyMzNbsymqux0SkKBsh4PeIl1mGGzzOpOcgTN9BhsBeZWZT3kSOHUYWP880KkXMGhWi1TdkoXSOjmlf6a1UiaYpUMoKjcdPomXVh9EtRHRV4/qCUaIVRIBERABERABERCB1iDACK/Lli3D6dOn7VJ03bp1a41mqM52TECCsh0Pfsi77tZWSkoHRtxoIr4eBTb8pd71dcBMIPsCE7gnusQXZ0akmMiuFw/pZt1fGY+Nrq/rDhQbQXkGNeb1hclZ6GnWslQSAREQAREQAREQgXARyM3Nxfr167Ft2zbs378fgwYNskuIMPKrkgiEk4AEZThpt4e6ao3bKxcYzjZLhhzdYtao/AAoLQAOrjRzLY3r67DrzOHoCS7sDeh9iQnUw4A96WZ+5YurDpi1Kk+iyqxHWlxRha9eNAC9O0tUtodLXH0UAREQAREQgUgg8OKLL+LBBx+0TbnmmmswZ84ccO1zJREINwEJynATb/P1GZueU2G9xwFDrzXLh7wE7F8BdM4yn6+JKkHpO1yjs9LNclMdEG/cX19bewjb80rqA/eYTt88vg9GmqVGlERABERABERABESgpQnccMMN1ioZY5Y862/WnuRLSQRag4AEZWtQb+t10k+UqeuQegG5ZyGQv9sE6FkPFJglRboNNaFTo/PSi4+NwdiszuB6lZxD+famPOzOP42/rT8CM90SnGc5uIeJfKskAiIgAiIgAiIgAi1E4IwJQz9y5Ej7aqEqVKwIBEwgenwPA+6SMrY+gU8VJZcU6TMJyBxo5k4ad9CSPGD7WyZQj3mP8jSydyfMnd4ft0/OtsuHHDxRZiyWh/H40r04dKI8ynun5ouACIiACIiACEQyAa4/qSQCkUIgOs1EkUJP7Tg/gSQzMZwBesoK69em3PwK0G+6cX/NPv+5EZ5jUPeO+NzEbKQmxuOJZXux73ipEcz5Zp3KM/jS1ByM75sR4T1Q80RABERABERABERABESgeQQkKJvHT2efj0C8sUwOvqo+KM9hsybl8Z1A3gYToGckwGiwUZ4oKq8f29usTVmN+RvzsPNYCd7begxJcbFWWE7M0VpQUT7Ear4IiIAIiIAIiIAIiMA5CEhQngOODoWAQEws0GUA0HOMWYuyj1mbsgjYt7TeDXbIlSGooPWLyOmSgq9c2A9J8bF4+sN9KDxdhdfXH8ZJE/01IyUB/bqm2nUsW7+laoEIiIAIiIAIiIAIiIAIhJaA5lCGlqdKa4xA3ymfRng1AnP3+/WisrG8Ubi/l1ky5AuTsvHvVw5F97REFJRUYtnOQvxkwVa7ZmUUdklNFgEREAEREAEREAEREIHzEpCF8ryIlCEkBHqZJUQGHgK2za8PznNsk1mncnN9xNfY+JBU0dqF9MlIxuXDe+B0ZQ1eXnMIGw4Wm3Uq68zalbnWJXbm0O6t3UTVLwIiIAIiIAIiIAIiIAIhJSBBGVKcKqxRAgmpQK+xQPfhQOUpoHAXsONNIK0HkNqt0dOi7QAtlXdO6WvnT1ZW1+JAUTkWmLmV5WY7MzUBQ3umIdHMr1QSAREQAREQAREQAREQgbZAQC6vbWEUo6UPqV2A0beaOZWDjKDcA2x5HThdEC2tD7id6Wbe5J0X5OBe4/7ao1MSKmtqsXRnAf7rjS3YdPhkwOUoowiIgAiIgAiIgAiIgAhEOgEJykgfobbUvhQjKIdeA2T0A6qrgOIDwKFV9UuKtKV+mr4wGM/Fg7vh368aglF90lFYWoXNh0/hd+/vxlubon8dzjY2XOqOCIiACIiACEQVgTNmiTJ/ifuPHj2KRx55BF/60peQm5vrL1uz9jVWd7MK1clRTUCCMqqHL8oa38FcbhSTvceb975A1Wlg17tmGZGNUdaRwJrbzQTnuWFsH3x+YhYm5WRYt9eF247hpdUHscRYLMuqagMrSLlEQAREQAREQAREwEOgQ4cO2LdvH5YvX45Nmzbh1CkznejTdPLkSSxatAjPP/88jh8/7naH7J11s74333wT69evR0lJScjKVkHRSUCCMjrHLbpbPWCmCdBzGXDGCKrdC42VcnV09+ccrU9OiMWXpvXDP88ciL6ZyYiPjcHiHQX4+dvbsemQCdpTU3eOs3VIBERABERABERABPwTmD9/Pr7zne9YayTFpUuxsbHo2LGjfcXFtUy4lL179+LGG2/Er371qxaxgrq+6D06CEhQRsc4ta1W5kwD+k0HOpjormWFACO+5plXXU3b6uenvUmMi8ElQ7rh/htGYmTvTnZO5c5jJfjvt7ZZ91e5jrTJYVenREAEREAERCDkBLz3DImJiaB4TEhIQHp6uq2L1kN+dikmJrS3+q7+Tp06oa6uztbFbW9yebz7tN22CbTMY4u2zUy9ay6BWPND12MkkDUJOPgxcGS9ifj6FtB1IBDTNi/JzmZO5cwh3XHCzKVMTYzDx3sLsSq3CCnGgllr5jvMGtYdzBMX08HSbWRqRHPJ63wREAEREAEREIFmEqBoc8m77fa15Dvrq6qqwurVq/Hhhx/i0KFD4L7f/OY3yM7ORk1NDUaNGgUn6srKyrB27Vqb//Tp06D4Gz58OCZNmgQKUm+qrKzE/v37sWbNGhw7dgy1tbU2/+DBg+05PXr0sHVt3LgRf/rTn6yYXbduHX7961+jV69eoDV08uTJuPjii8GyduzYga1bt6KoqAjl5eWIj49H9+7dMXHiROTk5NjP4ebn7a+2Q0egbd69h46PSmopAp1zgJE3AScPAAXbzVzKvwPj7oRRVS1VY6uXm2AslbdN7msFZUlFDfbkn7bur8dOVSLJHJs2qJsVl/wz5flb1ertVgNEQAREQAREQAQih0BFRQXeeustfPTRRzh8+LANwkNhRzGZlJSE+++/3wo/CsItW7Zgz549eOWVV5Cfn2+PX3HFFfjXf/1XKzyZ36Vt27ZhwYIFoCstz2F53bp1w4QJE3DLLbfg5ptvthZJzs986qmnrODkHMrNmzc3WErpgktByTmWzPfSSy9Z0ct5lhScWVlZuPXWWzF79myMHj3aVa33KCcgQRnlAxi1ze/U20R8vRbY9BKQv9NEfN0P7P8QSLgcYDTYNpxmDeuBrh0T8Yt3dmDdgRPYbYTlAwu24msXD8LYztUw0yzxqaGyDVNQ10RABERABEQghAQY9PQfhsMQFuy/qNgOseArxvzX5NTENnN+5L/8y79YK+Trr7+OYcOGWbFHyyQtgXRz3b17t93+3e9+Z8UbLZi0EDJQDy2WP/vZz/DQQw9hyJAhVhhSmP7f//0fFi5ciLlz52LcuHFITU21FsvHHnsMf/jDH6zApLD8xje+ga5du+Luu+/GlVdeiTvuuAMDBw60orJ37962XcXFxejSpQtuuukmjBgxwlo6jxw5gsWLF4Pl5Zros7/85S9t3lC75TZ5PHRikwlIUDYZnU5sNgGKyr5mLmXxwfq5lFvnmeivxnLZt20LSgbqmdA3wwbqmbf2ED7YkW+tlS+uPIBtXYHB8R0wJSa22XhVgAiIgAiIgAi0GwJGTL69722szFtpvH7+YXVrqf7TeldbV4v4uHgr4AKtp5YBCU26aaARWl1HBHraWfkowOg6SvFGF9aePXtaAUhByUQxyfmNTGPGjMEll1yCGTNmWAsh3V4LCwuxZMkSFBQUWEFJi+e8efPsflov58yZY91neT4F6okTJ/Duu+/i1VdfxaxZs2x9LNe1Y/z48VY0Mj8T66aYvOiiixqskvVHzHLkxipJl1paQGndHDp0KFJS2q53mut3W3+XoGzrIxzJ/Ys1QXkGXwmcyAW2vAbsXQwMuMwIyqmR3OqQtI3ur1eM6GFdXVngR3uLsOHQSew/Wo1LsuIxvqgKGZl1iKO5UkkEREAEREAERMAvgQ4es+QHBz7AoxseRXpifYAavyeEaCfn/vE/zlXkf4Gm6rpqm3V45vAmC0pXl5snadvgE3yhuroaycnJ1lWVws65tk6dOtXOp+SSH1xehInzHd955x1rgZw2bZoVkKWlpdZyybIpWCkSOWeT+5lc3b7b/EyhmZmZibS0NNBSuWvXLlsH52zyGK2brJtzMfv16xeUIGf5SpFHQIIy8sak/bSI61IOmGmC8qwFts83j8GKzRIiK806lePqA/bweBtPM0z016yMZPxx2T68u/UY9hfWYdnRGCSvykO1iYI7wwTyURIBERABERABEfBPgGLOicoEE/QvNT7VvvznDt1eV2cwYpK1O0EZF+IghE7ged8p3hgsh8LSJYo6urIyubUreQ7Xq6TlkKLxwQcfdNntO62xFJK0htKa6U0819Xp3c/tpUuX4uWXX8aqVauQl5dnz6UwpZikmy7FJj8rMI8vuej7LEEZfWPWtlrM+Q69jIDkupS0UO5bAqRnGUE5uW318xy96dc1FV+Z3s/Mq4zHm5uOYWPeaSzaWYjK2jMoLKvG7NEmcposlecgqEMiIAIiIALtnoAxEt46+FaM6zbOrPlsPKBaMpm6qqqrUFtTayOlxgTxN7ruTL0r6vju45vdwnOJOR6jUPON5EqRyRcTg/YwUdTRDbZ///6gyyujxTKADvczMT/zdu7cGYz0ynSuumnxfPvtt62Y3LlzJy688EJrsaSw5Xl0nWXZFKcSlBZn1P8jQRn1Q9gGOtDDzCEYfqNZi3IDcHx3fXCeor1A5oB2Ee6UP/hDeqThpvF90MHMrWAktH3FZXh/u9murEGC+UN1Qf9MdDGBfJREQAREQAREQAT8EDAPqMf3GG9ffo6GfFddVR2qKquQ1NHM1+TD8SYkJ/qacKo9hfcPFHt854vJvdsPfv5hnS65vHyn8GRE15kzZ+KGG26wn7k8CROPOyHKdS9d4n73cvv4TkFJl9pNmzaBS47cddddGDBggBWktHZy7iSXFPG2xXu+tqOPQP0jiuhrt1rclgik9TQWykuNZTLbPAYzP1TFB+rXpSzJa0u9PG9fBnRLw+xhGbiiTy0GZsSjqu4MVu07gZ++tQ1vbDiCUiMuPX8HzlueMoiACIiACIiACISeAIVQZW0lKusqUVNb0+QKKMaak2hF5IvzJZ210Ym0YMpmGSNHjrRlbN++3YpHCkdaFPni/EtGiOU+Vy7fuY8WRtbvTWzLvn37rDXzuuuuA4P2UKwyP8Xm0aNH7dqUrizvudqOTgISlNE5bm2v1akmsusIY6XsMdKsTWmivm74qwnWY4RlO0spcWcwMgP41iU5xtW1N8qqapBbWIYnl+/DT9/ehgNF9ZPh2xkWdVcEREAEREAEIoaAVwh5t8PdQC4fQpFGEXjs2DFbPdsTbJsoGrn0B62QTz75JJ577jkbKbasrMzOc6SlkW6qzz77bMO8S4pLusByuRG6tTohy0awHAbe4TIhy5cvt22j6Fy9erVdI5PWyYSEhKDbGW6+qi9wAnJ5DZyVcrYkgXgTMnrYbODoRvPabNam3GKC9awBug8Dkju3ZM2RVbaZW5GeAIwcmInsPomIizmDpTsKsP1oCU5VVJvPMbhmVE+Mye6M5Ph/uJ1EVifUGhEQAREQARFouwS84sm7He4eDx8+HJMmTcKCBQvwpz/9CR999JFtAteQpBjkEiHOcunaxvbSSshEkUcLI91dubQIlxt54403rLsqA/Skp9dHy2VAHrqq9u3bt6E8islrrrkG27ZtswJ08+bNViSyHM6ZnD17tg3kQxHJNS8zMjLsnMn8/PwGqyfnULYmP8dE780nIEHZfIYqIRQEGO2M4rGXmaS+ZxFQcaI+SE9GPyM0rwtFDVFRhvFyRY15pSbG4ZLsrsjOMHMzzOeP9hYiv6QSjy/di+OnK3FbbR0m98tEkkRlVIyrGikCIiACIiACoSbANR25TiQtfitWrMArr7xiRd0DDzxg14Hsb4Ls+AblcZZFuqDSwukEHS2K99xzDwYNGmTFKZcRYRRWWi+5bMgFF1xg3WJpWWTiOpNz5861Fk2uUcl1LVk2BSzXvLz11lutcH3mmWdsuyhcuWQJ97NeRnqlKKU1k20I1qoaapYqr3kEJCibx09nh5pAzoVAoQnMs/55szLvQqBzDjDUCMrmTTMIdStbvLxaKkuT+mam4kfXj8Arqw/ir6sOYk9BKeab+ZSHTpTjlgl9cPO4PkhLbuFodi3eW1UgAiIgAiIgAiIQLAGKO1ooH330USssaUWkMKM4pPXxvvvuQ+/evc8qlmtDzpkzB9dffz26d+9uRaDLwLUjr776anAtSm8EVs6xpLDkciMpKcajzCQKVc6N/O///m/84Ac/sEKSddMSycR5l5///Odx1VVXNVhEuY9Lj9CySeHJcilCaTF162Tak/VP1BGQoIy6IWvjDe41xgTomWXWpVxQP4fy6Cbg4MdmbUpjuYxrP1FOzcM6m+JiOqBnpyTcQOGYFI8FG/Pw4Z5Ca7Gk6DxVXo3Lh/fAsF6d2viFoe6JgAiIgAiIgAj4EqAQ41qTgSZaBGkZ5Ms38RhFo1un0ve4++wsihSVFKV8eZM7TvHIl2+iqHWJa2E6K6nbp/foIyBBGX1j1rZbHG8W36Wo5NqUlaeMtXIXsGVefQTY9D5tu++e3pmHfGelvpkpuH1KX+sKmxAXg0+MC+zK3CLknSxHUWkV7jDHskwezas8C5s+iIAIiIAIiIAIhJjA+dxTz3fcNYdWSolJRyO63xXlNbrHr222vmNXYMJdQNchQNE+YOv8+sivbbO3Afcq0QjJm81ald+5YjA+PykL/Jx3sgIvrjyI+17bhHUHTqCqpn4R4oALVUYREAEREAEREAEREAERaAYBCcpmwNOpLUQgybhh9J9pgvQMr3dzLTWhsHf9HSjY2UIVRk+xscYFdkyfzrjTWCTvvWII+ndNtUF61hox+fDfd+L5j/fjYFFZ9HRILRUBERABERABERABEYhqAnJ5jerha8ON79gNyJluROT2+mVEtr9pAvT0A7oZq2U7T3R5HZ3VGT3TkxFrfGPf23rMLiuycNsxFJdVodSsXcl5lQO7dQTzKomACIiACIiACIiACIhASxHQ3WZLkVW5zScw5Kr6CK9cN+PgyvrgPKUFZhkNuXUSbre0RHz7ssH411mDMbFfZ/QyAnPT4VN4bMlePPLBbmw8VNz8MVAJIiACIiACIiACIiACInAOAhKU54CjQ61MoHNfIHuKUU7G9TXerMd4aDWw8WWgtqqVGxZB1ZvgPRcO6or7rh6Ou6b2NS6wKThkXF4X7yjAL97ZgaeW77MWywhqsZoiAiIgAiIgAiIgAiLQhgjI5bUNDWab7ArnUY64ASjNB/K3ADvfNlbLq4HMAW2yu03pVHJCLMZmd0a8cW/tmBhnXWDXHyzGsl3HcbKiGtW1dZhuROfg7h2RGB/blCp0jgiIgAiIgAiIgAiIgAj4JSBB6ReLdkYMgfQsYPQXgN0LzRIiB4G8Dcb1dZVZMTcdSOkSMc2MhIaMMGtRZmckG+GYZlxed2FPQSk2Hz6JXcdKcNvkbNxk1rIc37ezmVcpURkJ46U2iIAIiIAIiIAIiEBbICBB2RZGsS33oYPxys4wrq8DLgFOm2ivJea15hmgo1lEd+ClbbnnTepbWlI8LhnaDTldUvCnj3Lx9uajyC+pxCtrDmFbXglmmWA9dI3NSEloUvk6SQREQAREQAREQAREQAS8BCQovTS0HZkE4lOAYdcDxcZCue4FM5fSWCgPrwGyJgOJHSOzza3YKrq9juqTboRjDrIyUrB4ZwE+2lOID82rpLIGp4wb7BVGWNJaGR+radStOFSqWgREQAREQAREQASinoAEZdQPYTvpAIPzHFlv5lC+C5QdBw58BPQcBQy+EqAVU+kzBMaYpUUGdO2I3p2TkWCEI+dVbs87hT35p5FXXI7KmmyM6JWOzNQEmNVHlERABERABERABERABEQgaAK6Ew8amU5oNQK9xwHDjaUyqTOwdzGw+TWgprrVmhMNFXdMisMNY3vjgRtHYs6FOcbVNR51Z87gb+uP4D9e34wXV+7H4RNl0dAVtVEEREAEREAERCBCCJwx9xJKIuAIyELpSOg98gn0GAmMvMmIyUVAwW7g6CYToMdYKrOM9TLBuMUq+SWQYKK/DjERXm+blG2C9qTgjQ1H8MneIhuwh0t87jteikuHdrfzKxkxVkkEREAEREAEREAEvAQOHDiAFStWYMuWLbj88ssxc+ZM7+EmbcfEyK7VJHAReJIEZQQOiprUCIGEVKDPJKD3RLOMiHF7PZFrrJSvmgA9PQAuL6LUKIEOxqd1QLeO6GuC9VA0djFurqtyT2Db0RLkFpbhQFE5KmrqMM4sP5KdmYJEI0KVREAEREAEREAERIAECgoKsHjxYrz11lvo1q1bkwVleXk5NmzYgISEBAwZMgS0dPIeRSm6CeiuMbrHr/21PjENGHtbfUAerk25yQjKY1vbH4cm9jjOPA383IQsfPfKoZgzLQd9M5ONkfIMPt5biP83bxOeWLYXGw6eaGLpOk0EREAEREAERKAtEoiNjUVqairS09ORlJTUpC5SPObl5WHOnDm49957cfjwYdTW1kKWyibhjKiTZKGMqOFQY85LID4ZGHSFCcqz0ri7fgJUlQC7TKCeTr2AnAvPe7oy1BPo1zUVn5uYhRG9O+G1dYfxwfZ8HDtVgfkb87DXrF85fVBXfH5Slg3oI2YiIAIiIAIiIAKRTcBr6fNuu1b72+eOufdz5UlMTHTZzno/1zlnZTQfaImkIK2pqUFdXZ3dzszMPMtCGUx5vuXrc+sRkKBsPfaquakEuFRIv4uMZdLMoeR8yt0LgfSseqtlbHxTS21X58XGdLBikRFg6QLbIy0RK3OLsP5AMRbvyMcREwW2vLoWFxlhSdHJSLBKIiACIiACIiAChoDXRdO7HSY4tOodOnQIW7dutS6jV1999VlWPgo3WgK3b99uxdvQoUPRt69Z0/s8iedR6OXm5mLbtm22DO4bOHAgTp48ifj4+LPEH4vj8aqqKuzevRu7du2yrrEUhZ06dQLrHTx4sLVsMu/Bgwfx9NNP27Jo8Xzsscfssc6dO2PQoEGYMWMG4uIkTcgq2pJGLdpGTO2tJ9DPWCPLC816lKuNY/8+IHe5EZhbzFzKEUCcxE8wl8mFA7titFm3cuG2Y3j+4wPYeKgYB0+U47cLd2Ht/hP4grFUXjasBzJSP/uHJJh6lFcEREAEREAERKD5BKqrq62Y/MlPfmLF2eTJk+28Rm/JH3/8MR5++GHQAviNb3wjIEHJ848ePYo///nPeP31120dtExOmzbNCkNaFv1ZECkmn3zySbz33nvYu3evzdO1a1dcd911uO222+z5nDO5Y8cOPPDAA1a0FhUV4cEHH7Qurz179sTs2bMxZcoUCUrvIEbRtgRlFA2WmuohkJxhAvSY4DzZFwC1y4yo3A6segK49IfG/bW3J6M2AyGQlhSPy4f3tOtSvrM5D39dddBGf/14XyGOnCy3YvMLk/vi4sHdEBeryfOBMFUeERABERCB8BEwQcsRrr9Oth5jrTPKCR2Mpa2pyZ84C6QszmGcaaKsvvjii1bEffLJJ7j44outVdCdv3PnTmzcuBH3338/Ro40UfIDSBSTCxYswCOPPGLF3dy5c9GnTx9s2rQJS5cute8UmLRUusQ6nnvuObzwwgu44YYb8L3vfQ/Jyck2/8KFC20AnmeffdZaICdOnAhuf//73wcFJ+dRpqWlWdfXXr16NXlupmuL3luPgARl67FXzc0l0Nm4b4y9HTh1xFgq19SvTcl1KlO7AXJ9DZpumlmzcmjPNCTFx1gX1xW7C/HhnkKzvMgpO7+ypKIGO0xU2Av6Z2J0VjriYxXTK2jIOkEEREAERKBFCFDklRgBU7ZmLWKS/M/3C1nFRr1WG2tdbV0tKuITjLtp4FL2TG2dbUan665FknEJbWqiaBs7diw2b95so6/SZZRuphSpe/bsse6ntArSupiTkxNQNevWrcP7779vrZp0o7399tutS+qwYcNw6tQprFq16iwxyUI/+OADLF++HMxDQXnZZZdZN1i6utLtlsdYZseOHUFL5EUXXWS3aTmdPn06unTpYj97RWpAjVWmiCIgQRlRw6HGBEWAEV+HzQb2LKpfk/LkAROg5736ZUR6jwuqKGX+B4GcLqn40rRUDOnZCV06JmDRjgIUnq7EO1uOYt3BYuwZ3Qs3VfXGKOMm2zExXhbLf6DTlgiIgAiIQLgJmDl8Lp16+20c//3/IdbMyWvpxLmDTBRwwaQzxl2VKaFfv2YJSpYxbtw465ZK6+EVV1xhRR3bw8+cYzl69Gg7/5F5A0m0RPJ15ZVXYtasWVZY8jzOheTak4vNsiGFhYXWZdWVt3LlSisc77vvPisQU1Lq1wUfM2YMrrnmGjsfk4Jy/PjxVlA6Xnz3brvy9B6dBCQoo3Pc1GpHgKJysIn6euqwsVAuATa+bAL0ZJu1KiUoHaKmvk/KyTAWy464ZlRPPPNhrrVWHj9dhTc2HMFHxnJ5xYjuuHNKjhGeZgyUREAEREAERKA1CFDQfSruOsTGoYOxyvHV0snKSdYbpKBsaKtZxqu5iYKSgXCef/55GxTnqquustbBJUuW4PTp03ZeYmPRWf3VzXmNxcXF1j2VFkVvovVzxIgRoIBk4B4mzqk8ceIEGGCHFkrfumiRZECfI0eO2PbwHCci3TbLcuLSiXQeU4ouAhKU0TVeaq0/AgMuBU4at9f9Hxl/F/PO5UQOmWA9FJUxusT9IQtkHyPBdk5OwKR+mUhJiMNk8754ZwGWmteJ0iqUVdWaaLAVmDawC2aYuZWDup/9xyeQOpRHBERABERABEJBgHbC9FtuRqIRNjEtJSipIk1FXL+5uroGNbU1SExItBFWraYNwFh55lMxljRubLO7TXdRzo/kO4Ulo75S+K1fv94G6aHAdBbDQCpjsB+KRJ7jG22VLqnc7xV9FIM8h4lrVPquJ0mXW7rmMgosy1VquwR0t912x7b99Cy1K9B3qhGQE4yQNGKSkV83zwMyBwApme2HQwv1NCk+FhOMtXKgEYxZGSnGzTUO24+eQu7xMryy5hB2HTtt51jOHNoddJftbpYgoRhVEgEREAEREIFwEkidOhV8hSNVGDFVaYRSRxMgp6lheWiZ8wq0prQ7OzsbU02fuSTH/PnzrRWxtLQUEyZMsHMsfUXeuepgsB9aGWmldELR5a+srLTurlyyxCWKTJ7DftC66SyX7nhZWZkti0KU4pLJ219ue1/uPL1HH4Hm29ujr89qcVsk0MWIx8l3A51zgPxdwPYFQNG+4F1R2iKbEPUpPTke147phf/5/Bjcc1F/Y7nMQEpiLPYcP43HluzF917ZiJdNdNjc46UhqlHFiIAIiIAIiEBgBML5GNO6aBqBBfM60wzLm1dcBdbLz+aiRZLLc1AEvvrqqzbqK4Pw0B02GDHJknv06GEtm1yD8vjx42dVVlBQYNempLXRlcv28xy+b9iwwS5h4j3pwIEDNkAQ25Oenm4PUYTyfIpPtwyJc3n1nqvt6CIgC2V0jZda2xgBRnal6+vW+UDxfuD0UWD982ZNShPpreeoxs7S/iAJ8A823WCvH9sHw0zQnpW5RfjbusPYmnfKWC1L8OeVB7ByfxGmDeiCa03wnv5dU4OsQdlFQAREQAREIMIJWP/WT9vo3W6FZlOoMSDPvHnzbMRVCr9rr732/2fvPaDruK50zR8550AABEEwiFkMkqhEUcGSlSy3gi1n2e22p+2eZ3u97tV+M/3WvOWeaT/3uP3c9vJ0e9xtt9O0LduS3VZ4kizJyqQSKYk5gSQYQQJEznn2f+oWeAECJHABXNzwH6lYdatOnTr1VdVF/XfvszeYomOqhfswauzjjz+OyspKFBQUuMA8dKF97LHH3DhNutdyzKRfmL7k2LFjLg9lSUmJG7dJ0cg8mI888ojLa8kck4sWLXK75FvAJLrTnj17Fnv27HFCk+tmQlz7fdI8/AQkKMPPXEecLQLMP7nibk9MHn/DrJRP2c9tJibnrTQfi/NffrN1+HhqtygrFUUmGunimm85LN882oTdp1tdWpHDDR0uh2VzV58bd7m6Is9cZTPiCY/OVQREQAREIJYJBAfiCV6eg3OmuKuqqgLTdHCZVkFaJ9esmfqP6dyH4y4pBl988UVnpaQFktZK5qhkTkoG+6H7q1+Y/5Ii9l//9V+dy+2BAweceyvHc9LlldFh6ZJL0cjCMZVMF8LgPr/+9a+xfft2VFRUuP4zsizFqEr0EZCgjL5rph5PSMBGw6++3wL0nLCxlG+by2sNUPuqWSgvByrtlzqJygnJhbqhPC8dn76+GresKMUfLK3Ir83l9URzN443duH7Lx62KLH1uGdtBR7YMB/zrG6Gjcec4x9zQz1V7ScCIiACIiACEUuAEViZmoMRVZkuxBdwU+kwrZ0UgBSQDz/8MH760586cUjRyLY5MQVIsOijO+tHPvIRN+aSVkzmpeQ4S1o4H3zwQZfLktFe/UJ314ceesiN1fzd737nLJ/MSckclps3bx7Vtr+P5pFPQIIy8q+RejhpAuaQyTQiVddZKpE7LI3IC5aX8llbZ3775RZNLVlWykmjnGLF+fkZ+NCVlbh+aTH+uK8eT++qc1bLg2fb8bOttXhxfz1uXl6COywFyeWWv1JFBERABERABERg5ggwfQcD5NAFtbjYghWGWDgmkwKRwpLBfVhycnJGosV+9rOfHclP6R+ivLwcn/vc5/DAAw+gu7vbBelhcB+6zHLyx1yyPl1bGTCILrCf//zn3bhL1qUllNZLlegkIEEZwnWrqakBTfr0GWdUKw4qZr4e/hpz9dVXY/FiCxAzTjl16hS2bduG/fv3O5cBPqDLli3DDTfcMK2Hf5xDxfeqcksXsvZB4Oxu4JwF6GEakdrXvEiwqRrTNxs3R6JFdS3ITHVTdmoyKDDXVubhLXOF5djKY02doAvs8aYuXGkRY9ctyLcxmDlgBFkVERABERABERCB0AnU19c7N1UKwA9+8IPTeqek4POF4Hg9ovBj8SPUck5XW4rYyQpZCkdOdHVViQ0CEpRTvI58cJgw9umnn3aRq/gQ07RPQUmTPn+dYbQtCkV/gDH3oc/5c88955LPHjx4EO3t7W4f1mNoZvqN0+SvMgMEmCpkya2WOuT3QKdFKWupBXb8ypIk2S92tFSqzCqBqqJMcNp8WRF++84pvGDWSVoqT7Z041B9O/64/6xzg71ztWetzLI0JBmpEpazelHUuAiIgAiIQMwR4Dso3ykZSIeRWWnYuOWWW0YiqvL9lMFvenp6RgTgWAh8R6UFkSKSuSSD3VnH1g3+7L/j+vPgbZNdZv/4fsxjUmBOp63JHlP1ZoeABGUIXBntiuGOv/CFL2DJkiXuwa2trcXPfvYz/NM//ZOLWvX973/f+YezeQ5e5rZf/vKXaGtrw9/93d+5/Xbt2oUf/vCH+OY3v4m6ujp85StfCaE32mVcAum5wNWfA/ragQNPA/seA6o3ASUrvMiv4+6klTNJoCg7DX+2qRq3r5rn3F9/ZRFgd51qRVNnP35nQpNusBvMUklX2RvMVTbThKWKCIiACIiACIjA5AhwjOPf//3fO8PGTTfd5MYm+hZEttDa2oq/+Iu/wJtvvunqULCNFW0Um7Qs8h303nvvRXV19eQOrloiEERAb3BBMCazyAeRg4yZh4fWRT6E9FmnsKSV8m/+5m9c5Cq6xS5fvtyFRuavLwznTGHp+6UzUhaT0dJd9lvf+hZeeuklfPKTn3RWyrEP+6X6NdX6l2pvutsjoj/J6SYgbzB317eAuveAriYTlZZSJNtcNZbfNd1T1P6TIJBoz0qqjVtdXJKNHIsEW1mQifdOtDhxuaWmATX1HeYG24/Gzj5sPdxoeS0LnTssA/3MRImI+3AmTmQO2whmGLw8h13SoUXgghdiIZk6gVh4nmPhHKZ+5UbvwWA5HH9Il1MG5Rkb2ZXbmEKE22gIGY8ZveT4/rpu3Tpw/KSKCIRCQIIyBGp8gMcW5uXhQ0vLJC2YjJBFkclcOwy1zISvDJP8iU98woVd5v6MjMXPP/nJT0ALJ0Msb9y40QnUse1f7DO/IPwvCX9+sfqzsW2ujnvRc0nJBBbZtTp30FKImJg8+gqQW4nhhZuQQAumStgIlOSkgRPHTl42LwfFlnaEYysZEfaVmkZsP95i1ss2nDa32Cuq8rGgMBN5GSkaYxm2K6QDzSYB//vRn8/msWK1bbGL1Ssb+nnRVTMSylzdmzx/puPgNFHJzMzEpz/9aWe8mKgO1/McUlNT3TvrxeppmwhMRECCciIyU1zPX36Yh4c5d/gAczwkLZe0Th46dMhZNOnbvnTp0lEtU4hSWDJvEIP1MNQz9xuv0NecvyRxzsIvAE5cx4nFn7NOuL5s/T7weJzYBwrpcB3fnfh4/yQkAvOvRkJ3KxKPvISElhMYPrUNgwct8uuS9wEcazk4MN6ec7KOYxj8a8s57ylOsVQy7Rvn1mVFuHFJAd6wgD1P7jqDZ/eeRXvPAN6ubcTOky2otIA+t64swV2r52FNRS7SLHDPwNDkXhx4L9Lqz3uP7LjMX27n/F6Mwos4liWfa65TmRqB4Oea92MsPtdTIzL12sF/Y8hP9+LUGfp78H4c+x3pb4uWOfvv/630nyfeI3P1Pe//vZkLfpM5Z1opOU22kGm4SnD/uRz82e+Df23ZL78O7wF+DwT/fffrcV04z8HvZ7zPJSineQfw5uZNzDDJP/rRj5w1cuXKlS4cMptmxK3Gxkb3ENClYLzCgdDMG0Srpv8lOV49usUyx89rr73mBlDzuP4DtHPnThddln7yzCPkP3jjtTMb68iB4pn9ef311yPmxXMoMRVpbe2Yl7YGFaldyDi3DwNv/Cv21w+iJXMREvq7ZwNHyG3SlZqFg+vpNh1rhW6wFhDWpgT0dPdhVUIPsip6sb95GPtazEO5LQEdvQNo7enHO8eaUZ2fjJUFwKLsYRSkmkActJdJE5eDFxGYvBf53PFe3Lp1a8Tci9F4LcmS42v4h5ssVUIjwOEOZMlx8/yxTWXqBPg3jRz5d1L34tT5Be9Blnym6T3FuA7RWPgc8Z2K308UEPy+D3fx37NoSJiL40/2fKfSN35PhbvwmLwfL/b+yz5RRPIdifcsgxGRf3DhebIt/mhy8uRJfdcGwwnDsv6yTRMyb2C+vDKC66OPPuqsjR/60IfcFx2b5kPCLzzWm+hFgm4G/EJkvbEPSHD3uD+tl7SA8oHhxMIHyG+b7fhfruH8YuCxeI4XO8/gcwnXcoKpl6T8+cDlH8HwwS7g9BYknnzbeNn41ooUIK8SGDLrrvV/rgvZ8QuThdeW1zSc1zBc50/StLEXZWegLC8T6xYmYl1HIg61WtrQliHUNnbjSGOXjbFsR36qpRTNG8aKggQsyk/BwsIMlJrrbJaNyaSo5DQ05tpF6r0YLr4zdRzej/w+4pwTv1dUpk6A7PwfisgwVp/rqZOZ/B5k6L9s6l6cPLfxavosOeffmWh9rv33H54Hiz8f75xnax2PGfz3ZraOE852w83Rf8fhcS92bJ8zWbCe/54bzIbrWW+8bcH1tDw7BCQoZ4ArxSSjtTKa1pe+9CV86lOfGmnVFwZcMZFY5B9KPgR80bjYA7V582Zcf/31IyLDr0sR8uEPfxhHjhxxYzDpRstj+Q/qSGdmYcHvA4UzLZM8h2uuuWbkj1Q4+nDR07IvGJjr6/DQjUgcrgXaa5Ha3Yw1g3swXHY9htZfbRfGJI4TJXMnKsmRE12fOQZ3xYoVYKJg8ptzhhcFPP2NvEQb7Z8huw4NHT34w556PLPnDN61AD79A8PY3zGE433JWI5s3F1ZhpWLi7DEAv0kJdHa6U12Aa0j3ouFfy8yDDnzwvovTLHOcfpX4nwL/v3IH7noEUGvByai9l/ixPI8q4mWyJCcyIzeBvQ6WL16tQvkxvViOBG50ev9e5FeQFu2bEF+fr67F7meRRxH87rYJ58lvYn4XDMa6Nq1ax1D/3692P5zvc3vI99vmAOcE3+QZ7oJvnuEq/CeY1/4/cgfi3h8/+9MuPoQK8fh+y+NMrx+/nAvsh1byJys+XedOdwZ2JL1+f3qfwf4+3Edt9NjTyV8BML3BIbvnGb9SP6XCQ/08MMPOzHJPD9M/3HzzTePvHRxO/3WGTWLX4D88hmvMCclX4L50naxLyU+JJzGFj5g/n7+l+p49cbuN5OfeVz/YWZfwn38S56LiQ+sfdDSiHQAW78HHDe3XEshkrTwOiC/iibBSzYRjgo+N87J02cajmPP9TESzQBWkpuJe9fPx6alJS535XM2vvLFAw041tSF3ebuerqlB0/tPoOV5bk2znIerl1UiPxMszQHFf9ZILuIvBeD+hrpi+Tn34f+d0uk9zkS++c/18E8I7Gfkdynsc91JPc10vsWfB/692ak9zm4f+w/33v4LsYf1IPfyYLrzdby2L/L/nfkbB0vltv12XF+sXuR23mtOXH5UgGELtZWLPOcy3OToAyBPm9m/qLCMY0cN8lfWB566CHceeed7peT4CYpJhl0hy9j9PnmeEpaEP1Ckcnxk2xj0aJF7iHxt0127v86w/rBy5PdfybqzdVxp9T3eau9YDxHX7ZUIju8qK/5C4Hr/ldT/jlTakqVZ4cALY55maluqrRIr8WWy5LikcF69tW1Y09dGw43dLiUI6csIux7x5uxyrYvL8tx6UlS7IeD5GT74cXa8ayWs9NPtSoCUyHgfz/686nsq7oiIAIXEqCgpKigtZXi4VI/yF/YwvTX+J5gnPO9kJOe8clx9VmRnT/xPZjrxxYypXWSXoCsQ8uk/wPT2Lr6PHcEJChDYM+b/+WXX8a//Mu/4NixY/j85z+Pv/qrvxpXDPJLj0KR5ncOEn7llVfw/ve/342x5Bch3Rvr6urACLDMEzSVSFx+1yPtCyzS+uNzcvPytTae0iyVve1Aw35g56+BpbdaNNgrzWPywi+yUfvqQ1gJpJkw3GgWSE7HGzvxjFkmXzhQ78RkR+8gXtx3Fi/b50XFWbhrTRluWl6KFWW5SEmw4D32jKaYC6wu6fQuWfCzzOXx/thP7wjaWwSmTkD34tSZjd0j+Nkeuy0aPvNdia6PLS0tLkgLz4frwvkdxSBR9C5jkcAJ7a6hQKQ7OzlOJChplaTxhe/M/BGB110WyNB4z+ZeEpRTpMsvrV/96lcud+TBgwfxta99Dbfddpv7hYWRvlh4o9Mi6buV0ErJHJVPPfUUvvOd7zgL5fLly/Huu+/iu9/9rvvlhWO9mLdSZZYJMAjP+k8CtVuA5mM2prIOeOfn9tfAHoXy9bN8cDUfKoHKgkx88tqFuG/DfOw+3Qa6wj5r4yyZt7LWAvj8f28cx2M76pw187blxUhp78PSzAx7uYgMV+ZQz1v7iYAIiIAIXEiAwsL39uKwIaZtC7fIoNChCGJfwilkL6QRvWv4Tk3rI9+XJxpWwTrky7GqHEPNd2rxjrxrLkEZwjV55JFH8Pzzz7s9f/zjHzuh6Jvs+SsKhSEjvW7cuNH9ksKHgIll+cA8++yz+PrXv+78/ylAGf6YQXweeOCBEHqiXUIikFth4yk/auMpzUpJ99f9TwKlq2wA30ogefK5mkI6tnYKiUCiRevNSkt207UW4bXEIr1evagAe0xcvnu8Bdtrm1DX2o36tl6ctXnGQD9WtPWhOfsMNiwscK6zIR1YO4mACIiACEQkAQoQCgy6QNJayPcwX3yEo8OMndHcbOmtqqtHAsqE47ixdAxeNw4Ho0jkDwRjhSKvJ38o4PszrzOnsXViiUc0n4sEZQhXjzf90qVLwfyRdLdgXize9Cw03bP4vt5c5oNw+eWX42Mf+5j7BYZur6dOnXLR/m6//XZ85jOfwbJly1hVJRwE6Ae54m67SCe8sZRNR4HDfzRBaddg8c3m+iqrVjguQ6jHyEy152l+npuuW9KDLYfOoSIvHTU2trKutcdZMLstOuxBixhb13cMJ82KuboiDxX5GcjLsAhx6fraC5W99hMBERCBSCJAN1d/qBAthuEqFDV896NhgOM3OVHQqkyeABnSjZXvzfxhoKSkZNydKSjDbX0etyNaeVECerO6KJ4LN/IB+MEPfnDRLw7WoYgc+wAwPPeaNWtG9mU9v+6FR9KaWSWQkQ9UbzJBeQdQ85xNZnFOybCxlFcB6bmzemg1PnME5uWm4/4r5uNP1ldY4J5WvLC/3rnC0g22tasPLx88h5dsmm9icmN1Ie5YPc8sm4WWA1OW6Jm7CmpJBERABOaewEQuk7PVM77j0ZjA40r0hEaZ7HyrcrivX2g91l4TEZCgnIjMRdaHetPrC+ciUOdiU8UG4IqHTFS+B9Tv86yVe39v1ssPAJnnI/HORdd0zMkRMFuz+1Em0aK7rjGrZam5wm5aXIAXtu3FztNmsRzMxF5zi91n0WFbuvqx70wbqi167AqLDEuBuaEq37nRTu5oqiUCIiACIiACIiACIjCWgATlWCL6HD8EUrOAqmstyuttXtRXur7u+BVQYKlEFt0UPxxi5EwZFXaBicUFhRnoOZ2E0tQ0DBVVORfYo+c6cKq5G9tsrOX2Y81YaFNNfYcTmktLs1FuLrPzbCqwlCUqIiACIiACIiACIiACkycgQTl5VqoZiwTSsoGr/gzoagTe+yVw5EVg4fVAoUXcZURYlagjMDAwiKThQayryMI11y5GR9+gE5LP7j1jaUbOoaG9F02dfXhi52n8/r1TWFCQgeuXFOPmFaXYsCDfxlqm2zlbkmXnkh51p68Oi4AIiIAIiIAIiEBYCUhQhhW3DhZxBBJTgApLF7L4Zi8vJXNTUlgy2uuNX4247qpDkyfgwiOYT2y2RYe9ZlERls3Lwcc3VmGHjbXcevgc3jjchBPNXTjc0InW7gG8fqTRWSpZ79rFRTYVoizPxtWqiIAIiIAIiIAIiIAITEhAgnJCNNoQVwSW3AJ01ANbvwecO2BRX1/wLJWVGy1Mr9wgo+1eGLYODw0Nu4kpRzIsMmxGaoaL9Mpor4uKs3BFVYETk0csOuyRc504eLbdXGC96YiJzHePN+MyE5fVRZmoKspyYjMlSRGAo+1eUH9FQAREQAREQARml4AE5ezyVevRQqBoKbDqPi99yMm3gTO7ge0/A7JKgeLLouUs1M9JEGCE101LORVboJ4+7DjRglcs9cibR5pw2nJYdpmLLK2VLxyoR2FWKq6x4D3XLSlyAnSxjbdMT0lEWnISUk1cmlesigiIgAiIgAiIgAjENQEJyri+/Dr5UQQKqoAb/hJ48RvA0TeAA09bapEbTFQWAxkFo6rqQ2wQyMtIxbU2fnK9WSs7bhhwQXq21DRaupEGHLagPc021nLL4UZsN2tlbnoKym18JdOOXG8Cc/2CApfXMjZI6CxEQAREQAREQAREIDQCEpShcdNesUggLceiu94IHDcx2XbKc4F99xcA16++PxbPOO7PiRZGRofllJeRYlFeU1zOyqsXFYBur4dMVO63lCNMO3KiqRtHzTX2dEs33jOrZrW5wdJ1dklJNi4zy2W1LauIgAiIgAiIgAiIQLwRkKCMtyuu8704gfQ8YPldQGcDsOs3FvX1JUsjUg3Mv9Kivi5g0sOL76+tUU0gMzUZKy1HJaf+wSEcsHGVbx/1Uo1wnCUtls2Wz/LF/Q0YGDyLCosQu64yD1dXm8XSclqWWeoRCtMsayc7LcluF90vUX1DqPMiIAIiIAIiIAKXJCBBeUlEqhB3BOjm2tMG1L4GtBwDjm0B3v4RsPmvgfTcuMMRryfMADyrTFiuKMvFJ69diNMWEXab5a+kS+zbls/yKKPDmrjk5zds/CXrXzYv2421vNrGXV61sMDltoxXfjpvERABERABERCB+CAgQRkf11lnOVUC8zcA1/4F8No/Amf3AKnmzrj4ZqDKclSmME+hSjwQYC5KCxJrJcFcWrORY+Mo18zPx30b5uNYYxf2nm517q8HzrTjRGuXpR/px0lzjX3TgvqU5KRhoUWIZaTYFWWccjXmMh5uGp2jCIiACIiACMQZAQnKOLvgOt1JEsgp96K+Hn/dG0vJ/JQ7HzFhaeMpF1gqEZW4JMAIsZwoEAcGh7GnrtUEZp4bY1lrLrH17b1u2mm5LikuGSV2RXmOs3SuLs/DopIsJzSLbH2BTcyRqSICIiACIiACIiAC0UxAbzPRfPXU99klkDffC8bT2w7UPA/s+CWQb5FgS1daJBcGYNH4uNm9AJHdenJSgo2fzHfT0PCwC9bD3JVMP8KosMfNgtlpKUhqznaAFsxHt590QX/W2j5Xmjssp9UVec5qybZYEvifbqvIvvDqnQiIgAiIgAiIwCgCEpSjcOiDCAQRSLAk9svvAdrPAnXvWaCeRmDfY17U1+u/FFRRi/FOgK6xFfkZLrXIlQsL0WbWyVOtPThg0WEZEZbTsaYunGzuRmfvoFk02/H4jtNOYC4yV9rlZvFcZZbMlSYwS8wCqiICIiACIiACIiAC0UJAgjJarpT6OTcEUjOAJbcATUeA9/4dOG3Ckjkpq64BytcBSalz0y8dNeIIUFTmWoRXThSXKxjQx8ZP0gp5neWt5JjLExbY55SJyuMmLned7ER3/yDKc1ux0FKOLDZ3WKYhWVCQiXKLFluam44ym4pNYPoWzIg7aXVIBERABERABEQg7glIUMb9LSAAlyQwbzWw8XPAqXcsR+VW4Mwuc3992ILzZALcpiICExCYb2lFON20vMSNuTzc0GGRYpuwrbYZ+80N9oxZMfsGBi3HZZfLedljAjM3PdnluGQaErrUMtIsg/ukpSRZJNkEJCcmOoFJAasiAiIgAiIgAiIgAnNNQIJyrq+Ajh8dBAoWAtf8uTds8sjLZq00QVm03MtNqVQi0XEN57iXtDIuKclGpQnMD1xejraeATfuco9Fit1hQXx228S8l1x/0MZdnjBL5vN765GZmuQF9zG3WObHdEF+KnJRlCXX2Dm+pDq8CIiACIiACIiAEZCg1G0gApMhkJoNLLvTXF8Pe+6v7WeAXb/xxlNu+MRkWlAdEXCWxeQk72s3PzMV8801dkFhJtYvKEBda7cTmBxnSffY2sZOHLFcl0fO9dl+iThqUWQ5FpPusGV5GTalu2W2QRfbivx0l9ZEmEVABERABERABEQgnAQkKMNJW8eKbgKZhcDS9wMtJ4E9/wHUvmrjKfOByivNWrkUSEyK7vNT78NOIMmSXFIQcgJsbK6Vs2092GvBfPaeasNus15y3GVr94AF8xnAyZZu5yrbYcvZ5hpbZeMtabFcbmM1GdiHYzDzbAxnRmoy0pMTkW5uspzkHevQ6h8REAEREAEREIFZICBBOQtQ1WQME6i6FhgeAk6+DfR1eNFfX/8n4MZVT3ixAABAAElEQVT/YilFFsTwievUwkWgNCfNAvGUYNPSYrvVhtHY2efGV+493Qa6xzJC7OGGdvQODOGUCcyz7T147dA5UJympyRacJ9sLKPAnMd5rlsuzZV7bLiun44jAiIgAiIgAvFGQIIy3q64znf6BEpXAUwbsuV7Jih3AIeeAxZY1NcVH/AiwE7/CGohjgkkmDmRaSnNrsh/nDsrrY5LS7Nx47JiNHf141x7r7Nc0g32iE019R2oM3HZ0z+Ehg4ToDYG8/WsVBRwykxxkWJpBeX4zUqzatLNlssqIiACIiACIiACIjBdAhKU0yWo/eOPAN1cV91n0V53A22ngOZaYPdvgfQ8YOUH44+HznjWCWSlJYOT5xrrHa7ZLJdHznW4cZY1Fj2WkWIb2vvQYjkwW7v6cMZcZxlJtqtvAGnm/koRudCmanOLXViUhSqLHFtqKUmY5iQ70H5WWpJb9iPIptp+FLdm/DS3WftHRQREQAREQAREQATGEJCgHANEH0VgUgQ4nnLVvUBPqwXneQTY+4RZJ21d2VqL/Fqp8ZSTgqhK0yFA6+OVWYW4cqHdd1aYfuS0pSHZby6xB0xIHjjb5pbPtvWiq3/AxmH2u2iy751oxTD/G7ahv9mpWGwCk9ZPusoyCi0/M+APBSwtnvY/Bm0ash18oTmdfmtfERABERABERCB2CIgQRlb11NnE04C1ZtNULZ5bq8N+4DDL3i5Kd//t0BmUTh7omOJAFKTk7DA3FmZTmSD5bDs6htEt1knOQbztLnDHmbEWDd1uAiyXM/gPk3mIstxmZ4VNAlZFtAnz9xkGUm2IicF7Wd6sczGDc+3NuZb+yoiIAIiIAIiIAIiEExAgjKYhpZFYCoELMG8Gzu54SHgrX8BGg4ANRxPuRFYfjeQVTyV1lRXBKZNgIF5ciz6K6fg0mG5LRnA57SlJqlr6XEpSuptHGaDTU0mLP3pVEsXWmyMJtOUFJoFtNyC+aQPDeFITxeO9B7FvNx0s2qmId8EZ056CnLtOHSZzbXlsccMPr6WRUAEREAEREAEYpfA6LeO2D1PnZkIzA6BnFLgqs9argcbT9nZADPnANt+DKTmAGvun51jqlURmCIBphhhWhFOfukzP9bjlu/y0Nl2s1h2WZ7LDpfr8kRTN7r7BzFgQrLJxGX/YBIOt3Xi+ZrD5vo67IQmx2MyZQnnbpmfCzPctjRLU0LXWIpbN7lljcH0uWsuAiIgAiIgArFGQIIy1q6ozif8BNKygev+E9+Ygbd/5KUU2f8/gZwyYOF14e+PjigCkyCQalZIBuipsOivm0xc9ptY7LNUJHSTpYtsbWMnDpvY3HG0DsdbetHan+Ismb6rLN1nGbSH7bjgPSYgabksN1dZL5pshnPB5XKVCU6O+VQRAREQAREQARGIPQISlLF3TXVG4SaQYK6v5eu9tCGNh4HjWy2VyDNmpbTxZgXVQG55uHuk44nApAgkmwhMTrXcJMxPElQYAXZZWS7OVOSgqP8seitzUVSx0AlKuslyauzstfQlfTjX0WsRZbvR1j1grrIJlqbES1dSZAKSbrNusnUUmxybmZdhy+Ym6z67ubeNkWZVREAEREAEREAEoo+A/oJH3zVTjyORADMqVJk1srvFXF/rgdPmAnvgKaDyKmDZnUC2ucaqiECUEEi28cGlOWkozUxCiwWRLSrMxur11RYb1mJQmfXyuKUo4ZjMU83dOGkT152zsZidFuSn16ycPeYyW2fjNZknk8uMFksDfl5GMspyM1wU2TIbj8losuVusnX2OdcEZ0ZKohvDmWKWzxQTqJxT+HJOF1oVERABERABERCByCIgQRlZ10O9iWYCFI0rLBjPqe2Ww6HLxlPWAS9/0/JTFliKEeWnjOZLG6995zjLPksZ0sXcIZY2hLko6dJaauLvSvtsXrK22pszYuxZS1tCV1kKTo7PdHNbZjCgzt5B9A0OOyFaZ/UY0yrJ2ks0kcgxlxScOWalpJCtNBfZCjsOBWdZXpoLBsSAQCUWEIjRaFVEQAREQAREQAQih4D+MkfOtVBPYoFAVgmw8X8B+k1Q7ngYaDlu81/C/ArNUnlH4Axp55GlJRYud6yfA8WiX/y7lsIvmf+MuYczzXWW7q0LLDhPu4lLRpalyKTVss2WW7roHtvn3GXpJutPzn3WPrdbHbrMHmtKthya7chOS7Ep2QSkpTKxOdt3qU0srQndZT3XWs91toButFxHF1tzr2VgIBUREAEREAEREIHwEJCgDA9nHSWeCJRfbpbKe0xMHrPxlG9YKpHnzUqZC5SssDGVVUZCYjKebod4Ole6pua78ZLjB+CheKxv7wmIyr7zy7a+2SLKMndmV/8AusyayWWO0zzZYi6zbv2gRZwdRgqPYcKxONsmmzONiT9es9ism8X2mWIz24QohaUfNCg4gFAagwlZ3k6uY59VREAEREAEREAEQicgQRk6O+0pAhMTWHa7F/X1XI0nLI++asF5fmbWy8/ZfP7E+2mLCMQwgRITfJzGK4wue6at11xizUXWxmSebO7BGZufNQFab+vPmOhsNdE57EZyAk1m7Wy0CWc7XHPOlmr/cDtdaDNMTNJi6oRnNvNnesucl+Sku/XeunTnaktxGWSQPd/FgN6U7DyPREsiIAIiIAIiEExAgjKYhpZFYKYIpFiE18qNwLV/YXkp/w2o32eur78CChd51ssMG1epIgIiMEIgw1xZqwqTbLxkGlaX56HHgvv0DQy6ID/9NpaTgX3oPttkwX9chFlzk20IRJmlsDznos722nZaOodcQB+61R5r9KyRtEqmWcAfNw9YJz1LZSIyTXzmpHsuswUuEi2j0aa4dbkWSCjXlnNtu5vsMwMETaUwmBANoc5TeCo7qq4IiIAIiIAIRAEBCcoouEjqYpQSyLF0IWs+7I2j7GoGzh0E3rNxlckZtv4Be7uc2ktplFJQt0Vg0gQovDJNWJrH6oSF4rK1u9+NyWwxiyUn97m7z1kwW2wbx2N2W3RZ50Jrlk83NzHKOYMD1Zu1k261rMOotHR7zbIxmnl24Nx0T0Dm2JxjNjmOk8ucu3GdgWVaQNNNoKbb3Bep/Ew323QnXj1323Rrt9uOOzTsRaqd8MS0QQREQAREQASilIAEZZReOHU7CgjQHFG0GFh9P9DbDux73FKJPA2k5QDFy4BSG1OZdJE35yg4RXVRBMJNgNZBjpPkNFEZtPCztE56lkzPNZbLtGQ20sJpgrLRtjeZGG3v6ceA1ae766D9w0BCDCLE5SFbP8S5bXNz99lzq6WgpBWT4zUZECjfAgPRuskxpAVZXr5NClF+bq7vMguqDalu6kFFSr9Ft7We02LJ/9yc1ktvmT8z+csj24PqTnTOWi8CIiACIiACc0VAgnKuyOu48UNg6a32NjoINB628V67gCMveud+97eAfAbpUREBEZhJArR0cqwmx1AuLh4GBaabTByOLNu6AQvy021BgGjldEIzIDoZIIhRaTlmkxZPzwrah2Zzp6XgpAAdHBxwOTYZuZYWTk48bnIgbyaX/Wl40CyUg4n499o9yLDotYxYyxQp2eZGS9HpplGf6V4bsIzaPMustox2S+vtVN1tZ5Kr2hIBERABERCB8QhIUI5HRetEYKYJLLgauObPgS3fA06/CxzbCrzzc2Ddx82KuWSmj6b2RCDuCTAwT6KZAs2QOKnC8ZkUi13mIttpLqp0U/WnLnONdZFm6T5ry902RtOPRsv9OrneXGg7AnN+5r5+e/1DCRgYTkR3QxsSTNTSRTbDRCXdZTllBFxnafX013PuudX6LrWeOy2j1nouthwb6i0zYq0/PtTf7tYFtnOb/9mPekthSsGrIgIiIAIiIALTJSBBOV2C2l8EJkMgIx9Y+1EvOE9PC9B+xhOUGYXAVX8GpKRPphXVEQERmCUCLselWQknW+gqS+slrZgcw+lbM92yfW6z7czFyfGcDa0daGzrQGp6nrmzJpmFc8hZSp2lM2A9pZstLaP+NlpSaUENtqz67rdMnULBmckcnbRectyp9Z3jQJ0l04Sp99mzbPrn5o1PtW0UsiOClaI0yQUxoqsthbj97+bUm94677O/3p9PVNe57BpIf/tkmV6sntcXugl7fbpYXW0TAREQAREIL4HJ//UMb790NBGIPQIcL3ndl+wtyx67V78NtJ4E9vzOxKQF6bnyM/aWxNFTKiIgAtFAgAF6KNQq8jLc+MshJiyxsZbD9o/NvGVbSrDnuqamBnv37ce6K1YiLTsPLTaOk4KzrZvjNT3x2U4Rap9bnQj11nFbu63zraC0jLJtiivTm+jsscBDZhk9l9Dn1o0dc+kLQgpAX4h5y55o9NdT+NHaSYso3XF9S2nw3FlSx2wbXTfZRK5nRXVBiWgdtfZoTU2nYLX5dAr7yBZ4TioiIAIiIAKRRUCCMrKuh3oTywT49pZnOShXfhDoqLc0Ihbx9dgWi/pq1smipcDCa7xlMuCbqYoIiEDEEvDEWECpuV5OrHQKM5NRYDGEKvMt52V+FvoLMiwliqVFsYi1nDNyrfvs1g0Htg3afNht43a/DqPS9tDtlm64zv2Wy0POxbbH0qycX3e+To8JUdb3p16rz5QsPD6/aijWvPGf5iKcmGjjQL2ItG5+sc+m7ug6O1LfPnMMqWuLyzb5y4lsx9VnHW8/ut+mcNnEJtvh5K0LtGn7UOhy+7CNWd13bhCFA30YOtZkbXn1/X57x/KOwfb52R/P6n2enqCN2BtRHRMBERCBCCAgQRkBF0FdiDMC5euAKx6yID01QO2rFvrxdUsn8guL/mq5KwfnGYwEDPNtVUUERCAmCDCHpmk69NOsaMUXT1khnh3dYt34zoCgpJXSje2kyLSxm258pz8G1K8T+Mx6vaxnfeo1UUmXWnZrlKutrXAut4G5537ruelSlA72mjtu8LaAC69zz+V6U6mMkGt61YuO60572AlXJypNINJySbF4fsynt+zWBfKE+uM9uS45YRitzUPIau7B7o4TIwzPi1SKUBOZTmhSsHqC0mMdEL5O0Hr1uF8iJ/uq9V1znRWUvxHY9+/59d4yv5JdPbtmzqWX9fifq2/bgpZ9l1+/HqWsv8y59zloXWBfHvN8m1xinfP98z7z3+kVJ9rtYGSkIgIiIAIzQUCCciYoqg0RmAqBZDNVzL/S3Fw/bXvZm9bRV4B3/x3ILUNC8c2uJb50qIiACMQOAVoCZ8rxgNa5nHROKdMCRAFIayUDEXnBhsyKSeFpkW/pXuvmQYKUeTwpKN18bL2AYO0xCyqtqBSrFK20rPI44xXy8Oqa8px06TbPjpOTrn2xiiOWUoorJ3CZOzSwHGwxTfYEKceuJhl7Z/G0elzmutGW0IB1NDEJSU7UmuPJuPWsnbH72jHdusAxaH11Ftyg43Kdm+xvBOcUxckUqVy2OfvG+cUKLdP8caPfxuiqiIAIiMBMEJCgnAmKakMEpkqA4yZXWX7K7lagqxFoOGBWyn9HUmEtUvJut1+l5Z41VaSqLwIiMDUCFCQM7MPJy7Pp5eKkAHQWRloabRqxPHK9+2z1RpaDLZLc7lslveVBs15SuAS7+J537/XcevssrQrXUVz2B+Z+fa6jAOo1wXquucXaN5GVnuksqmyXllXOfbdgBjLylkdv43r2ncXZ/kxz2ek7y6FpMCfCnIXSvnrdnCLNTVbHibWApdD253pqNmdtHG9uR/DbZj2/vpu7/f19vXZGbWd7I/uP2TewzTu2V88t85y44OZc7+1HkTlybm7ZPtuKIePd0GDWXnMdLj6ww/WV94J3PhSqtr99tv9d35OsbfYxeB0/e4I2UMfV9/Zx6/19rI2Rz1bHtRVgPLLeP87YNgKf2Z+RvvnHDezjC2nT4IG2A30NHJfH477unAJ98vtNztMp2TZm2LzZXdqf6bSjfUUgFghIUMbCVdQ5RCeB9Fxg+d1An2U83/ZjoOkosizZ+oL5mUjrv8rOqSQ6z0u9FgERiDoCTjBYipXkab5kX+rEKUQpEAdoJRsRf1zmuE5PBFJMnt/mudd29vRi9542pKZloHJhtRO0dLtlO24evGzt8ji+Gy/FpOeiOzQieJ1Ipvi1et6yNw/+7Itqbuey/e9EqS++3Tx4nb8cXPeC5aB2grfZvgzo5B/HuQ27z4H1FPJ+HZvTuyUwuwC56Sa7iqMFoBOWvmCzOa2mCQmdSDjS6QlHf5sTXaMFpbs3uD4gBK2qJzCD1vnCbUTYuXYo5nxBGdjHHedCEeqJvvNicEQo+scaOXZAlPIcra0Rsct6I+cQfCy2eb4Pwcdh37xz8+deXU+8+iLWY8nHwrrgxCn3Y52TJ9twzsIhNL9bh6wsOrAzCJdXf9Q8sI79YDnffnBdbz338+sEFr0nMtCGW+eW2ZD73y14x3O7un94DNYdaY9rx6wLrLJ6rtVA37mWVQPr3AceJ1DLP6Y/d7VH/8P7klwZtIsRqOmyrhL7BCQoY/8a6wwjmUDxUmDDp2w85SHg8ACy205j2ZknkVB/MwaLK5HEcZUqIiACIhAjBGgdyjB3UPPlnNIZDVkwntym/SgoyMT6K6qmtO/YyhShzu3TFJqbB6ygtI72UXxyPjToRK0nbj2By/0oLuku6i3buFirTyusJ2oplD3xSjHLZa9+IE0Mxa/b7o1Z9dvzhDH387ePXnbt2379tt2JX/MQ9qMJjz03fg4YYt0mJzr9SvYhIEMxaFZKKggGS/KU6cjM1XbCNqiFkXZcG36DnI8WtiP1uCX4w/ma7kDBm0aWAwt+H13rIxv5KaiPtj64ntsWVDdo0bFyOwf+Gdk2suBtGPPRCVEKI8+qyrkJJYpWm7gOw7wQQGrtIef27G3zLKXePomemHWcg/ZnmxTIxt5r32vX28cTY74gpAh1y2zDusnDch+bucDwI8vczrqujtdHVzfw2W/P35913fUP7MN22P/Aau+YVsU/fvAYYXdMq8+2OI0tvEc5Rvqy0hysKM9BaY7Soo1lFIufJShj8arqnKKLQG4FcMt/tZ++B5G4+7dIG2jD0Bv/j/2h6vWC90TX2ai3IiACIjDjBJyQspd301XTLm7Mo73RsyknzGzBX2bjFEIUK24etI11WNFtG1n26ntrveVR9dwHbuU274PXfmAPW+VtY4NeHa8Wl8er48kobvMtqJ4bMsVrwIJqL/TBgZG8ZROjrj1LN9PVjT179yI3Lx8LqhYGRCotp54A9udk7i0H2g1s99bT7dksvu5Yfl8Ccwpf9s/V96zC7vqxPb9vtn1kHevZNLLNHff89pFt/rEC/WD94L569bz9uP78NnPzDezDOv552aIrI5poZCF4vSecuMZttn8ou7icaPcQx9EOdtvf6lHb3ccRUea2Bdp2e7o2zouxUetGGvKO47V0vm7QZlZw/Rj9r9UYWe/t7Ym+QAe8zf4ugf39emPqeKtHiUZXI6Aiz9cOVAzM6G2QnZ6MD64tR2FWqgTlaDwx+0mCMmYvrU4sagjw13pLGzK07hP2l7AfifsfR2LdOxje8x82OKMMWPI+/uWKmtNRR0VABERgpgmYdjgv8EwJ+C550zkOX4hdOyNvxiML02k2ovb1RJcnTCmgjBzaOzqQcCYBpWUZWLOy1IScJ/6cy63jTDHmrwvM7ax8kebaGdnu1+X18Za9edCy7evWXXCcoGNYz7xrzLkn5r3jjW2Xn8f2xdvH67Nf3xPerg3PkBjo33jH8fZx7Qb66h/DPye/TyPrrV5TcxPa2jpQWlqB5JQUJ4pHttvC+fPx+3R+7tqzc3b1fS4BBjbjlsB52oGs+J/dctB27m//u3Pj3NUcWXd+Peu5bfyX2+0frjq/v/fBW+dtYwV+9nPs2uL5fd02br2wOGun3Wfuv9h7pC48Ya1xBCQodSOIQIQQGF52O/r6+tBX+56NpTyK5ONbTUjaI5pjFsyy1RHSS3VDBERABEQgWgg4N0zX2fNv9sMWhCnDItfm2Bi33GlGCo4WDlPpJ0UWBZ+zeNrcifKA6KNIpIWT/+3bfwC1x9uxcWMVsrJznBv0iJWV+7ENfz/bxxfuo9oNtOdZV719bDdPyLk2rOf8zGUuBpZt5vrFOdcFC9RRdXlc9pb7ubo8hteetx/XB7b77QTVDW5rpB22aTtz//EKXbjTUxKxrjIf+Zmp41XRuhgkIEEZgxdVpxSdBDh+oj1vBQ5XPIhVJx9GXtdhy1FpovKtH1iKkc9aqpErovPE1GsREAEREIGIIeAEhfWGokDlQgL06OTf4ySzsY0QGlnwBBgt2wUZSWhNTUB5brq5D2eYwLpQZAXt5im6wOEo4sYWt+bC1aOqXWKz1bUa3v+j9hvvw7htjbNynFXjNRe0jnsE0udw4KlKXBCQoIyLy6yTjBYCfUlZaMpejt7LPw7UPWc5Kl8H9j0BpFlEWKYaKV0ZOBXvCztazkv9FAEREAERiBwCFD8qlyYwIodGFiiVvA9+EB3m/uSa0e7Tl2o7qMFLVdV2EYgCAhKUUXCR1MX4IcBfjvtTcjC04k9sXGUe0HrGYpLXAnsfs3j+acDGzwMM4hP4gxY/ZHSmIiACIiACIhA5BCjJqcv5d1tFBOKdgARlvN8BOv+IIpAwPIgEhiIvXGxpKAssR2UP8Oa/AGf22F+tXwBZpcAqE5tOVEZU19UZERABERABERABERCBOCTAtDYqIiACkUbAUoigwETl2geB1febwFxouSptTOUb/wzsfwroboq0Hqs/IiACIiACIiACIiACcUhAgjIOL7pOOQoIWPoQV4ouA9ZbOpHldwOZRWap3A3sfNjGVT5p1suOKDgRdVEEREAEREAEREAERCCWCcjlNZavrs4tegkwzJxfFlxtAyu7gN5W4NDzQM0LLl8lcucD3JaW49fUXAREQAREQAREQAREQATCSkAWyrDi1sFEIEQC1TcC137ZUodcZZZKG1t5+l3gub8FTr7tRQUIsVntJgIiIAIiIAIiIAIiIALTISBBOR162lcEwkUg0R5V5qG8+s+Bqk0WoMcC95zebjkqfwgcfMblnQpXV3QcERABERABERABERABEfAJyOXVJ6G5CEQ6geRUC9BzrxeQh+6vZ3YBu3/nWSizy4B5lqMyOT3Sz0L9EwEREAEREAEREAERiCECslDG0MXUqcQJAQbp2fSfgbwFXm7KGhtX+Yf/CjQcjBMAOk0REAEREAEREAEREIFIISBBGSlXQv0QgckSSE4DFt8E3PhVoHSVF6zn1DbgtX8Ejr4y2VZUTwREQAREQAREQAREQASmTUAur9NGqAZEYA4IMIXIuo8DHfXm8mrjKev3mvvrb81imWFRX/OAstVAoh7vObgyOqQIiIAIiIAIiIAIxBUBWSjj6nLrZGOKQJIJxuu/BFzzBSDHxlAy1cjuR4GX/jvQeiqmTlUnIwIiIAIiIAIiIAIiEJkEJChn8boMDw9PuvWp1J10o6oY+wTo/rribuCW/wPIrbSAPc3A8TeAP/5fFgX2vdg/f52hCIiACIiACIiACIjAnBKQT1wI+Nvb21FXV4cTJ06gpaUF3d3dyMnJwbp161BeXo60NHvJt5JgFqPGxkbs27cPp0+fRmdnJ3zhOGRpH1ivtLQUGzduRGFhYQg90S4iYARyyr3or60nPLfXhn3A/ieArGK7Ce03o/K1wiQCIiACIiACIiACIiACs0JAgjIErKdOncIzzzyDxx57DEePHsWxY8dQUFCAb3/72/jABz7gRKLf7MGDB/EP//APePbZZ9Hb24tE5hO0QkGZm5uL66+/Ht/85jclKH1gmodGIKMA2PyXAN1g3/h/zVLZArzzM29+69fMekmXWDkkhAZXe4mACIiACIiACIiACExEQIJyIjIXWd/R0eEE4bJly3DPPffg0Ucfxe7du51Fcuxug4ODSElJwcqVK3Hbbbc5wdnT0+P253oK0UWLFo3dTZ9FYOoEUrOBDQ8B6SYuX/y6Bew5Cxx6FujvBm7+3y1PpUWEVREBERABERABERABERCBGSQgQRkCzLKyMmzatAnr1693QnH//v0TCko2T+E4b948bN68GTfffHMIR9QuIjBJAnk2jnLFBzwxuesRy025H2CeyuwSYO3HgAUbJ9mQqomACIiACIiACIiACIjApQlIUF6a0QU1KisrwckvtDLSEjle4ThKurd2dXU511iOqaSFMjU1FZmZmcjKyhpvN60TgdAJ5C8ANv1n86u2e/K9XwCdllpk+089S2WmjdXNrzLX2JTQ29eecUOA318qIiACsUdAz3bsXVOdkQjMJQENqpoB+hSMExV+aff394NWzK997Wu49tprndvrl7/8ZfzmN79x4nKifaN1vf5QRcCVy7BclEwpcuNXvbyUdHvd+zjwtLm+Nh2NgA7Ofhd0H84+Yx1BBOaCgJ7tuaCuY4qACIjAxARkoZyYzaS3MHLrRH/gGP119erVLlAPXV/T09PBMZh79uzBT37yExf99U//9E8xf/78SR9vbEUG+klKSnKr/aA/Y+vM9mf/uOQwEYvZ7kMstO+z8+fTOqfsUmDVPcBwn1kofwKc3WMpRbYAr34bQxxruegGxOIvSrwXfX7+fTktjnG8s8+RCIKX4xhJSKfus9P9GBI+t5PYhc5u7J7+/ejPx27X58kR8Pn588ntpVrBBPzneqYZznR7wX3W8vgEJCjH5zJja4uLi3Hrrbc619aSkhLn5lpfX49HHnkEjz/+OH7wgx9gw4YNkxKUZ86ccalKuD+L/yDS3ZYpTFhYp6+vz7nZ+ilK3IZZ/od9oCWWc6ZU8QXuLB82pprnFyDT0LA0NTW5F/jQr6HlQE1IwnBCOhLm34WkYweR3tKKzO4zSNzxMGwreoeT0ZVVhcGEVEtnM4hYcW4cGBhw9yI9B3gv+s+JA6t/pkTAf6bpps/vFv2RnhI+V5nM2tra3PK5c+fcvRn6cz3148fKHvy7xr8vuhend0V5PzLVGb8fmcrs7FkL3qYSEgEaB/gsNzQ0uGFNeq6nhnG27kX+zWd6P/3tn9r1mG5tCcrpErzE/gzgw4A8LHx4OPHz0qVL3TjML3zhC9i2bZvLYXkpK+Vrr72Gf/u3f3MpS8Y77IoVK1xbTEfCPxZz9eX29ttvj9c9rZsCAaabmZlCmThkQyY3YUHpAFaceRxpQx1I3P0oOmv3YHflp9CeVo4hSymSMDyx6/bM9CX8rbz11lvhP2gMHpEv8W+++WYMnll4T2nv3r3hPWAMHo3ptxiLQGX6BPjjtP8D9fRbi98Wdu7cGb8nP0Nnzh82pvvjBt+v+d5LIcnc7zJszNDFmWQzEpSTBBVqNV9Ejt0/IyMDS5YsAV1i/QfpUoLyqquucrkrH3zwQdec/+sLf7X9zne+4369vfzyy11OS64LZ+Hxampq3IPM8/L7Fs4+RPuxeK/QgnH8+HGXSobBnqb3o8CwWSLtRwzaHi0/ZWbvaiSc3YDh17+HhHMHkDuwB6sSHkbfhj/D0KJbzKBpXwcM5ENhaX2J1sJ78dChQ+6Pie7F6V1FWijJkt9X1dXVslCGiJPf8bSW84dEfudP77kOsRNRvhvvRf7QxmB2uhendzEpyskyPz8fCxYsmF5jcbw3c5LzbzZTyPG+1HM9tZuB7zz8sXKm70W+f9Jww3R+KuEjIEE5A6z5ULBwPhUhxbrchy/AkxGA1fZCx2m88sQTT+DAgQNYuHChE53j1ZnNdbSIUgglJye7PvhMZvOYsdg2uZEjvwx9y/bMnWc5BudZdOKeJgvQ8xjS6ndjXvu75l/7sqUTsfWVm0x4ps/c4eaoJT5LZMgxyxM9L3PUtag7LF/ijx496l6W+N2iEhoBcqSgLC8vd7mHQ2slvveiy+uRI0fc8BHdi9O7F+jyevjwYffjRlWVRf1WCYkAXV45PIXGgOxsywOtMmUCvBdpjKBn3Uzei3l5ec5Tb8od0g4hE4jFmBwhw5jKjsG/RHGZE0WVLwz97VzHl4lgF1Ru4y+EfFGjn3dhYSGKioqmcvhRddk2JxZ/PqpCGD74x/VZhOGQMXkI/77x5zN9kklZhUi48a+BKz8DFCw2a6T9pvSOpRZ56f8GTmwD+jpm+pBhb8+/Bzn378uwdyJGDhh8HwYvx8jphe00fHa6H0NH7jMMvQXt6RPwWfpzf73moREQx9C4cS//O1EMQ2cYKXvKQhnClaBoZF5JDmjnrypcZmHgBQ7OZo5JWh+ZY5K+9Vu3bsXmzZudtYQ+3XR/+vWvf+0C8/BXlI0bN2LxYnu5VxGBcBBgDsp1HwNyyoGXv2mRnHaZmLSxhs9YSpFNfwksux1IywlHT3QMERABERABERABERCBKCcgQRnCBaSLwx//+Ec89dRTzhWMyzTbP/zww3j11VfdmASmCrn33nudf/2TTz6J7du3O/cSujTSdYfuqRSTzEd5xRVXhNCLyN1FvzRF7rUZ6VlGAbD0NnN/bQV2/gY49pqlFHkDSP2RWSnbgRUfALJKRqprIT4J6FmOz+se6WfN+1LDKqZ3lfRsT4+f9hYBERhNQIJyNI9JfaJlcteuXXj00UfdmEEOxq6srHRjEriekV3p0nr77bc70ZiWlgZGPmVkOpr3mUqEgvOuu+7CRz/6USdKJ3VgVRKBmSSQZmM+6PqalOoF4jm9HTjwjIlMS11iKUew7A6AuSxVREAEREAEREAEREAERGACAhKUE4C52GqKx69+9av44he/6Kr5wXX4ix8FI91a09PTnZhkYJUf/ehHYG48bmMdbmfAEEZO5KQiAnNKYO1HgLz5wJbvAkdfBU7aWMoXvwF0W/Ce1Q8A+YoCOKfXRwcXAREQAREQAREQgQgmIEEZwsVhJFOG2+Z0qULxWFIi18FLcdL2OSSQaNbIBVcD130ZSLd7+sDTQMN+C9bzc89aufJeoGL9HHZQhxYBERABERABERABEYhUAhKUkXpl1C8RCCeBZEsXsuQWz/U10b4WDprr66l3TFC2Ab0W+ZVuscWX2dwC+qiIgAiIgAiIgAiIgAiIQICABKVuBREQgfMElt5q4ybnAZnFZqH8meWoPAzs+BXQesKzYFZbrkoVERABERABERABERABEQgQkKDUrSACIjCaQOlKL1hPhrm/7njYLJXv2djKV4DBAaDFhCVTjiSM3kWfREAEREAEREAEREAE4pOABGV8XnedtQhMQGAY4JjKkuWecKT7K91dmauSbrB95v6aYu6x1TdYWhGzYqqIgAiIgAiIgAiIgAjENYHEuD57nbwIiMAYAkGmx/wqYOPngJv+NxOYy8wqaduObwWe+Rvg0HNeDssxe+ujCIiACIiACIiACIhAfBGQoIyv662zFYGpEUjP84L13PU/bH6rub32A20ngZe+Abz6HXOBPT619lRbBERABERABERABEQgpgjI5TWmLqdORgRmgUBGgScqB3osrUguUPO8ucDu9sTlkI2rXPVBoHwdwEixKiIgAiIgAiIgAiIgAnFFQIIyri63TlYEQiTAcZUr7wHyKk1I9gEn3rYIsEeArd8DupuAtR8FFl7njbcM8RDaTQREQAREQAREQAREIPoIyOU1+q6ZeiwCc0eg7HLgrm8BGz5leSktcE9/F7DT0oq89PfA9p8DtFiqiIAIiIAIiIAIiIAIxA0BWSjj5lLrREVgBgjQUpm/AFj/SS9f5b7HzAX2BS+tyEAv0NsGrL4PKFw8AwdTEyIgAiIgAiIgAiIgApFOQIIy0q+Q+icCkUiAUV+zS4HMQmDYUo2c3GYRYF8HWk94LrFrPgQULJQLbCReO/VJBERABERABERABGaQgFxeZxCmmhKBuCKQke9ZI+/4OrDmfstfmQJ01gOvfRd4/m+BhoNygY2rG0InKwIiIAIiIAIiEI8EZKGMx6uucxaBmSLAyK7l64Fr/5O5wlYD235iVsrjXiTYvk4L1vMRYOltnjVzpo6pdkRABERABERABERABCKGgARlxFwKdUQEopRAUiow/wpzfy0COI7y8PPA2T3AXhtfyaA9Pa2eqCxaAiTIKSJKr7K6LQIiIAIiIAIiIALjEpCgHBeLVoqACEyZAMdM3va3FpBnEfDuvwN17wFHXrT0Ikc9gXn9VwCOvVQRAREQAREQAREQARGIGQISlDFzKXUiIhABBJLsK+Vyc3MtWgrs/q2lFPkN0FgDHLB0Ii0WsIfpRhgFNsnGW6qIgAiIgAiIgAiIgAhEPQEJyqi/hDoBEYgwAuk5wKLNQIqNr0zLNjH5B7NQ7gLaLWDPoLnE9rQAS2410bk4wjqu7oiACIiACIiACIiACEyVgATlVImpvgiIwKUJcKzkgmtMNNq4yXxzhX3jB0DbSS9YT8MBoNvGVa78gLnALte4ykvTVA0REAEREAEREAERiFgCipARsZdGHROBGCCQWQys+zhw3z8Di2/y8la2nQK2fMdSi/yf5hb7uxg4SZ2CCIiACIiACIiACMQvAVko4/fa68xFIDwE0nPNWnk1wKA8RRaU55C5wJ54x+bPAr1tlmbExlauMGtlsQL2hOeC6CgiIAIiIAIiIAIiMHMEJChnjqVaEgERmIhAon3VLLoRyFvgWSn5ma6vh/9o4yt3m7BsNxfYe0xwXmbjLm0MpooIiIAIiIAIiIAIiEBUEJDLa1RcJnVSBGKEAFOKXPMF4O5/AJbdASRb4J5uC9LzyreBZ/4G2P8k0Ge5K1VEQAREQAREQAREQASigoAslFFxmdRJEYghArRAVm4ENv81UL4O2PVb4MwOoPY1oL/bLJZ7gVX3Wp2rYuikdSoiIAIiIAIiIAIiEJsEJChj87rqrEQgsgmkZNq4ShOVeZVmpcww19cy4NR2E5WvAs3HPKtlXwcwbzWQVRLZ56LeiYAIiIAIiIAIiEAcE5DLaxxffJ26CMw5gdxys1T+JXCTubuuug/IKDYx2QS88zPgKbNg7n/K0o2cnvNuqgMiIAIiIAIiIAIiIALjE5CFcnwuWisCIhBOAgvMvTXLxCRdYd/6IVBnLrBn99jYym95rrArLGDPanODVREBERABERABERABEYgoAhKUEXU51BkRiFMCDM5TugLIngckJHnRX0++ZcLSRGX7GaCzAeg6Byy83iLBLgWSUuIUlE5bBERABERABERABCKLgARlZF0P9UYE4ptAZgFw1Z8C868Adv7KWPzOc3mteQ44/qa3bc0DQNnlNvYyzbYnxDcvnb0IiIAIiIAIiIAIzDEBCco5vgA6vAiIwDgEyiwYT/ZXLHflLcD2HwMH/wD0NANv/wg4YcJy2V3AlZ+xOqXj7KxVIiACIiACIiACIiAC4SIgQRku0jqOCIjA5AnQ7TXHIr+m5wMpFgW2xNxhj7wIHNsKHH3ZxGUb0HEWWHqrRYu9BsgsnHzbqikCIiACIiACIiACIjBjBCQoZwylGhIBEZhxAinpZqW8wVxczWKZNx9IzQJOvws07POC9jTst6iwZrlceB2QW2FjK80NNsGCVyfIFXbGr4UaFAEREAEREAEREIFxCEhQjgNFq0RABCKMQIaNrdzwEFC9Gdht4yrp+tpZ71kt6/ealfJab3wlLZYUlBpbGWEXUN0RAREQAREQARGIVQISlLF6ZXVeIhBrBBiEp3gZsP7jFul1iTeuksF6Go4C/V0mMM0F1lxiExa/D4N9PUjMYMRYpdqNtdtA5yMCIiACIiACIhBZBCQoI+t6qDciIAIXI0BX1oJqb+IYy+wSs1LamMqmw0DNC0D9PiS21aGgq8y8XzdieMDGXqYwGqyKCIiACIiACIiACIjAbBCQoJwNqmpTBERg9gksutHSi1wFLN8GbP2eRX+1vJWWqzJh58NYhmwMJ9VhuGEhhkuXIcGlGJn9LukIIiACIiACIiACIhBvBCQo4+2K63xFIJYIpGYClSYq3/91c3fdAux/EjjwNLKHz2G49ikMdx5FwmXvN9F5twX2WRNLZ65zEQEREAEREAEREIGIICBBGRGXQZ0QAREImUCKicpSc21lTkqbBrPLMVj7OhIsEmxKy/Ne8J62UxYt1iyaZWuBwsVAoqUlUREBERABERABERABEZg2AQnKaSNUAyIgAhFBgLkoV34QQ1U3oOHZ7yK5B5g3dNrGVx4Bzh10lksXKdbqYN4qC9hjolLCMiIunTohAiIgAiIgAiIQvQQkKKP32qnnIiAC4xBISMvBsYIbkHL5IpQW9yLh3Z8DdTuAlmPAW/8KHHoWWHwzcIWlIWHUWBUREAEREAEREAEREIGQCUhQhoxOO4qACEQmgQT0JGVjsGA5hldUISHHXGGPvQ4c5/QGQPfXjnqbLM1I1XWWw/Iaz2IZmSejXomACIiACIiACIhARBOQoIzoy6POiYAITJ3AMBIHe82b1dKF5M+36X5PNO5fbilEsoDGQ0B7nVkrf+gJTLrArrY6+QuAjAIgKXXqh9QeIiACIiACIiACIhCnBJT1O04vvE5bBGKfwDAwNOSdZm45sOETwIM/Bm76LxYZ9mqAqUQaazw32N98BnjlfwCntsc+Fp2hCIiACIiACIiACMwgAVkoZxCmmhIBEYggAsMmKEdKglknM7xp1b1epNcTtwAHnwFOvwOc2QsMWhSfhgOW23KDjbG0bZUbgVSzaKqIgAiIgAiIgAiIgAhMSECCckI02iACIhCTBHLKAE4V6wFaLg9XA/V7vGiw+57wxlo2HwdabaxlhYlL1qErrIoIiIAIiIAIiIAIiMAFBCQoL0CiFSIgAnFBIKsEuOrPgBX3AEdfAbb9xKyV7wJ9bcDuRy0a7B/MWnmVRYP9tBcVNqs4LrDoJEVABERABERABERgKgQkKKdCS3VFQARij0C2RYFdeitQstIEpY2hrHke2P+URYO1wD39r1oAH8tlue9xoHqz1Xu/uctWxx4DnZEIiIAIiIAIiIAIhEhAgjJEcNpNBEQghgjQpZVTwUIgr9KmKstd+Z65wtrYyhMmMs/a/JwF8GkxV9iKKyzNiInPfKuTkhlDEHQqIiACIiACIiACIjB1AhKUU2emPURABGKVQFo2sOR93sTclbt/a9bKJ4GuRgvcs9MTmfkmOpffCay6DyhfC6TlAgmJNlngHxUREAEREAEREAERiDMCEpRxdsF1uiIgApMkMN8skQXVwOUf8cZTHjA32BNvAs1HgR0Pe+Mu511uYzDv9gSoxlhOEqyqiYAIiIAIiIAIxBIBCcpYupo6FxEQgZkjwDyVjPDKKTMfKF7mjbFk4J5TNh23dCPNx2ys5UmzXO4wa+U6L3Js4WIgUV+tM3ch1JIIiIAIiIAIiEAkE9BbTyRfHfVNBEQgMghQTHJa8QHgwP+0tCNPAyffAnpaPEvlsS1A6Wpzg/0TL4dl8WXmCpvj5b2kO6yKCIiACIiACIiACMQoAQnKGL2wOi0REIFZIJCaBay+36K93gY0HPTGWNIVtuGABe2xz1u/B+z8tWet5BjLRTeZ+Jw3Cx1RkyIgAiIgAiIgAiIQGQQkKCPjOqgXIiAC0UCAgXeSUs0FtgiovBJIt4A8VdcGXGDNSnnCrJanLSJsRz3QesJSkPwRKFtrda6xuY23pButigiIgAiIgAiIgAjEEAEJyhi6mDoVERCBMBKgsJxnbq6cqq4zl9glFsRnkZdqpOMswCixx94Aimx94yHLY3mD5xbL4D1ZhRYVNimMndWhREAEREAEREAERGB2CEhQzg5XtSoCIhBPBPLmA1d+Flj7MS9Az97fW7oRG2vJvJVtp4DtPwF2PWLic43nMrvsDqDQxKeKCIiACIiACIiACEQ5AQnKKL+A6r4IiECEEKA7bGomMH+DN26SAXwYEfbIyza9aMLyNNDbDrTXAfse98Tlwus9y6VSjkTIRVQ3REAEREAEREAEpkpAgnKqxFRfBERABC5GIDndrI+WOoRTyQrPDbbEIsTW7zPX1xoveM/pXTbucpstWzAfrqfbLC2WeQuADEtRoiICIiACIiACIiACUUJAgjJKLpS6KQIiEIUEsku9VCJMJ3Jmp6Ucedqsk0+aK2ytWSs7gMMveOsKqr2IsCvvsVyWV5iF03JfmsETiRxnyQUVERABERABERABEYhMAhKUkXld1CsREIFYI0BrZa6NtVz9gInL3UDtKyYozRW2fo9ZLg9bTstWC+LzGpC/0NxmTVQufb8XQTYlI9ZI6HxEQAREQAREQARiiIAEZQxdTJ2KCIhABBPw040w5Uhuhbm4Vps1cj1w1tKMcGqw6cx+L6clXWMpMo++am6zy70IssXmNptmaUpUREAEREAEREAERCCCCEhQRtDFUFdEQATihEBqlolJC97DiYF6TrwJHHzWrJZmoWTQnp4WgJFi99jEtCNL3wcsudXSjqyylCMlQIqN0+RYzYTEOAGm0xQBERABERABEYhUAhKUkXpl1C8REIH4IJCabeMnbwQqNwLdzcDxN0xcPgPU/BHobACajwI7fg3s/p3nDrvA6i25DWCEWEWHjY97RGcpAiIgAiIgAhFMQIIygi+OuiYCIhAHBJhuhO6wnNLzzK01x7NKLrvTxleaC+yZHV5uywYTlq1mvWT6EbrIMs8lo8fOuxwoX2uBfMriAJZOUQREQAREQAREINIISFCGcEV6enrQ0tKCxsZGdHV1oa+vD+np6aiqqkJ+fj5SUlIuaPXcuXOor693+w0ODiIjIwMlJSWorKxEUhIjOaqIgAiIgBHgGEtOtFi211t6kbctWM8Wy2lpwrL1hFkxm2xs5cueBZNBfhbdYNZKm8rWeGMz0/M9YZqcJpwiIAIiIAIiIAIiMOsEJChDQHzixAk8++yzePzxx1FTU4Pa2lrMnz8f3/jGN3DHHXc4oRjcbG9vL37/+9/j0UcfxZtvvgkKUgrJe+65B1/+8pedEE1O1qUIZqZlERABI5BTAqy4G1h2B9BlQvKk5a489AdPTLad8sZaHjD32P1Pee6vZWappPvsopvMammWS1o9VURABERABERABERgFglIxYQAt7W11VkmaWFcv349nnzySRw9etRZKoeHh0e12NDQgOeffx7f//73nfXyK1/5CnJycvDWW29hy5YtOHPmDP7bf/tvWLXKgm2oiIAIiMAoAoEclIn2Vc2cltVmiSxeCqz5sEWDNXfYU9ttzKUF9Dm7yz6bSyzHYJ47aALTcl3mLfBcYZnXktZLBvNREQEREAEREAEREIEZJiBBGQLQgoICJySXLFmCtWvXOlfW48ePj+u6evDgQTzyyCNOgNIi+cUvftEJytWrV+OnP/2ps1zeeeeduOyyy8Z1lQ2he9pFBEQgVgmk55o7q01MIcIIsfNMKHI6u8cL3sMIsS3HbdzlPoABYLmt4j0TlutsvOUKzyWWwpTiUi6xsXqX6LxEQAREQAREIKwEJChDwE0hyckvRUVF4LjI8cqhQ4fw8ssv47Of/Sw+/OEPo7y83FW766673D50m922bZsTqOvW2UufigiIgAhMhkBato2dvM6bBvu9/JVHXgQO21RvArPznAXwOWlC84ilH/kPIKMAWHCN5w5bZfOiy0ycWgAgFqYfUQoSj4X+FQEREAEREAERmBIBCcop4ZpaZYrMU6dOob29HbRILlhgLmhBpbS0FCtXrnQWTo7DDFVQJjBKZASVSOtPBKFRV8JIIK7uw6QUs0AuNwuk/WC18k9MSNr4ynqLBHv8dcttuRVoPGQBfk4DR16wiLHvAu+YuMytMAvmagv+c5UXACi/6oKrE8wwePmCilohAmEkoHtx+rDFcPoM1YIIiMB5AhKU51mEvMRxk+N9OTc3N4MTt5eVlSE311zVggojvTKYDwUno8CGWnjsxEQvwbk/D7WtUPfzj8u+jMci1HbjbT+fnT+Pt/OfifMNvgfjiiNFpR8htmAhUGoCc95KG3e5ycZV1ngusU1mraTFstGm+p2eJfOMzWtfBQoWY5iiMq/S5tVIyC7GYHIqBhNTMZygPxXTuTf9+9D/npxOW/G6r88wXs9/Js/bZ+nPZ7LteGxLHEO/6v53ohiGzjBS9tRbwixeCaYU6e7udmMrMzMzLxhjyQcpKyvLiUlGfr1UYTAgCtS2tjYn2vwHcGBgAE1NTW53pjNhGhJaR8cGCLpU+6FsD+6D7/br94HthaMPofQ7kvbxGXLe2dnputbR0QHeMz4/fx5J/Y60vvgc+Txw4ue4vRft3JGQbm6tZn0svRYJPa0WwOddJJ58Ewkn3zbv1j1I7O9AUkczEltfRKJFiU3g2MyipRiqvBbDVeZKa9bLweQ8pPY2YbhnCG2tLTYukymOEgL35bB3C4wJRBZp98Vc9Yf3H59bfs/z7wALfzxkRG+u1zM9uSvjP9eMlj40NIT+/n7wb6G/Xhwnx5G1yIwT303Ikkz5PkGGXC+Wl2bpc+Kc/MjMZ8hlMbw0w+B7ke88ZDYT9yKvCQvfgdme/9mt1D+zTkCCcpYR+zf0RF8yE60fr1svvviiC+TzzDPPuJcU/5cd1uVDuWLFCrz++uvOEso/FlNpe7zjTXUdj8nC6LUqoRHwr9nevXuxf//+sF/D0HodeXvF/b0Y+MNK8efK8BASbJzl8OASJORa7tv025DfdRSFnYfclNdVi5S+TiQ0HEASg/rsfwwDqXkYSCvD/JT5aM2+DO8016ErpQSDCUlIGB4AhmzcuLXrpsi7BSKqR3yuOe3cuVMv7tO4MvzRki+Kr75qFnWVaREgy7q6Opw9e3Za7cTzznym+bfmnXfeiWcM0z533ounT592WQ+m05j/vs13Y6b3Uzq+6dCc+r4SlFNnNuk9aH1MT0931kL+Qs2Hhr+c+IVfRPylMDU1FXR/vVRhJNj777/fpRjhA+M/PGznF7/4hdu9uroajELLdb44uVS7M7Gdxzt58qTrE3Ns+n2bibbjpQ0y4y/vTCVDF2mmlwnnNYwVzrwX+ceEzxpdynUv8sqasKR1kRMFIYaQ3t+CjP4mpPY1mgWyAYMttUhoPOBEZUJTDRJ7TyEjpQaV2eUobN2DjjMF6MuYhyG6xRYuMWvmIgybeyzSLLDPkAUFosAcotDkD0sB62Ws3FTTOA/ef/Qg4bCGioqKUZ4H02g2rnYlQ1om+Vzzbyq/H/Vch3YLkFtfXx8YmT47Oxvz5s0LrSHtBaaF499svvPwvtTf66ndFLwX+QMRn2u+7zCuyHQK2+M14N/+/Px89x48nfa079QISFBOjde4tf0/bJwHWw0p7AoLC90fPv4SSLcIrvMLRSZF2LJly1BcXOyvnnDOwD6cxit79uzBgQMHnJUyLy9vvCqzuo5imS9MfJBpKQ3mMKsHjrHGeT9QUDKAE1+aVKZOgPci/9DzhxoGvfKfz6m3FPt7UPb58m+4ySyTdZZi5LQF7bG8lomtJ5DW247hriZktu9F8XAf0GXiMcFSlmSai/2QuenbsE1kW3CfVIs4m2bfO6lZJlq5UiWYwOHDh933Y7X94Me/CSpTJ0ARxO9GxiJQ3uap8wveg+8etAjxfYTfkSqhEaB4oRv70qVLnTgPrZX43otGldm4F/lOzXcBlfARkKCcYdbBv1BRVNFCwj+AdGG88sorRwnK+vp659a4efNm8EUj1MKHhlYZluDjh9peKPsFHzd4OZS24nkfsZv+1fcZcs5JgnJipma3xIjPRIFFoS4wi+PKu4F+E4vNtRg49gaad/4BKRbAJ3+wHhgwSyRzXNYfNGH5qOWyTLUgPmaxrLzaixY7/wovR6ZyXI6CHnxPjtqgD5Mm4DPkDnquJ41t3IrkF8xz3EpaOWkCYjlpVBdUFLsLkETtCgnKEC4dxRuD6NBUT7HIX/v4UDCQCoPmMJgKC11eaX28+eab8cQTTzi31pKSErfPK6+8gp///OfuZfeqq66a1i+ukfbCHGn96htGVwAAQABJREFUCeESa5cYIKD7cIoX0TwsTCXa/xYxmjkuLULsUGo+jtQnmxHy/civMu8KRotlOpKzu21uwrLDLJUu36WlJDm+1Ysym21uSwWLXIAfFC+1+WVmxZyeK9MUz0TVY5yAnu3pX2AxnD5DtSACInCegATleRaTXqLP/FtvvYXXXnvNiUYuU1Q+/fTTqKmxMUfmT7948WLceuutTih+5CMfwbFjx1x9ilH6im/bts35jT/wwAPYuHFjTA0e1i9Ok76VVHEWCeg+nCZcG2vJMZLNWUswXFiE4ctXIaH1FGCBe5yo5Jz5LjstqEeHWS8bTWyesOAU9KMtsHyYFjHW5cYsNhfZfBOYOebCnZkPZJgwzTC3z5RLjxuf5hlo9xglwGdbgmh6F1ffj9Pjp71FQARGE5CgHM1jUp9ohXz22Wfxj//4j65+SkoK0tLSwOirTz75pBtYfPfdd7vxjgykc9999znr5SOPPIJ//ud/dtbNqqoq3HPPPfjyl7/sxstN6sCqJAIiIALhJDDQi+ShXiT1WzobCsW8+d609H1eLygwz+wwIfkWcHK7WTDNFbarwXOZrbP8lhyPyWA9FI8M5jP/SqB8HVCxwcTmCi+gT2LgzxAtpL6VNJznqGOJgAiIgAiIgAhMi4AEZQj4GKmPQvBDH/qQ25uhiTlekmMZOTEYCCNMcfwkCz9TVG7atMkF5mEdRnUtKipCeXn5qMivbgf9IwIiIALRQCDXLJHpFoyHAvGKbhOTjUDLCbNg7jG3WE7mHktLZqe5xvZ2eBbNIy95QjLdrJUF1QFLplkxacnkJMtlNFx59VEEREAEREAERghIUI6gmPwCw0NXV1e76VJ7+a45jOyn6H6XoqXtIiACkUuAJkqzIgYXf7wlx1yyFC4GytbatMaE5XEL7GMT5+2nTUxyMosmrZrnDpsV0+rn2H55FgyI1ktOXKZIzbZUBlklNreJ87Rc17z+EQEREAEREAERiDwCEpSzfE00zmOWAat5ERCByCLACK++tdHvWbuNs6TVkm6wdeYiS9fY9jpg0FRl17nzlsvBPk88lpilsnSlTZYmiXO2x7GXSamWlsT+bCXZxPQkzKupIgIiIAIiIAIiMKcEJCjnFL8OLgIiIAJxQICWxozrLbXIRk9E9pn7KwUlI8W6qLHmGss5rZi9bZ67bKNZMQ89Z6lJ0r2JFszi5QGxutTml3kW0TjAp1MUAREQAREQgUgmIEEZyVdHfRMBERCBWCBA11hfGPJ8Mi3KK91bOYaSgXo6LUpshwXzaT8TcIu1cZjOZfaYuc0eBcxwiXOHPKFJd1imIXHusJzbZ0aQzTFXWTevsPbNmqkiAiIgAiIgAiIQFgISlGHBrIOIgAiIgAiMIsCIrk4cmiAMLm1muWzY77nFMqBPk1kqO01s9pjlktFmW21MJq2Z/d0WQdZ2zCk+n/eyaIkX5Cd/oSc4Uy0ncBItnGkW7Cdg6aS4VREBERABERABEZgxAhKUM4ZSDYmACIiACEybAK2MtEAu2mypSiwQEMdVUmSeM3HJyLEcf1lvgrPFLJddFj22z0Rmwz5vvUXbdoGDKCAzS8wt1lxjS5aba6zNKTYZNMhya3rpSabdUzUgAiIgAiIgAiJgBCQodRuIgAiIgAhEDgFaLhOCgu0kWfCdYhODdHFl9FhaKjnOsrvZ3GTNVdZ3jeW8xVxkOW81oUkRSmsmc2EyRUmGpTdJs4nLdI9lNNlcc49lbs0cm3NdsgX9UREBERABERABEZgSAQnKKeFSZREQAREQgfATMJHJfJecggstmCNC8sR5QcmxmBSdPa0mPFtMWNq2s7vMmjlgVk9rIMfGWFJIupQlNpbTpSuhsDT3W4pOpkFJzfKmFM7NdZbRZVVEQAREQAREQAQuIKC/kBcg0QoREAEREIGoIEBrZsFCbwruMIUkXWMbbGIwH47D5JyRZfvaPVdaikyK0VpTmMMcjGmFrrJsr9AsonSPZdAgfuaYTIrOlAyznia6qufdZmlRtUlFBERABERABOKUgARlnF54nbYIiIAIxCwBWjLLLvcC9DB4D6eBXs9q2WE5MZtrbTrmWTQ55+fORrNo2njMXhOcTUcD1kmzTNI6mcLJxGSWje2km2yuWTM50crpPpvYTDbX3IkKXXglOieio/UiIAIiIAJRTkCCMsovoLovAiIgAiIwDgE/TUnGmBQiQ4M29tJcYttNWHIMpr/cec7cY23sZZfNGezHLTd7orOnz4som27CkKLSpS0JmnNdZpGN07TxmRSzaTk25XpzG7s5PNiLoYQUDNN9VkUEREAEREAEYoyABGWMXVCdjgiIgAiIwEUIJJoo9C2MY6u1m8CkeyxzX9JqSZdYzhngp7/DIs72m7C0cZhtp2ybrR+05SFbx0i0tGJm2RjMgirPPdZZL82CmV+J1KZ+ZPd0IKnN2kuzOqCbrLnO0nLJ/rg5XWnlOmsQVERABERABKKMgARllF0wdVcEREAERGCWCGRbTktGgy1fGxCKFIxm0aTLLC2X/rjLlhOe2GRU2daTnpWzr8uEpS13mSg9s9OEornAJlnUWItSO9+GaJYOJyK1wSLJmsD03GTNdZbRZZ24tTkFKN1qVURABERABEQgyghIUEbZBVN3RUAEREAEZokArYYMzANOY0phteW0XPb/s/ceUJYc5f12TZ7ZnCXtrqRVDosSQpKRCBImyCaDwdgkgyMOh2NjjnE4tr//MfaxjeGACc6AAZtgjIk2mIwlkJAEEkqruBKr3ZU2SRsmz/T3Pm939fTtuTM7d2buzL13frV7p7ordfVT1dX1Vr1VbaqwpgbLzrH8BrE5t1+/rcFkHeYxEyhzldkDITm8O3Ta+s1OJiAP3x+SvStDG2q4qMdi+ydN7Nh3scUtHptgi9qsu9txtCV0lgpGpyIgAiIgAotNQALlYpeAri8CIiACItAcBHxdpAl57PpaNkOmEsts5WF+piLL2kyz247sDkMHH7HNZfeFZd2doSPYrOfIYLp+E5VaNgvyn01jmvZrWLbO1miemK3TtG9vrjAV2eK6TdRqey0PCL58o9NnQpkNtdd5PMZGlVZGBERABERABBaAgATKBYCsS4iACIiACLQ4gR7bcIcZzA1npp8l4YOXfCfTdnfdc+9d4d4ffT9cdvbmsKbTVGMPmsosgucTj2RCqNmo1CJYol7rqrQWhp1hfa2lTW9GG4x8I9M3BjLBc2X2QwhdaSq1fp4JoexQKyMCIiACIiACdSYggbLOgJW8CIiACIjAUiCA8JcJgKXbHeldH/p7TwhjJ15kayVNyNtinyYZtk+UsO5yBJvPlRxOVWXZbRb12aq/x03otMTtMi50Ilh2r8g+cWLHPYXjrl5bk2luUVUW29VpUauNKrSo12Y/0pQRAREQAREQgVkQkEA5C2iKIgIiIAIiIAIzJdA2OmgyoElsCH8u4JU+ZRITYgdZdpr1T5dEodIETNZmRgGT72SOIIjaTKbb2TEqtgez41FLx/YSCqzb7DHBEjVaX7dp1/VjO1/GOk7cMz/yxYymf24FdVo2FLJfZ2bH82jru5qx1GSLgAiIwJInIIFyyVcBARABERABEag7gcTWSCIwTmfa7ZW8mh1f7TeVYVaTWUxbmxmO2FrNIyZI+s+OWbvJMRsDMfPp1zNBNs6CskutG9RxOfA/ZlneUKlFuFxuO90u35jay+wYAZRvbEabMFEoRUBuZ2qzPL1ZOM8P8wPPgf6IgAiIgAi0DgEJlK1TlroTERABERCBVifALGLXVltDaULfpvPSdZd8B5MfazCjzewlO9H6zOZBO7ZfnOXMd6E1N4TTocFUtrRvZbqQ6hv+2CxlcXbS3YqzlbbxD7OZrjKLOi1qtFGFlmPbOAgV2x6O+a1Md62dbfkg8E4SXGebmOKJgAiIgAjMJwEJlPNJU2mJgAiIgAiIQL0JIFzx+ZDjfUKETYH4tMng4XSNpttPVJ4P2nlUo/V1nTazGe3RTIWWWVGE0FzV1m7QJjVTlVrbTdZ3v0VgzIRGt232Mj+347jWk3WfrlZrwihCai68ZseTzi2crQdN7F7G2jrDWIfdt9Rt613DlL4IiIAI1ERAAmVNuBRYBERABERABJqEAIJXXDt5vCwP25rM/n02Y8nPZi35Mavp39jEtp/PbB5KZzqZDUWqHLdfYgs2x+z8mKWBGi4qtLhFPz/PwrowzMxmnLlkVjM7jt/gzGc1zY+ZT7uHtrbe0Nf/SOhZZmrD/babbXs2Y+nCpd1nbpt7foyabebnbtHveDDkLwIiIAIiUAsBCZS10FJYERABERABEWhFAt0289e5Jf3syDjCoP0QCouCYXQbM6GOWUxmP3OB0wRNjv2H8Fk4xo2Z0MTiIWSOm2otmwohvLJutM1mOflupv9K5zYriXu3CaKXDw2HdlR+77C1nT4rms18MhPKzKfbzJIW3e04njNLShi+2SkjAiIgAiIwbwTUqs4bSiUkAiIgAiIgAk1MAIEu2A9rJoaZR9Rg/fMnBfXYfPfZkp/tdhtGTZBkNtTDoF5LvGK4eGx+AwienA+FNpNt+2wJpxvbcyh0oSKL2myqEpuqz3KOKnDmXuEf3bJ47FaLyrCHiWlh268DO1sv6uel49wtC5dlS5YIiIAILFUCEiiXasnrvkVABERABERgLgRQX/W1kTbzV4thLaev3Sza9jkUvsWZuxfXfR4O4+Y+cPSwybrjobfbNgRiB1ufPWU2lRlTEzxZC8pxPsNaOHb3uLutZRZt2B6b1eyOM5rMcDKzaXYXGx9lP98EqXTublm43N+E0w7LF7OtcCn/UNGtcCMD0Q213PJxyb8WvscLi/qvX49ryIiACIjA3AlIoJw7Q6UgAiIgAiIgAiIwUwK+WY8JbwmfR0HI4/Ml2Q+rwi09H+k/Fm657hthtU0WXnDWKaEN4XHYfoOZzfmQzWgilPox5/FXcGeG1D+TYsIUQuaQqe0OW5yKtZYIXAhbNdrMbCKIIqhiu3BqxwidHOfCKjOj2exo3Fwp2j5jan7xPM6iYvsMMjzmakx4tXtLXKqea1qKLwIiIALWpAmCCIiACIiACIiACCwYgVxYq+GKK5eHgZ5N9vURE8y2XGibADH7yKdSRlJ7zGz/8QmV7Bj/eOyfVjF31G5HUL21Gc0KVVtUcTM3NhzycOZWtPO4pIEf17d7MM1fl82QQV1r2A6YrWy3H7b/UJuNbtb1Yu0o/m7bsftF99I5az59LWnmj8ptrnZr6cbjqKaLYItKr/+y63Mt/Du7QvvgSFh19P7Qd9ju4YAJu+Qhzxvhs7ziJjMlgcRmefn5bO+UoeQhAkuDgLUiMiIgAiIgAiIgAiLQwARGbB0lqqzM0vks3hzziqA5kq3hZIMhFy4z2wXOTGh0wdEEL3fDLh/bOcKqq98i5GY/F3iL53a96IfAmofPVHaL6rtRZRdBlRlb7GgQWpHzfIYTwRHhkvWhmZDJ+tHohmCYC5kTx53jbWHrvn1h2eBam+H9YSpMRgGU8O0TYSeEYdwRaBGgUOtl9rag3ltW6XV1XsJMpcob/bihchjOy/6c2w8eRHGTH0SHSvepvCcSyJKZKmAVd5zIg91vm5V7+ziDF1b+wQRz3804TbLirydTJS0PVHAvHBZusiIpnYhAoxKQQNmoJaN8iYAIiIAIiIAIFAigpGm9eVRkfZaz4FXrIbNvHfZZkl77zcUgXCBQuFCKgIpQar+hwjFu+c9mQVG7jbOdCLK50JoJqy60EobzLGy1PMLB07IwNRg6fqcS/lGLf18pIvdTzSDsIEC6sJoJsmyMFIVXF2hN6OS8OMOJcOqs4W1X9pnQgpvP0uJXcPNjhFfcs5+Hs+uTv7zsLVMueJqb57t4XjrmnvweCFvym5QGYS1MOVxMg4RMoOw+8nBYPrgntB160MrB1uJSHnk+8sDZdbP0cmc7Jx2smLFq+cj9snCeryxK2Y9zT9YTTfNSkX7xWqRRDOcR04RjnPK1onu8jt8raVYxHtYGBuJAQ5UgcmotAhIoW6s8dTciIAIiIAIiIAILRYCOs6uSmkCUmHAaZxqjHT+1UmHblCOzWdHNZ7biecGOYXL1XlR1UcfllwmaHDN7yndA3Z0w8WeCLsIuP/z8eCSMW/jBY2xwNBZ6OuwGcj8L52rChGdG1e4NoYGfCwiZbXJCKrhEgSGbqWT2OJ+RLM4ychx/llB+bG4unES/ol0K58JPIRPx0FKYMGVH0pjwrTwqeOSH+UEhaMnNT1O3LYODYePQUOjbx6doMmE3xiyEi06VdpZuZlXPqHnm/jH2JAfzKLgVDmOMCv8JR3OuGrgyvWJ4P7Y4U0WLYZn9Z73wmT8ZwlnXhrDx7Ogju4UJSKBs4cLVrYmACIiACIiACCwQATroca1jvS6JkEmHvSgEspYzCo5uI1zihlBov6Jt3wIdtQ2Odt5zd1i9oi9sOWlTJjwS1lR0CVsM72q6ppabC8hRjTdT1cXf/XCP6rsFobhCaMaftAr+xOV6MX0XrglnYXCrCGtuucmmx6Kw66eZWzpNmIaMTn5WPLHj4mmebnYwlV/Bvc9kyD4E8gPmWMzaLNIqR5lV3iYlskgOVmzBNK999n/r5YuUCV12oQlIoFxo4rqeCIiACIiACIiACMyGALN7cb3kbOJbnJGh0fDgkW+FLVs2hy1POu/4qSBE5TOgzHTG2dDM5jx3ywTZXCi1c4TaXFiNgm5BeM3DEi77MSubzaimQnEmuLpAxx/75cfZLVTbLRgvD1c4yMPhl6WVp2duzMBNcud69nM/0jItZvs+6sjIcOjr7TPNTvPwOPjkF6x0i/552oWwHoU/9qs49hMCmin5FTOTBqj+t5hE9RDTuM4iMuXJTs6rNqe7FU+Turxah4AEytYpS92JCIiACIiACIiACExLoM2Eu3abqcSekUGIikIswhCzhi7cIGxwXrDdD+fMLfcvuFX4mXseJqY1nZv5FYQ6Qk4YrjlTUwpbOq1MpYqnzUY/dM89YdeuXeGyyy4LK1Zmayi5l6IpnRa9/L4rHY5zZokV04sccp4xegxH4GrHxXAxQcIVjgnip/zBLzr4ASfTGAvDettl6+y3YZpw8molAhIoW6k0dS8iIAIiIAIiIAIiMB0BVytFpXQ6Pc0pEnC1XhMWZAKb5B4+2BnGNz3JZuQERASWNgFWRMuIgAiIgAiIgAiIgAiIgAjMkECH7ebbOdYf2oaPzDCGgolA6xKQQNm6Zas7EwEREAEREAEREAEREAEREIG6EpBAWVe8SlwEREAEREAEREAEREAEREAEWpeABMrWLVvdmQiIgAiIgAiIgAiIgAiIgAjUlYAEyrriVeIiIAIiIAIiIAIiIAIiIAIi0LoEJFC2btnqzkRABERABERABERABERABESgrgQkUNYVrxIXAREQAREQAREQAREQAREQgdYlIIGydctWdyYCIiACIiACIiACIiACIiACdSUggbKueJW4CIiACIiACIiACIiACIiACLQuAQmUrVu2ujMREAEREAEREAEREAEREAERqCsBCZR1xavERUAEREAEREAEREAEREAERKB1CUigbN2y1Z2JgAiIgAiIgAiIgAiIgAiIQF0JSKCsK14lLgIiIAIiIAIiIAIiIAIiIAKtS0ACZeuWre5MBERABERABERABERABERABOpKQAJlXfEqcREQAREQAREQAREQAREQARFoXQISKFu3bHVnIiACIiACIiACIiACIiACIlBXAhIo64pXiYuACIiACIiACIiACIiACIhA6xKQQNm6Zas7EwEREAEREAEREAEREAEREIG6EpBAWVe8SlwEREAEREAEREAEREAEREAEWpeABMrWLVvdmQiIgAiIgAiIgAiIgAiIgAjUlYAEyrriVeIiIAIiIAIiIAIiIAIiIAIi0LoEJFC2btnqzkRABERABERABERABERABESgrgQkUNYVrxIXAREQAREQAREQAREQAREQgdYlIIGydctWdyYCIiACIiACIiACIiACIiACdSUggbKueJW4CIiACIiACIiACIiACIiACLQuAQmUrVu2ujMREAEREAEREAEREAEREAERqCsBCZR1xavERUAEREAEREAEREAEREAERKB1CUigbN2y1Z2JgAiIgAiIgAiIgAiIgAiIQF0JSKCsK14lLgIiIAIiIAIiIAIiIAIiIAKtS0ACZeuWre5MBERABERABERABERABERABOpKQAJlXfEqcREQAREQAREQAREQAREQARFoXQISKFu3bHVnIiACIiACIiACIiACIiACIlBXAp11TV2JO4HR0dFw4403huuvvz7cddddYWRkJCRJ4r+2trbQ29sbnvvc54ZXvOIVIiYCIiACIiACIiACIiACIiACTUNAAuUCFBUC5S233BI+9KEPhTvuuCNs3bo1dHV1hbGxsYBAuXz58nD22WcvQE50CREQAREQAREQAREQAREQARGYPwISKOeP5bQpIUBu2rQpbNy4Mbzvfe9ze2BgwOO0t7eHlStXThtfniIgAiIgAiIgAiIgAiIgAiLQaAQkUC5QiaDiiuC4YsWKcP7558/rVZnlbCTTaPlpJDbKy8IRUD2cO+siw+Lx3FNemimI4fyUuzjOnaMYzp2hUhABEZggIIFygkXdjwYHB8Njjz0WPvaxj4V169a5gLlhwwZXd53LDCUvhvhyiHbdb6Z0gXjdYl5KQXQ6AwKR4wyCKsgUBIoMi8dTBJfzNATEbxo4NXiJYw2wpggqhlOAmYVzZBntWSShKAUC4liAUeNhZBftGqMreAMRkEC5QIXR2dkZ+N17773hLW95S+jo6Ahr1qwJ27dvD294wxvC0572tOOqvQ4NDQXUZIeHhz3X8QFkjWZUn0VoZRaU9Znj4+N1v7tiHrge1yUv3B+GmVmZ6QlEhtixbLH5RX7Rnj6lpe0bOcZNr1QXZ18fYMmP9oS6F1miZYFRfTw+21gfsamTGNpwPdfHZ1cMUa0uUi8jX9XFIq3pj8ss6TtQJ2GIn1hOzw/fyAkbfhjqY3d3d85PHB3LlH9gh8GO75j5qIsxXfqfpBfPp8yIPOaVQJtVfPX45xXp5MToQHzta1/zHV5pvNmUB+GLDXq+8pWveIRXv/rV4a1vfevkyAWXL33pS+ETn/iEp0XHrti5e/jhh8O5554b3v72t4fVq1d7+gtVtDy0XIt7w/T09BRyrcOZEoAjjSD1hZcTAxALVYYzzWOjh1NdnL8Siix54dPWUCdlaicARwRKfrSNdHb0XNfGUXWxNl7ThYYl/Q/e19RF9neQqZ0AHHlX885mp37aSD3XtXGc77pIehjK4h3veEe49dZbw3e/+91w6qmn1pYxha6ZgLFv0wxlzdhqj4BgwLrJbdu2ecOzfv16b9AvuOCCsHbt2vDud787fPWrXw0vetGLwhlnnOGCRLWrEO+8887zER0enKJAeezYMY9CevyYUVioxo288ILat2+f54nr4yZTGwGYUY68pFCB7uvrW7AyrC2njRtadXH+ygaWtCM813Q6UdOXqZ0AHI8cORKeeOKJsGrVKhcqF6ptrj23jRkj1kWWjDCwobo4+3KCJUIQLBngQFNKpnYCcOSZPnr0qA/i00bqua6NIwwZaOMdMx91kfQoAwZKEPJVHrWVx1xDS6CcK8EZxEfwqzZC8uQnPzlceOGF4Rvf+EbYvXu3j6SceOKJ3jhVS/aKK64I/MoGYe4lL3mJq9NefPHFLlCWw9T7nEaB72zyIHNf2DK1E2Cm+dChQz6wcNJJJ9WegGL4C+q6665zIUh1cW4VglmM73znOy4IwTIOYs0t1aUX+7777guHDx8O55xzTmBgUKZ2AsyUUxcRgC699FINWtaOMI/BwOW3v/1t323+oosuyt11MDMCCCoIL2iZscSHCQMGi2RqJ4BAznPNVxDoD8+XoS/NgKjMwhFIF8Qs3PV0pRIBZi9PPvlk/xYlQiWC2VwMjdximOJ1i8eLkZdmvmZkF+1mvpfFynuRXfF4sfLTzNeN/LDjcTPfj/LevARi/VNdnHsZiuHcGBbrIinF87mlujRj14tdvdJdmqU0s7uWQDkzTnUNxWgho1wIl3oI6opaiS8hAnqWllBh61ZFQAREQAREQAQWjYBUXhcAPSqprFdAYEQtAhvT398fUIW65557XEUUdahW2NBGeusLUKl0ieMSUD08LqLjBhDD4yJSgEUgEFUOF+HSLXNJPdstU5S6ERFoCAISKBegGFiH9OEPf9g3Wrnqqqt83QKqrTfeeGP44Ac/GHbs2OFrIK+55hr/5McCZEmXEAEREAEREAEREAEREAEREIE5E5BAOWeEx0+AGUo2W/nhD38YPvaxj/nOU8xSxlHWN7/5zeH5z3++FnUfH6VCiIAIiIAIiIAIiIAIiIAINBABCZQLUBgIj095ylP80xqPPPKIq7qy9Tm7UG3fvj28+MUvDmeeeeYC5ESXEAEREAEREAEREAEREAEREIH5IyCBcv5YTpkS6yLf8IY3+G/KQPIQAREQAREQAREQAREQAREQgSYjoF1em6zAlF0REAEREAEREAEREAEREAERaBQCEigbpSSUDxEQAREQAREQAREQAREQARFoMgISKJuswJRdERABERABERABERABERABEWgUAhIoG6UklA8REAEREAEREAEREAEREAERaDICEiibrMCUXREQAREQAREQAREQAREQARFoFAISKBulJJQPERABERABERABERABERABEWgyAhIom6zAlF0REAEREAEREAEREAEREAERaBQCEigbpSSUDxEQAREQAREQAREQAREQARFoMgISKJuswJRdERABERABERABERABERABEWgUAhIoG6UklA8REAEREAEREAEREAEREAERaDICEiibrMCUXREQAREQAREQAREQAREQARFoFAISKBulJJQPERABERABERABERABERABEWgyAhIom6zAlF0REAEREAEREAEREAEREAERaBQCEigbpSSUDxEQAREQAREQAREQAREQARFoMgISKJuswJRdERABERABERABERABERABEWgUAhIoG6UklA8REAEREAEREAEREAEREAERaDICEiibrMCUXREQAREQAREQAREQAREQARFoFAISKBulJJQPERABERABERABERABERABEWgyAhIom6zAlF0REAEREAEREAEREAEREAERaBQCEigbpSSUDxEQAREQAREQAREQAREQARFoMgISKJuswJRdERABERABERABERABERABEWgUAhIoG6UklA8REAEREAEREAEREAEREAERaDICEiibrMCUXREQAREQAREQAREQAREQARFoFAISKBulJJQPERABERABERABERABERABEWgyAhIom6zAlF0REAEREAEREAEREAEREAERaBQCEigbpSSUDxEQAREQAREQAREQAREQARFoMgISKJuswJRdERABERABERABERABERABEWgUAhIoG6UklA8REAEREAEREAEREAEREAERaDICEiibrMCUXREQAREQAREQAREQAREQARFoFAISKBulJJQPERABERABERABERABERABEWgyAhIom6zAlF0REAEREAEREAEREAEREAERaBQCEigbpSSUDxEQAREQAREQAREQAREQARFoMgISKJuswJRdERABERABERABERABERABEWgUAhIoG6UklA8REAEREAEREAEREAEREAERaDICEiibrMCUXREQAREQAREQAREQAREQARFoFAISKBulJJQPERABERABERABERABERABEWgyAhIom6zAlF0REAEREAEREAEREAEREAERaBQCEigbpSSUDxEQAREQAREQAREQAREQARFoMgISKJuswJRdERABERABERABERABERABEWgUAhIoG6UklA8REAEREAEREAEREAEREAERaDICEiibrMCUXREQAREQAREQAREQAREQARFoFAISKBulJJQPERABERABERABERABERABEWgyAhIom6zAlF0REAEREAEREAEREAEREAERaBQCEigbpSSUDxEQAREQAREQAREQAREQARFoMgISKJuswJRdERABERABERABERABERABEWgUAhIoG6UklA8REAEREAEREAEREAEREAERaDICEiibrMCUXREQAREQAREQAREQAREQARFoFAISKBulJJQPERABERABERABERABERABEWgyAhIom6zAlF0REAEREAEREAEREAEREAERaBQCEigbpSSUDxEQAREQAREQAREQAREQARFoMgISKJuswJRdERABERABERABERABERABEWgUAhIoG6UklA8REAEREAEREAEREAEREAERaDICEiibrMCUXREQAREQAREQAREQAREQARFoFAISKBulJJQPERABERABERABERABERABEWgyAhIom6zAlF0REAEREAEREAEREAEREAERaBQCEigbpSSUDxEQAREQAREQAREQAREQARFoMgISKJuswJRdERABERABERABERABERABEWgUAhIoG6UklA8REAEREAEREAEREAEREAERaDICEiibrMCUXREQAREQAREQAREQAREQARFoFAISKBulJJQPERABERABERABERABERABEWgyAhIom6zAlF0REAEREAEREAEREAEREAERaBQCEigbpSSUDxEQAREQAREQAREQAREQARFoMgISKJuswJRdERABERABERABERABERABEWgUAhIoG6UklA8REAEREAEREAEREAEREAERaDICnU2W36bO7pEjR8KOHTvCLbfcEg4cOBA6OjrC5s2bw5VXXhm2bdsW2tsl3zd1ASvzIiACIiACIiACIiACIrDECEigXMACv/nmm8MnPvGJ8PWvfz08+uijLlBu3bo1vPa1rw0veMELwrnnnruAudGlREAEREAEREAEREAEREAERGBuBCRQzo3fjGKPjo6G2267LXzgAx8I3/zmN8Ob3vSmcMUVV4QnnngifOYznwnvec97woMPPhje9a53he7u7hmlqUAiIAIiIAIiIAIiIAIiIAIisNgEJFAuQAmMjIyEL3zhC+Hhhx8Ol156aXjJS14Stm/fHgYGBsKmTZtc2GT28rvf/W64/PLLQ19fX025amtrqyl8PQJ3dnaG3vbe0NHe4TOv9biG0hSBmRDo7OgMXW1doau9S2rkMwE2TZiezp7Q3dbtv0ZoZ6bJakN79Xb0OkNsmdkRUF2cHbdqsfo6+0JPe4+/s6v5y21mBNr7loe2nr7QuXzlzCIolAi0MAEJlAtQuMPDw67myprJl770peGiiy4KdM66urrCs571rHDZZZeFW2+9NXzrW99yQXM2AmXs7EV7AW7LLzE0NhSOjhwNTww8ER4aesgFyjUH14T2jvaQJEkYT8ZDwr/sOJ63t7V7hx8BlI5/Z7sJAWbH4862zlQ4betwVgt1P4t9nQ67X/61278Kk6RnsMREpvEY5+iXu3FQMJRB0RTDR/fcrRA0d4uBzK5wK107BqsIQ5zS9QlXDpO7Fa6fu3FwPGNjK6Mjo+HQ6CEXKvcf2+8DHPl1SumSXO53nLSnDVdKd9qwhevMNFyMkocvXS/6F+08bNGxhmPakqGhofDo6KNhYNgGv45uWlLPYg2opg0Kx139u8K+sX3h4aMPh3U960IyfvwCnGv5TZupxfCMtzyD8c8YlGx68Kwu7h2jLg6GDcc2pneAZzFw6jrhN413Mehsjqe67PRpTcSaOKoe43j+M4k1KQ3jRX3sP9Yfdo3vDcPD46F3YEWJYSFW4dCvV6UNb5tJGCJ7uELgwiHeXs6WPs4ct48loWtozH/4z8h4IhMhS5eY8Kh6VAhdOKwa1BzheOz++8LoI7vDgTtWh5UrVlh/pxSxdFoCPVXSs3DPLjTperNIaqootaQNh3YrjOXLwrI1G0JPn9WxKQwcZVqDgATKBShHOmU7d+4MZ511Vjj//PPD2NhYYEYvGtx2797tG/YMDg5G50k28fiNj4+7X3wQUanlh4k2Yap14D3QPPxpsyYfofC+g/eF63ZfF27ae1N47NBjnvKnr/90GE0sT+OjYWR8JIyMjYThseEwND7k52PJWGCkfk3PGv+t710fNvZtDBuX2c9szlf3WAPdvTKs7LKf2T0dPQFhC9PsHS3YVTUmQ1K+lNvw6HAYGR0Jo2OjAV5j4/YzG4G8aPuxlXV0h00U2p0VL2j7WQi/JMf5v/Jxdh7jTUonxpwinqdrfnl8u2Z0i7b7ZXkshzPneAXPc8xrDIeNifnPTnI3sOIHw53HdvqAxO77d/ssJe7+P+aPk8wU85a7TRPO04oBYxpZeE49vWL6Jb8YtXh/MV6MVrzGjMNx5WmulV83y2F+XogT3WBJPYXl3iN7Q9dgV7jxthtTb6rvBL48ig6qE6CdZnnDocFDYce9O0Lvj3u9BGbCsFgPqqfePK5+L9SbKZq/qe8kjTBmbeEeq4s9Qz3he7d+b+rg1XyOc83ZVOdy2ZTPy+WbXmPiShzlz2uWv2IaxWO/pYmohdPoSALEKJ37aXSbeGzHrL/w2NF9oXfM3sMDa7xICEV+2mgPEp5+bPoRdpy5MxCCO0IkbgSNfh7H4xIvLeY8jMcxxziQYq8j/EggTQ+/9DrcQ5uF6z02Gk7a+UTY9PBhXDxNLP85gfSPxcyNZXWSKfpP8swd0lB5WPJmZiK57PrcmP/cO4zY4CVt5M3//REXMP2ePAThuJ9i6DTN/EbiaSG91I9IE1dOr4QbEQruhfhpuWd+Wd5j6Ik84BJd01Tzv1mcifP8yA7yC1UcEqKQmzRCFjSxZzX0Wjt36fZw/k+/Jpx9ydXOKQ008Ze2MfZZqXuwnIshPdJh8ib2k+eSnuLWRmBCqqktnkLXQIDOBOqty5YtC+vXr580yo8bayf37duXP1zVkv/2t78dPv/5z4frrrvOO8lxV1geoB/84Adh27Zt4YYbbghr1qzxhwn3ehleNwiUd/bfGb575Lvh5qM3h5FkhCY0jA+kAg4CSfy5UJQJRP7A28wkQiKCJT9UcOKvt9PUwzpMza69O3R1dKU2Koz8MzvO4uU2c3rZzB7Xr/hnDQwmusWZP85phKv9o/1MG2h7x0VBrBASf9z5V46fuxl7/uXnHMfZ2incLUvh2MCx8Hj/4+Fzt34u9Ozo8cYRXv4v2pzZsacd3TLbvNKwHGQm1gPSiMaPs9PoHu2YBmGnc5syjSnSjfkophvd8uvEa1oaRTfiYCrcJm6nwp0wDOJQxt07bE1y8a03k3TTS015vYo8FMLGwwr/KfJI2IpwE5H9qOzHeayzMWjR9vCFa+FXTiOGr3AvxYlhok3YsdExb7Paj7V7HqKf7JkTYECIDs7tu2/3drMc04uhWE+zdistK/Mo+hE5P88PSn3QKnHyeGmcSdck0YnkJrLoboU4eToTQfKI1eLnwRAUbOLCLkwntz07zs9xw6/gXnFu7iOm7WM6K+HRvZ0W1p6ILA7hSK94Hq8R3bDJntuE55g4BbdUOErdYr5i+Bg/urdbm1v04zajH2nG/BTTt8cpDePXTHnEdLHzNN1/Iq/F6xTT4y2WCn8Wgfxk8czyvPn1OLFg+OW2CWyjthSHPkSnvYudhYXJjR9nDpmVxi8EimHMdj8iRzc7JM+5sby58bATxx7B3cw3c45uHaPjoe/YSOg9Ohza7DgVRmPgQvj84oUk0qvV/DfPgse0s0qHSem12yxcm/WDxk0Qiu+ySYEqHAoJVj0sOBbjTeGcBil4Fg6L0Ys3Ug4Sy6nivVAZedJlqnkX3drtnTHS1xUe6GkPd5zw/bBveHkYN82CagYhkmVhe/bsCYcPH64WpGY36vUjjzxSMXFTcyKKUDMBCZQ1I6s9ArOONDaouPb09ExKAGGSByCGmxSg5EBa8YdXtYas6F+KPj+n1ohzDYTAE5adEE7vOCMc6z8aUFVdsXyFd5oQOPkh7EWbY94+dLAGxwYDKrODo4NhYHTAfwcHD7r78Piwz2oyy4kghiDo6+JMqHTh0dLptH+oh7p6bCZU0umu+Gcds2r/IoQo8HFOg+r/spdffh7dM9ssF+aIG+M7b/PIzznOBMjoFs9JN3ezo2JcVIWpJ8OPDPtoHXkvmjgrDQ+O/V/JJnwez6LH42iTZH6chY3pxmvh72Gyy8fw0S6mMa0b6WedY9KOYd2uko9iusXwuMM9xsfP3fwg/VP04yXFOaqaxevH4MWw0Q3b3bN7ju7Tho2BCnYevpQOQXK/LPyk62VxcC+HLVyi9nsqRo75qJK/UjBnjmYBzy/1srmN3XD6P7uNihNzK5/jZG4VpkqYQryJ0MVwbd5hGh4ZtkF7W2duo+e5IX16eNbm+OwGM0C0P/GcOu/nmc0Mj/sV4uRh8LNwWZjJ4TL/mD7hzFReN6ab2hP5IF/RLeYpTc9c8zx6Bsw55jmPn4UhjaIgGYWuKIi5bbIDdhrOrpudd5hbh9VDv78xeydwnRjWw6d5jHH9WoQp/DxOxo+y8viet2K4NJ1J8bNwudBXSHfSNSalWUrf/NO8RPckP69wL6Zj9+p55rpFdztO28Y0LU7y/MRwMYzFxTA01Gn1kBlHhKF4r6nv7P/mE2vF5yY7zv0Kz4vfCTeDMdtynt2ci8oh6TAtiZ6uMLp2dRjv6Q4JAlwauvIv94VHdn9Vw1TGmOIsjel/7U+abCG1wiEXZHYNft6H8/u0ABVh4mWq5Lsi3MRJHnLCKSZidu6buuVh8gN3z0NVOh/HbyJwWmQT5+nF4t+Se+mUUO32fI70dIYTTj0ptK1Ya4Np6cwjfZ1oqr2X8SMMfsWwMc7x7KnSPF48+c8PAQmU88Nx2lToQFDRGaGuNqWPGw9PDDdVYs94xjPCVVddladBmvwY3XnlK1/pO8WyeywznvVWeSWPNFpnDZ4Vth/dHnYf3h3uvefewOzieeeeF7o7bXYxWxPJTCTHcdaRzikCJCpgB4cOhgODB8K+gX1hX7/9zD40dCgcHj7sv/7RfleZ5XoIYkUTz1GvNcXaote0xzFe3uhOG7q6Zx630JjihoCLyf2rR58yDHnjJd/eV1pDSZqUt/3LhXMfWU4Fdtai5kJmFs5D2zHumFhf0lTsr/lhSM/9eOP7//QahMMUr+sO9ifGqUjbc5emG+PGcJ4O/oX8VPMjnv/L8haPsaPJj7O8Ft1Jn7r/2GOP+SDNpo227s9HkS1w3tmwFLL0Y77yNKq4x+sdL04Ml6c5keV4Vznf/Hrc10zDxUhmk5d4vWinSRUSIxz/snvKw5XcC8lWHBKPDtNDDz0Uenp7wpbNWyr8G/XE7xcMlc1FlexagElhModJ7kTPWo4p/PwCVfzgftC+O7xv/75w8vqTwzJbV1TRWaIDRad+xIQkZoP5ITDZL7XxT4/bTMuj6IdwxexNdLORuonjmI49DzFMTCemHc+5Pm62TsEEufR69qKx/BTSI238SK9wzMyRu2du9gD6OWvg0uP0HNZTFktltZ1cVtEfvoVntCJgDFNwtJwVzgqHUzgXQhQOs8A1xcmiT4ozyaFwHatheE9u+ivCTJxUSauK00T4iSMwDlFOtCMZz+MqG3rax7mAeSekl6Xpx6ylw5hb7odTfp4e5+eEx484ZsZWLw/HLjwjDG9cHZLuTq9bFcWa1as0tEXlIEaOjkUbvyx/0dnjZG48r35unqkAG8+IVnl88OChwPfF+Z54T7dpFJGgBZlIgfOKswm//HpZJBeW0/T9b+lanrAnP5EHexHneU2vip/9siBu+elEpSqWOVdODYHStPBP7yNLxALgk977hFuMSbwKY6djVrc6bQBy++ZTwupTzwrLN5xo/ZrJNYw0jx496lp3J554YrjgggsqkprtCX3pLVu2uMbebNNQvNoJSKCsnVnNMVatWuWdW9ReeXgqOhOW2rFjx1xIXL16tYeb6gI8JPzKhlnPOHsQ12ZGddhy2Pk+37B8U1i9fGPYtv7s0P6Y7XZmwsklJ1ziqgbeCFlDFAUHzjnGMFu3acWmdJ2lqcr6ektba+lrLm3dZVwnyNpLZjDZ+AfhkhlN3PgR1mcybb0hdpzNJG3/l80QwtsFbGsm8bPViGkDmTWSMV9RIPP8Zn7RjYaP43gvFbOuCHN2X/6zMC7c2XkxTPSPbpQPbgig7uaqR51h/7794cH7H3ShHGGIlj2Pk10DfuSHf36c5dVP8Mvc8/Nyg18tTIxTeDdMSieGIeEs3LRhCDaTa88gDJcsmvJ13c/yhDtC0E033WQvtM7w5IuePO0zFdOsml70LNpT3HcxSLXjadOfhnm1tKLbtGnGQGZ7uMI1Cl5THhKHskN1+Hv7vhdWrloZLj7r4rw846DMlAlM65HlnHL3fGFnGSy4pU7FMCRaOPdrZGmlCaX+mbtbmTuhTHnXOjUjIbGZwmR4xFSwsNPjZHgoPbbBuYSf1SHTCQzjdmyLmc3NZiLs3EbvMj/OLUwhfIwX7Qm/sdBvqlzHbOnDquW7rI20vJAHj2tp23ojhDTvxSFc2i8e28ti8rkJcO7PnywsAp07ul/qn6ZTCONh43khDOlkaeZx3I0k4/XT8H4Nd0v9nHGWB88LDnkcP0mzSJgKE9PLHE0zwx5UG/zBtgFYP7d3HYOx8dg6z2OWTrvt4tzRbbPleTiLx3uRuJlNnDbzT93M3dpOBpas0bVjS9OvwzHXS909fAyXuRMusZ/HxS36Z/E9nYJ7RVhLN/f365KO/bifLH2v96Tp91hI358DO/f7wJ08mh3Tiecezq7j59yP/fwZ4dqcZ3FjuCxPg4ND4Y477wzr1q8Lp51+upV2DJ+m4elV5NH8KaqiG6d2jtAVr5te3kMSOjXuGE/Mzr2j4FLw87wXz606WZmOL+8N412Up0WmKuVp2HGpahW9KlM63lmVmCWnjIInBKMd99wTdv34x+GcKy4Pq1ausseolJnCJUtJmU/JZdrTkmdMt8K54iTNYwx3nGulwYp3l0esPCiXZaVv4cxqlNWNjq7u0Nndm1YPns0qpthnrda/rRJlRk4L1QeeUWaWSCAJlAtQ0Kyd5PMgCJSM9rPLa9GwYc/jjz/u36aczXcoEZiikBrtYvr1PE727A3JPfeGcP8DYbXNCvWdf15Y2Xv8LbQRkhC8euzfTAz3hYosQiSCowughWN3s5nKyMJVSuHCv4wPx9Gda9J88lKY1i6HsfAIlsSLQiLnHLtbdhz9pgqXu1t4WMTzXcmu0P1wd7hi4xVhwwkbZoJGYaoQeKT7ER9k2bpqaxVfOc2YgC1BXdu1PqzpXRM2LKtTfTRZyh5odhQr/WxEm80d0OCwH7Yf28ybb/qQubvwx7G5E56wMTxu6bG5W/qpoGg2QqIJiLlQlwuGCIxZOh7ejrE9/TR/E+lxzTRNzw/X8rCES489P3a8zK613q7JjF16DxNpeXrWRk30jK1jiPCQCRkulLgwYW1MZrsfbU4URMw994uCVhSyKvwQSirj+XkxXfwtba6RC2V5Glne6FgShzxEgcLtLP3on7lVCDfm5ul7GEuHa3n66XF6H1n63Et27VGb4dj50MOhz2Z4t249uSBsFeJneZq4pzQd2le7aPYr5Dm6FfPkbsUwxWPS4L5JN31/pOlamMxt4jrm7/mJ183uO2NCOOdi7xhPy8JOEuxK8dNrZtfnesT15P1Pmi8ebvyyX+W9p3lqs0HsfsvHmi2bw4qLLiaGzCwILN9wLHQdHgqrT9wWlplqrkztBBa6z1p7DhVjpgQkUM6U1BzCISRefPHF4f777w/XX399ePrTnx7WrVvnKSJI3nbbbb5+8pJLLqn5G5QkspgP5MDdd4dDH/tYOPKVr4SOdWvDste8xuYBXpApfs4BWikqL0XftCfU9o3OUjJNcYrgixqvzOwIMEPJuj9mpflppHJ2HIk1NDRg8pQN5Awe8xk966bS4KRtDkJQxQ+RqOyWnnsblYV14cxmPsdZW45tA20Jx/bDbXyAY3Nn1hD/OHtoxz6jOJTOLI7n57gT1tw9fOpP2DyMHbvASh68I2734R1uhBE6+hMd8KL/JHcHUCV8Ic1JcbpNDbuzK4x323pvUwObEDKAycBUdm0/TY/b2AXcftg++xaPq7qb0BX9ESLz4zS+n5t7RZoxnQr3Qhhzb49hsvTydBByuA5xmQXsxEboMoEIt+wXZxc9jIcnTOrPrdZqrATDbbYxXcfatWH9PKnG1ZqHVgmfz+giHMvMmsD4iLU7piE1xoYzEihnzVERW4OABMoFKEcEype97GXhXe96V/joRz8aLrzwwvDMZz4zHDp0KHz84x8PN998s6+NvPbaa8PKlcef3VuALM/4EqiNofrV1mcfSjZ1ze5HH6NLKTNLAnTIvVM+y/iKJgLzQsAE8cQEvTFrozpt/Z+pUIRBa8cQ2sYHUwHQhT8XBK1TlQmD0U6FxVQwrHAjPOqett4uF0a5FoKe2bglme3+0S8TRqu6lcOY+mZiqu0eNsbDjZYpniP0sBma/dpsyUB+zDlCHz9Tq2wzQdCmuvNjd+Pc3ImThjXBzVS7XKgzNWt3xz+LxzX27t8f9poGxzlPelJYbYOJCUIa/sRzO0vD4rvgZkIm//jvpiCwumMVd3eqCGcxq5zPSzgyVU47c4tZy/2LYTmepWE2uc3eN/xk5kiA5wAT7fRMf0VABERg1gQkUM4a3cwjsr6RWUnUXT/1qU+FD37wg+GTn/ykb6ZzwDprz3nOc1zgZFFys5m+C54Uhnc+NfR/73uh3WYW2m2N6Jj9Ouwjv3nHotluSvkVgSYjgBDG7Fy6JrA8U5fN3jH4Yz+fyYuzftl5up4wxkcVlFk+W8tswuOq3XtCp3U8969Ynq0nTFVF0/WFqIiiQpq6TdipSmm+jjD3R33UZt/pyJpAkgpTUfhCuLIfgpz/ENLsOApfzJghfPl5JpC5P/HxM7c8bBrOw7t7Fg9/T8dsW4uXz/4hYDLT5jNpNutWUBtNZ9hsdi3z89m4/JiZuswvm7mLsz/Y/Jjpe8yWNfTfe2/ofspTwnJb/uCbk+BPnCiYNVmdW/DsFgYaGIDwmeAFz0QLXVDCZAsVpm5FBBafgATKBSgDXnyouDJLyXrKT3/60+EeW8zNzOX27dvDG9/4xnDllVcuQE7m/xJdtrvZcttZ9sCyPus8mcqTzUCM2Wg8H7VlpF1GBERgegK+hg6B0Nbp+fo6Os6+DtBsWzdW4V/wc9VRBL9+m0nsN5XU/n6fVUSFdNzc3EaddKDfz5lxjG6pnYUnLDOMxDfbhUDLsgtO9gwvMyGONWlHEXzMzgUm1B19nR0qkKk6o/vbjF+7aSxUhk3VJF2AQogiHWzCZj+fKbR2A7vddpVNZwARMLOZRGYE2YyleO4CqPnbJwXyGUMPl50Xjtu5j0US3tpsU54xG2RrRwPF7k+DbdM/E/IVAREQARFoLgLq8S9gebG19Otf//rw6le/2gboU5UT1ncxg9nM67zarDPXuWVLGLUttMdssf/oXtuox2ZbfSZgAfnqUiLQTASYzRs7cjSM2zMzfvSI/Wx237agHz/Keeo2Zu5jHBPG/Sx8dOMcAZC2JP4AEI+zNiZfv1j0y45jO0QcBr7aek0QZDCIc4QxGwAbsZk0NA56bRfqtr5eFxbbLVw7wp/ZbX0IgOaOmwmSbe5OONwIk8YhbAeCYhYGQdLX2ZWFvOJ58Zg8T3M+acZqmrAktaDGZnFR6fXBgQW9sC4mAiIgAiIgAvUnIIGy/ozzKyA0RgEyd2yBA2YUOk84IbTfd7/NlvSH0UcfdRU475i2wP3pFkRgOgJs/OICH0LfMWYDM5tzP8Y2dwRDbJ81tJlD1E1dXTRVL41qphN29lr3o1YAAEAASURBVGkL1EUJW8X2HUgR/hiUYuYrCmtm58KcC3sm2JmA19ZTEPJc0EvdXOhD+EMIJB37YY9a2rffdVdYvmp1ONV2cHaVUhMw0w1X7PWB2iY/UxeNx9H2mUxXIy2EI25Z0JsObiv5GUsZERABERABEWhFAhIoW7FUF/ie6MwiUNKZpWM9ZptP0PmVEYFFI4DQgkolvxkaVyFFcCsLbwhyxR9CoK0v9B1FERBdkEzXDjPL6IIjz4Efc565YR+zcBbHVUvtcxKuKuobuFhTjFBoP56ndO1feuyzfvYt24r1hlk4XztoaqkIf/mMYRQgM9vVRwtuUahkBtEFSQRIn2nMhE2Evsyw1/DA8uWhZ82asNzU82VEQAREQAREQAREoExAAmWZiM5rJoBqXOcmm6E09ThmYEbY6ZVvrsmIwGIRYDYoW2/oQmWcHTI7nyfCzQRPBEjUSUdtJ9Oxgwd9Z9MxOx61HU6xx2z92zhr4PjZx+nHn0iPqeuuXmr3mKtbxtm3KWwffDHV0WACmhsT3tpZW2cb3mB3LE/X2fkxbivNbcVK87OfCXbp+USYNK6dF4TA+UQ+ZrOv7TajyjOujVDmk6zSEgEREAEREIHWISCBsnXKctHuxAVKVF5thnLEOtyu8mof8pYRgUUhgGq5CYnB6uLgjh0hmKopguDYYX4IhVFAtHMERFNT9R1S+dA9M4/ZDqeVs5K42yAJM5VxV1M20TGhlFk+F/oQ/mzTFRfyzJ5wQ2DM/PBHMLQf6xNZd8gso6uNIhTaz1VFM7t4XPbz8xpmYBelLHRRERABERABERCBlicggbLli7j+N+gC5Ympymtiqn4IlP4R8fpfWldYQgT8I/XZTqUTO5ba7qTZmsTxbDfTUdu0ZjmCpLk/bp+z8XWNvpFNQfU0U0f1TXDY2MZmM9PdRU3tkx2Lsw1mOlA1zdVFWVsY1yCyxtBURm3mjoEUZudR+SZue58Jipmbp1V0J1yW3hIqOt2qCIiACIiACIhACxOQQNnChbtQt0anuoMZSutMowY4tn+fqxEu1PV1nSYmwM6XqKYW7BA/TJ+5jw8N++6nYwf2h1H7butY9htBPfXAwdxt1D5Xg2oqM4vL+WSNzd49Dhpm+5jJs5/P+GV2uwmLHWtN9bQtdfeZRVNHxa3TVFLb7ddh553287AWns8+tK+2eCst3Co7NuFQRgREQAREQAREQASWMgEJlEu59Ofp3lkX1oVAaZ1r36gElUKbqZQRgeMRYN3i6D4TFPft8++Xjh48kH5+xmwXFs0eP5x9HgOhk88voHLKj281Fs85Rg3VBNIxZg5NAOxCKMx/JgSuWWvCIjYCox1nAmS77WLq3zJE7dSFT1RPMyE0E0ZdIM2Oo4B6vPuTvwiIgAiIgAiIgAi0OgEJlK1ewgtwf3ykm9mdxFT9EpsZYoaImSQ6+/oW5QIUQANegg1cfPOaIza4YBveuGqpCYZu+znu6Q6oqZ+tbYy7ouY7pPL5jaMB9VbSY8CCGUJfp+izhWxYk25Q4+sVbcYQO7HdS3fu2Rs6ze/0884NnaxXdBVWi2/qp66aihpqYWfTBkSoLImACIiACIiACIhAUxCQQNkUxdT4mWSWcsw67mO2RgzjM0624Unn+vWNn3nlsDYCJtxVbFgTP6nBrKEdu9ozM4+P7Quooea/OAuZufmnM2w3VFSm/cenMDg2G8HP1y/iZoMUrG9EeOxYuzZ0rFuX2XZs5524YZs7vzETPO+84YbQZWmtveSS2u5NoUVABERABERABERABGoiIIGyJlwKPCUBEzLG7DMHY9bpZ+dLhAl21JRAOSWxpvRgppDBgtG9e8PInj3+G8Xe+2gYse+PsiETM5J8isNNeX0kwqi5ucoos4T269y40T47Y7+Nm0Lnhg2hwwYhOjfYz207x411jCYo+uc5+CRH8ceFEExRR8WdmXGb1Wwz9ddxu1Y77jIiIAIiIAIiIAIiIAJ1ISCBsi5Yl2CiLlCuCGP26YRgqowIHag8yjQfAT6lgcryqG96Y2sZsQ8eSje/4TMbqKaaKuqYfY4jHo9zbBsysXaWdbRshNORrVXsWJvOKHaus5lEW7eYziaavdrWMVp9yXdIRaUVoRHbZiSx4/GsKFqdlBEBERABERABERABEagvAQmU9eW7pFIfReWVGUpbK+cqrzZDKdN4BJg95FMb6ec20s9ujA/aef9AGHvcBMf9JkwyC2m/MWzbtdc3zrEZSNY7MgM98VkM+0SGqTl3+ndI+VyGCYEmDLYvX5aqpWYqqqk6KsJkFC7X+brbxqOjHImACIiACIiACIiACNRCQAJlLbQUdloCCJPjy02gNDXD0X0mfNiH5GUWiUBxdo5jUwVlkyRmEod37fLfyK4fh5Ef7woj2Tnqqr6uMQvv6qNkHzVSLBMUO5k1tHWNCJBdmzeHrpNOst+JofNEs080e5OprZ6wKV3/yI6pMiIgAiIgAiIgAiIgAi1NQAJlSxfvwt7cmAmTcQ0lM1t8E1Bm4Qkw8+hrHFnnaGsbRx/F3mu2Cfmmvjo+mM5KJqio8mO20myESdY3svmNC4YIh/5jjaMds8aR9Y6muuq7paKWyo9PdGR23FRn4e9aVxQBERABERABERABEVgMAhIoF4N6i15z1AQRFyh9hnJ/GNMayrqVNILfuK1nZOMjfgjvoxw/bm6HbM3jvvTbjukOq6ayyiZJti5yzNY45p/f8G8wrg3d2061GUXb9MY+u8HnXzjuMKEx7p7qO6v6Tqq2i6p9vzGkE5Z1uzclLAIiIAIiIAIiIAIi0DwEJFA2T1k1dk5NTXJil1f7vrx9NgJBR6ZGAqiXZiqmHtN2Kk2yH6rELkjabOKorWccfvDBMPzww2H4oYfDyEMPhSH7ITSyRtI/tWGf22BznHjcaSqpXaauyo6pnaam2nXyyaF7y9bQtXVL6NpiP1RYbSay4vo1Zl/BRUAEREAEREAEREAElhYBCZRLq7zrerfjpvY4vsw+HN9l1cqEInYAZRMXVCglpMwQPQxNhTSYHUwFdWjnzjD0MGsd7WdrHhEeESbh6t+CtB1VESDZWXXcj0dMBdWExo0bXEDs3pwKi51bTFhEaDSh0j/BQfpR2IzfekQALQqzM8yygomACIiACIiACIiACCxdAhIol27Zz/udJ/a9v7Y+292Tj8ubaiVCDzuF+mchtEHLlLzHB4fSTYz27w/j99wT1v7gB+HYLbeER8dscyNz8094oK56wI5tB1Zmf03yS9VS7RuNXZtPsm82bvD1jR3r011UO0w11X+otfL5DvtEB+esfZQRAREQAREQAREQAREQgfkiIIFyvkgqHd/dtc1mKDtPPMFn0Xxdn82mdW/d6rNhSx0Ru6wyk+if7RiyWUWbWRx74vEwsmdvGN75YBh64IEwcv/9Yb3ZA7YGcmCE2Ubb8KbwPcYuY9l9+umhY+VK44zaqp1vPdnUVs0+xWybhZTQuNRrmu5fBERABERABERABBaOgATKhWPd+leyNX4IPx2bTjBBaEcYP2IbxZhAybq/pb6Py7gJj8OmujpsAuOwCYxDZvNzPjabCyPWSgb7dY2PhXFme1euCh0b1vumOd2nbgvdp55qv1Ps/DTbdXVjKjgSrq09hPa20GbHgZ+MCIiACIiACIiACIiACCwQAQmUCwR6SVzGNuZpM5XKLvtGIZ+TGDtsKq8mULKZzFIyqKiO7N5tvz32+Y49PgOJ6q9vVHTokO3CeiiMZjbrTENnl3/Lscc2yRlatSo8bmsgN190UVhlQmTHWlNTZedVm5Hk157ZEhyXUo3SvYqACIiACIiACIhA4xKQQNm4ZdN0OWOWDXXLDtspFFVNdnkdsW8fMuvWisZVV212cTz7jbEJ0cFDYfjHtutqtvvqsG2mw06sCJPMIEaBkI1xUAV2YdE+ydFlm+b0nHJKOGBrTR+3taenXXttWLNtWyti0z2JgAiIgAiIgAiIgAi0EAEJlC1UmIt+K6i29toaSmYoEShtpi6qvC563uYxA/HTHcO2A+vwvfeEwXvuDUP32u9+WwO5d29os5naokGQ7NxoKqo209h92mmh58wzQs8Z6a/bbJ/RZYdVM0dNAB2yDXkSUx2WEQEREAEREAEREAEREIFGJyCBstFLqJnyZ4JUe19v6LRdXlOVV2YoH/X1gc10G+W8spnO8E77zuMDtv6RNZB2PGKqrGw6NHbkqK0VPeI72nLOWklUU9kcp9tmGLtt1rHL1j1y3mkztx3Ll/uut+x8G38Vn+pgN1x9uqNcBDoXAREQAREQAREQARFoUAISKBu0YJoxW1Hl1Wco7duG4/39ruo5bt9TbB6TuNrq6MGD9rmOgz7Lyqwj34EcfughEyZ32vcgd/nnPJiF9U9y2Cc7mHXsWLvOhOn19g3I9fa9x5P8cx5897HzJPusB2rAMxEUUQ8uzXA2DzvlVAREQAREQAREQAREYKkRkEC51Eq8nveLyqvNvPEtRGYog31HMRkYCON8N9GEqoYzJrjFnVUTjk3wZUZ16O67w+Cdd4aBu+4OQ3fcYQLmQZ81bDMh2X92j6iucp9dNgPZe9ZZofvMM80+22clO1atbLhbVYZEQAREQAREQAREQAREoB4EJFDWg+oSTpNZuHYTJlF7bV+5IgRTFx01IW3cPnmBimcjGWZOh+65JwzccWcYuusu/5zHiO1KyyY7yaAJwv32s2NMh22c03PeuaH3nHNCDz9b+xhVWIMJmu02W8mMJT8ZERABERABERABERABEVgqBCRQLpWSXsj7tE1oOjZucHXQZHTEZ/0QzBZboOQzJunnPB4JI49M/IZ/vMtVWkdtR9qxY0ddeOzavDn02Ywju692or564glmn2h2+uuwTXZmpMK6kNx1LREQAREQAREQAREQARFYYAISKBcYeKtfDtVRDLuadqxe4+so2enVZ/rMbcGM5YMZyGRoKIyb2u3YE4d9J9ZBU2EduP32MGg/dqG1b3nY7qvpRjndp21zld3uU04OPabG2nvOuaHn3HNcvZUZSBkREAEREAEREAEREAEREIFKAhIoK3nobK4EEChN7bVzgwmUa9aYIPeEqbyaQHk0VR2da/IzjT9qO64O/OCWMPDDW8Pgj24PQzt2pKqspoKbjIy4oMk6z47160PfRReG3gsuCL3nnx96zz7bBOHVqfqqzbQG23W1rcNsGREQAREQAREQAREQAREQgUkEJFBOQiKHOREwgRJV0HSGcnXgkxtsdIMqaT1NMjxi34G8LwzdZ9+DvM8+7WE7so7usd1ZbYfW0Uftt/+AfSOzx3Ze3RJ6L7zQd2XttnWdnHeaem7nBlPRtXWffPJDRgREQAREQAREQAREQAREYGYEJFDOjJNCzZRAPkPJGso1JlDaGsrHbFOebHObmSZzvHAIqmN895EZ0IOHwrB91mPwjtvDwI9+5Du0ju59NLQvXxY616xNhcjt230THXZn7T33PFdl7bFjdm2VEQEREAEREAEREAEREAERmB0BCZSz46ZYUxGIAqXN+rWb6mgyYoIfKq/zKVDaNfgeZP/NN4f+G78f+m+5JYzaTGT+/Ub7liMzpF22FrLvggvDsksvdbVWPvHR0WA7zU6FUe4iIAIiIAIiIAIiIAIi0AwEJFA2Qyk1UR59Ux5be9h5wiabHVwTgq1XHN23z9ZQzk3llRlJPvGB8Dhw623prqz797kq65ilz3X5jEffk57kKq299omPri2mzuqfL1ll6yJXhbZOVfcmqkrKqgiIgAiIgAiIgAiIQBMQUA+7CQqpqbLIDKWZ9mW2c+qqVXbQbt90HDT11CM138bYkSP+DcuR3Xt8TeTQ3XfnO7QioLavWBG6tm41FVYTHjfbpz1OPiX0nJ3uzuo7ttqGOjIiIAIiIAIiIAIiIAIiIAL1IyCBsn5sl2bKmcorN99uG9wg9I3394exxx+32cT9odN2VWUX2KrG4ibj4yEZHvYZzf5bbw3Hrr8+DHzvBttw5/50Z9a+PlsbuTxdD2mb6ix76lPDsssvC73nnZfOiFZNWI4iIAIiIAIiIAIiIAIiIAL1ICCBsh5UlaYT6Fi5wgW/kV27TKA8NCFQTsGHz3n03/KDcOw73wn9N30/8P1Kvh/pm+/YjGTnCSeEvksuCcuvuMLXRHbbmsg2WxPZzs8+ASIjAiIgAiIgAiIgAiIgAiKwsAQkUC4s7yV1tQ5UUjedYJ/v2BPGDqUzlOGccyoZ2Kzk0IMP+s6sQ/faJz/u3hEG77orDN17n81khtB10kk+A9lz2umh+/TT7HdG6DnjdFd1beM7kTIiIAIiIAIiIAIiIAIiIAKLRkAC5aKhb/0Lt69YGTpsc55gm+G4yuuBA74TK2qt7PqKKiyzl0f/7//Cka9+NQz+6Hb377C1l6yBZGOf3vPPDyuuvDIss1lJvhUpIwIiIAIiIAIiIAIiIAIi0DgEJFA2Tlm0XE7aV6RrHdtscxxXXTWBcnxgIAzec284dt11YcB2bB267z6bvTzk6yODCZpssrPsssvCymuuDr2m3tplaq7E1w6tLVc9dEMiIAIiIAIiIAIiIAItQEACZQsUYqPeApvydNksY1tXVxh5ZFc4/MUvhUHbqXVs337ftXXkkUd8XWWHfdqj70L7XuTll9uOreeE7m3bXLD0DXwa9eaULxEQAREQAREQAREQAREQgSCBUpWgbgQ67DuUXSef7J8O4VuUYwcPhqO24U57b29wP1sf2WMCZM8ZZ/o6yRXXXOMzknXLkBIWAREQAREQAREQAREQARGYVwISKOcVpxJzAtm3KDtshrLn9NP9Mx9t3d2BX6d99qNzy9bQd8GTbF3k5T4r2W1CZ7u5y4iACIiACIiACIiACIiACDQXAQmUzVVeTZfbrs2bw8Zf//Uw9MADPlPJZjvdtk6yc9Om0LF6dehYu1brI5uuVJVhERABERABERABERABEUgJSKBUTagrAWYpVz7vOaFvn+3waqbrFJuN1Dcj68pciYuACIiACIiACIiACIjAQhGQQLlQpJfqddrabL3kWv8tVQS6bxEQAREQAREQAREQARFoVQL6MnyrlqzuSwREQAREQAREQAREQAREQATqTEACZZ0BK3kREAEREAEREAEREAEREAERaFUCEihbtWR1XyIgAiIgAiIgAiIgAiIgAiJQZwISKOsMWMmLgAiIgAiIgAiIgAiIgAiIQKsSkEDZqiWr+xIBERABERABERABERABERCBOhOQQFlnwEpeBERABERABERABERABERABFqVgATKVi1Z3ZcIiIAIiIAIiIAIiIAIiIAI1JmABMo6A1byIiACIiACIiACIiACIiACItCqBCRQtmrJ6r5EQAREQAREQAREQAREQAREoM4EJFDWGbCSFwEREAEREAEREAEREAEREIFWJSCBslVLVvclAiIgAiIgAiIgAiIgAiIgAnUmIIGyzoCVvAiIgAiIgAiIgAiIgAiIgAi0KgEJlK1asrovERABERABERABERABERABEagzAQmUdQas5EVABERABERABERABERABESgVQlIoGzVktV9iYAIiIAIiIAIiIAIiIAIiECdCUigrDNgJS8CIiACIiACIiACIiACIiACrUpAAmWrlqzuSwREQAREQAREQAREQAREQATqTEACZZ0BL2TybW1tgd9imHjtaC9GHlrhmpHfYpVjqzEUx7mVaLE+iuXsWRY5zj6VpR0zMoSC6uLc6kJkKY7iODcCc4+tujh3ho2SggTKRimJOeYjSRJPobOzc44pzS56R0dHiL/2dlWr2VEMzhB+sJSZHYFYD7HVYZodwxiL9kT1MdKYvQ1H6uNitc+zz3njxBTD+SuLyFLvmbkxje8aPdez5wi7erxj1A+dfZnMNubiSB+zza3iVSUwPj7uHefh4eGwe/fusGHDhjA2NhaikFk10jw60mkfGRkJ+/fv907T3r17JRDNgi8N4KOPPhoOHjwYYAhXylZm5gSKdbGrq8t56sUyc37FkLAcGhoKBw4c8Of7sccek4BeBDTDYzjG53rPnj3OUs/1DOFlwWA4ODjo75jR0dGgulgbv2JoWB47dsyfa9rIffv2Fb11PEMCcKQe0j7yXK9atUrv6xmyi8FiXaTP09PTM+e6SHr0e3nnHzlyRH2oCHqBbAmUCwS6npfp7+/3huz+++8Pz3rWsxZtFJyHGbNQgmw9mS5G2nCDYWwU4/li5KXZr6m6OH8lGFnGgav5S3lppBSfYz3Xcy9v1cW5MyzWR1LTcz07pnCMg5UcR66zS21pxorM6vFc79y5M6xbt84HT5Ym3YW/awmUC8983q+IysALX/jCsGzZskWZGaQxYIbyi1/8oguz1157rds0FjIzJ4D6zI4dO8JNN90UrrzyynDaaaf5TPPMU1BI6iIz9dRFRjyf97zn+TOhulh73aCzxGDV5z73ubB+/XofrIov/tpTW7oxeK5/+MMfhjvuuCNcc801YfPmzXqua6wO1EVm1aiLGzdu9LpYYxIKnhGA5RNPPOFt5Mknnxye9rSnaRB4FrUDjjfccENgIJ8+D20kmmEyMydQrIunnHJKuOqqq+atLj7lKU8JZ5xxRli7du3MM6SQcyLQZh0t9frnhLAxIg8MDPhII0LlYnT6eNlfffXVYfny5eHLX/6yd+Ybg0xz5eIjH/lIeN3rXhc++9nPhhe96EXNlfkGye3Ro0fDM57xDB+d/NKXvhS6u7sbJGfNlw3Uua644opwySWXhE9+8pOL0rY0H7XJOX7nO98Z3va2t4VvfOMb3mmaHEIuxyOAaubll1/u9fHjH//48YLLfxoCzN7A8uUvf3n4wAc+ME1IeU1HgGf6/e9/vwuW55133nRB5TcFgQceeMDr4qte9arw3ve+d4pQtTujIo96PH3SxegT157j5o5hjNs0Q9ncZZjnvre3d1EfmuIDy6iTzOwIRI7Rnl0qSzsW7CI/1cW51YXIkVSKx3NLdenGFsPZlz3sxG/2/IoxI8doF/10PHMCkV+0Zx5TISOByC7a0X2uNn1i5svmO9255quV46vn3yKlq4emRQpStyECIiACIiACIiACIjAnAuoXzwlfzZElUNaMTBGmIsDifn7Sop6K0PHdI7toHz+GQpQJwI61LKqLZTK1n8NSz3Xt3MoxYp3Uc10mM/PzyJD6KDM3AsXnem4pLe3Y1MWF3FG/FWnruW6dUpVA2Tpluah3EjtK0V7UzDTxxcVv/gpPLOeHpTjOnWNkGO25p6gURGBuBFQX58ZPsUVABCoJaA1lJQ+dzZIAO80+85nP9M14tG5tlhAtGrvuveAFLwgnnnji7BNZ4jGpi2wQtWLFCq2fmGNdYEOjZz/72b5bntSHZg/zzDPP9J242QlSZnYEqIvPec5zwtlnnz27BBQrJ8DmfT/1Uz8VLrzwwtxNB7UTOP/888Pzn/98f9fUHlsxIMCmOaqLrVEXOv7UTGvciu5iMQnQ2ezr6wvnnntuYPtndT5nVxoIQwiT27dv10tqdgg9luriHOAVovIcI5izg+GWLVsKPjqshQDPNfzogFI3ZWonoLpYO7OpYsBy1apV/p7R4OVUlI7v3tXVFU499VTv9/CZKpnaCTABEeviCSecUHsCitEQBP4/M/psSEMUhTIhAiIgAiIgAiIgAiIgAiIgAs1FwAap2rSGsrnKTLkVAREQAREQAREQAREQAREQgYYhIIGyYYpCGREBERABERABERABERABERCB5iIggbK5yku5FQEREAEREAEREAEREAEREIGGISCBsmGKQhkRAREQAREQAREQAREQAREQgeYiIIGyucpLuW1QAvqmV/0KZjq20/nVL0etmbJYzl+5iuX8sVRKIrBYBPQcLxZ5XbcZCWiX12YstQbK89DQUHj88cfDgQMHAsdsAc1nBtj+me8LsT35UjGDg4PhiSeeCEeOHAkDAwNhbGzMefT29oY1a9YEvkHX0dExCQfh9u/fHw4dOuTxYAa7DRs2hLVr104Kj0N/f3949NFH/VrEZ/vyeI1W/CwB90g9454x69atcz58jiEauFMPDx8+7Oz5bt3q1au9LsKnbOgsPPbYYxXcqbswb6XvBcbn89ixY86F+kWd5Bllu/ZinRwfHw8HDx50JoTHUJ/gwa/a80y937dvn9f9kZGRQJmQLvWXetwKhroSufDsUR/hxv1RX/iV2RCGOPxoDzB8/y8+1+Xw+BOOOkkdHh0d9ecalhs3bmyaz40MDw+Ho0eP+vPK/VAneP5OOukkrxfFZ5Z7xtBuwolnGG48u7Rn1NFq4QkDJ+o29S++d2gXpmozqc+0H+QtXiOG53loRMM7FSbw4T5hyecp+NTHypUrK9jAmncI90dYnmW4UOfiu6FanaOeRZbxHU7aPO+0n9UM14gsuQ55iiwb7fMZlDVsqCvkm/rJ8xzfIcd7X8Kf9zM2HInHe6JsKCPCcY3IhPCbNm2qKKcYD+60m5TZTLnHuIthT1UXea7hUe05hTP3x3uZMqAsqJM8b8SjnhXrJNwiE8LjRxtLXYR7NUO42BeKbWas78cr22rpyW12BKys2niwZERg1gR+8IMfJH/4h3+YnHPOOYm9uBLrLCX28enkC1/4QmIN+KzTbcaIt99+e/Knf/qnfv8nn3xyYh3BxDpEyU/8xE8k/+///b/k4YcfTqzBm3RrjzzySPJHf/RHySWXXJJY45lYY5g84xnPSP7hH/4hscZyUnjrVCRf//rXk5e85CWJdSwSa5yT0047LfnVX/3V5Lvf/e6k8K3gYC+M5N3vfndy+umnJ9u2bXPO1gmquLXPfOYzyctf/nJnYi8SD/tLv/RLyR133FERjhN7cSXEt08nJRdddJFzt85Tcs011yR/+7d/m1inYFKcZnSwTnTykY98JPnpn/7pxF7gCVyoX5dddlny8Y9/PLEXfcVtWYcoeec735k87WlP8/prL/zkyU9+cvI3f/M3CX7WIagIz8n3v//95PWvf72XC3Vx8+bNyc/+7M8m//u//zspbLM6WKfI6x9tG8+0daC8ntkHuZP3v//9iXUmJ93a7t27k7/4i79ILr/8cg9P/eKY8KRHHSybb3/728nP/dzPJVu3bvXn2r7pm7z2ta9N/u///q8ctGHPH3jggeSf//mfkxe+8IX+XqBO2Dc4k3/5l39J9uzZMynfcPi3f/s3b89McPb3yJlnnpn81m/9VnLfffdN2Wb+3u/9XnLBBRd4eBMik2c/+9nJP/3TPyW0j2XD80x95DmwDr4/B1zjd37nd5IbbrihHLxhzu+9916vL9Szs846KzFBOznjjDOcl3W8K/J5yy23JG95y1v82eVZ59nFpk2Lz2+1Onf//fcnb37zmxP71qxzsc57wvU+9rGPVa2jNtiRfO5zn3PevO9579v3p5O3ve1tyQ9/+MOKPDXCCf2Qr33ta8mb3vSm5ClPeYo/vyb8JL/yK7+S0H+pxqSYb/oyL3jBC/w+X/e61yXf+ta3it5+zHudOvy85z0vgR/trH1zNvnt3/7tBL5lQx3F/a1vfWty9tlne9rE45mhva723i+nsZDnMLrnnnuS9773vcm1116b8OxQF6mT//7v/56U6yJ5Iw7uf/d3f5c885nPTHi24cJ9Xnnllcn//M//JCakVtwG7cMf//Ef+zsn9oV4F5GGDeRVhOUEjpTHy172Mq/rtDX0DyjbZmozJ91YEzoghk4M789OKFWsJUqAkaCdO3eGv//7vw/f+c53wlOf+tRgnUgfjbrtttvCX/7lX4a9e/eGX/zFX1wyhOwFEawR8w8d24vLR+2sXQg33nhj+NKXvuS8rBMU7AWSM7nzzjvDpz/96fCf//mf/vF4e6H4zMQ3v/nNYC8oH7X/9V//dR/Ji5E++clPhk984hNh165dwRpSHwGF9Te+8Q0fwWYU0ITYipmnGLdZ7R/96Efhox/9qI8AM7LJKDD3iWHGyF5O4YMf/KAz+fmf/3kfWbfOaDBhJ1hnKlinPFx99dUenj8//vGPgwlOwTqTPlL64he/2Eeub7rppmAdXx/VtxdnMOEoj9NsB8z4vP3tbw/UMUZ53/CGN3idtJew1xN7sftIerwvmFjnKVinPFinNfzGb/yG1yEbpPD6aQMfwQaPKkaK//u//9vrItxM2AomCPlotHXgwj/+4z96OVGni7Og8XrNYttAUOA+P/ShDwUT8IJ1VpwnMxK0dTbw4yPu1pnM68uDDz4YbIDD66QJPc6GtuC6664L1gHzevoHf/AHnk7kQPhPfepTgbr+ohe9yGfnGHnnucYwa2kd/Ri8YW3yyY86BxPyb4M6/pxaJ7Mi38wa0WZ+4AMf8OeZ55QZWRuc82fTBuiCCUnh4osvzuPBnLbABMRgHdpgg0g+I2cdy2CdcU8HN+p3NLD98Ic/7LMkP/MzP+Mzvibwe7tBHqyj6x+nr6bJENNYaJv6Qt6YGYMJZc97hOeQWZkyS94/vGtMuPO2jnviWaeN+4//+I/A/f7mb/5msA53fiuEN8HRy8gG1vwdTntqA5Ze35nNgyUzSdEQnncQadPWMhvEu+i//uu/ArPAJrj5O65Rnnlm1pglg9eFF14YbPDb75lZM/oxcC7OksX7xJ020QZ5/D0CC9LiVzTwom5x/1zHBjG9Pu3YscPrFzN3r3zlKwN9gmjoO1G3bfAlmODpHHlmTMANNnDq7bQJYVPOtsd0FtKmLvLeZdbaBmb8XUGdYjYcVmVjwmH4kz/5k/DQQw8FG2APJhh6mxAZkk58hxP37rvv9vcMdZUyev7zn+9lxnMd+0K8k3gWoqHvZAOjgTbaBtgr2sw4E01fqNrsaUxD9vwRkEA5fyyXVEqxE/+9733PG89f+IVf8Jc+6gq8vP/sz/7MG9Of/Mmf9MakUV4u9SwkVK0uvfTSYLOL/pJATY2XLp1zhB06kjSSRYESYRxeNJIIhzYS6h0vVEjoXP7rv/6ru23fvt2zTueCFxcdgde85jXBZoaCzU56hw0BCncaaptVahoVueOVyfXXXx8QUGBEB5IODB2/2AlAcKIjycuZgQ06NAiC1E2Eoy9+8YsuNBYFSjrtxKG8Xv3qVztjXnQIkzDnJYVw1KwCJR07hGmbSfAOJvf49Kc/3dUteXbpCKCaVlRPo+589rOf9TqLME0nCGOzwi4c8lKnjl511VXuTmeA9Hnhw/2Nb3xjoFNKOdBZQ8ikjGyGZErVOU+owf/Q0UF4oUPFM0dbh7DEOfXLZrS9Aw6nWF8QkhDOuX8Ean60BXSsGISjLYAvvDB0yugc0fmn/fjlX/5l71QxGIBQiTt1HpY2Ct/QxBA+bLbLB7oQBOls2uyGd+riMxtvgM4mzxqdTwQmm5V0QRDBm046nUvq25Oe9KS8U8hzjUCD4MQgJvHo6KJKB/MPmeBvM/CeDkIEaogIYtTv3/3d3w0IlDzbCK3wjc8JZUPb0igGVrTl3DsDGdQVBBbafzrIZZYI0DyHNlMbeF9wL7QDqFjz7CKE81xvKwiUPLukR9oIh8961rN8EJO6Sp2nDOBPmcKScoIx7afNruUDmjY7Gm699dZAW33qqaf6NRBoG8GgPm0z5C5kY8OEe6a+8CtzjHnm+eY55f0Cn7vuusufe+IUDYO5vEuog7zfGQBGPZN3Fs8ubSR9gShQ8p6hbWQQmQEXnnWELa7HwArvH/KHujfl2SiGusjgGOULD/p6PFfV6iJ+1C0Gk2gDaDN511InEZwRAKmXRZbUHdpA6hrCIYO8tIu893neqYsIslwbQznClnixL0Rfi3LiHcRzTVzT/MrbjkZh2bL5sMZeRgRqJoCapgmLrk7znve8p0JtxB70xDqvrt6F2ibnS92g7mWNSPJXf/VXCeqb0djLJEFdy14iFWoj1ugm1vlxtRLrDDhDexG5qitqXqgsFtUV8bOXUGIv/8Q6ExVpxWs1o20dG1dVQgUYtSWb8U6uvvpqV6+KHO3l7OqZr3rVq5Kbb745v03UkDhHRRGVJVR2MKge2+hwYh2JxDqfeXgObFQ5sVFVVxd717veVeHXTCf2knW1nyuuuMJVsci7CYD5r9q9oEKIaqLNaiY2w1YR5M///M9dXYn6Cz8MKluocKLaZZ3JxEaE3Z0ygzvtA6qbJpC5e7P+sY641zlUUU3QqbgNVM+tE+n1y4Sf3A/1c+u4J+94xzsS2sqiQc3NOjrJ+973vlwF1DpBrnJIeXEMQwzPNWrscEat0ASwYlJNcWyDi4l1OhPrLCc2kFGRZ9osVOF+7dd+LTFBscIPtqi98cyjmohBVdg67K4ObJ3JineLdSJd5dM6qYl1TD08qoOodsOVNpN2NRqeB1RzUQnFz2ajolfD2qjoomJqnWtX2Z9JRk0gSv76r//a3z82sOnvahMO/T1kA02uAk/bWlSzpB3k3WQDTslXv/pVv4wNZvp1bZYvMcEzf97xpJ5Sn1FlfKapN1JOjWpo20w4cjVJ2ilYlA11g+cO1U7Ttkq+8pWv+LISVF4jD+KYwJN8+ctf9rYRXtTvmB5q8NRR1IJt8ChfRoFqMurcJlwlNmhccWkb9PBngSUsNvBU4ddoJ9wDz6cJ05P6G6iX885lWQ4MMPH9E/mU78dmH71d5J1cXM5Cvfv93/99b0PoJ5ng7nXPtLgSE1Z9qVAxPO8hrkmfgTbTBP7ypXReBwIIyZVDLS0rNuvG5psAKjeMBDFqxYhRcZSPEUFGpZj9QNWJ0c6lbuz5dQQwYYaBc3ux5TNFjF4yYhcNo3TMPDLCZutofDQQjoyoMyLISFxxkTrMGQFkswZGBxn5twY8JteUNiOQ1knxUV5Gya1T7SOc3Bf1jdFNVJaYmSUsTBhBjYZZcRgyKs3MLjNN9jJz9SxUtBhpxa9omKVgRBPWhCFeMxrKH/UpePCcojbIzAUjvKitMjMen0vqIs8z94sbs9uMqBcNMySwZOTXXt5et0iXUXnqHGpbUV2Q+kkaxIncUQ9tVsOmGvys8+n3X7wPZt6YmaHumQDpXtwzLOHKc13eJIZw1DNU4pj9QDWL55rReGY4mXmDIYbnmjRwZwaDOgzzZjLFd0M536hvwoB7Zoa3aGCOO/7UOwzPOjNCzHQwC8qGM9FQP6mHPOOEIx7HsKVuMtNXnN2l/eA9RbtL+s1cRyODajb8i+8fzmlDqX+8K5jZhFuRDVo0/Kib1HHqNG0D73O0Z4rPO9eMzzz9AVgyC9WoZrr6GPPM7BrvHt47zNrSxhGP+lQ08IMjdYn6y3KMmD7vbmbKsamzvMcxtA3Ue2aRSbdoaBeok7SxzAY3son3WS2P3COzsLSLtI82wObvHzQ1bD8Jn+Hm3Y2hLtIXggn9I/oxxfcP9Y1nm7rFcw0b6iLPNe94rlHsO/Gs8/6hLNBO4F0Yr1Utr3KbPwJSeZ0/lksqJV4wdHAQfHhweWHFBoZGl4aRBx7VumYXbOZasLZRgatf0Amik80LhgYONnBEfa78YuGadEQRGmlAeUETn0aXFz/qMGVDp5MwNlrsLzBUGymfZjTUIdSqUAviBYt6IC+W4kudlzhceFljeKlEoSbeM2pXsKITDm/qKR1N6i68SLNoCI+QSdqobdJhiNcthmv0YzrHdHTocHMPcKOe8SLmRc8LnDpoMwoutHCvxKFjiDpgWV2NlznPOWlRZ4lLpwFOcI8CUJELdRd3uCPwk0YzGgQRVLCoazYb4ex4hqlHdLYZUENQR/ihfsGIsHSOYIldNDzXCEuow8GFTjssYVVc9xfj4A5LypDnH+G/XG9j2Ea0ozBTzhvPIPWO9wPtX1nwhhvvEdoxmGJ41jmHU7W2DXfqLm0m6qE8+9Q/BHPKopgXjqnTtJmUA+Eb3RTzP9O88ryjkgrL+N6gfYUL7wqYVatPuPOuoZ7SNnBM/YMvbWfZ0G5SJrQPsORd14imLBSW80gdQ1WTZ5vBNwZ0UI+uZuBCeO67XH8JD0PqF4NFsONdBhvqPuVRbmdJB460r4ShbeCdFvtW1fKwWG7T1UXyDhf6PrRd3Ad1jGcXdXaEPNNK8EFi0iEsbSY8pusL0Q7AnHcOPGkjqNNlPtRPyqPYF6LNlqkvAQmU9eXbsqnHUXJeMvzKJo4c86KeruEpx2u1c14krIVkYxPWRjGqjqETBUNeHHR2+JUNLxKEADqQNMi8CIlDBzPyLcahc08DG8MhPDSr4QVuakb+IoYbL2IM3OLLg/uFL3WMkcpqDGHBi4wwsKMuEocXDWyrre3lpYY74XgBNqOh7HlBM9LOOh1T1/T1OHTgWRfE2r/Y2WFGFjbUsVi3YFs01EW4wKNYF3GvVheJS12kbYB9M9dFhA7WgtPBhB1r0WDBc4mwydpRRsSjwE6HmvuNbMosy1xiW4A76VYz+PGjnJqZZfHeqEv8eNaoQ9S9ooEbTKnHsMbE9wkd72qCAWkRh+ebH887zDDV6in1MzKn3IgD51Yx3BProunYMzuEVgYmviNoS2kfq7GkPGAZ3z9wiW0tLGEb22LShGPsC1BmtBPV2mTCNqrhXlm3i/YF7xyeewz3guF+i/dMfaEOw5DnvWzgCive87DDEId3S7U6H9sM2JMXyg+BrJkM7Rn3iDFVal9ny4ZwzMgiSNJ+sqcEAw4Iz7SvsJmuLwQPGMe6GOtvbDvKfCgj6msM1yptZvk+G+28sgVvtNwpP01BoNjAljO8FIXJ+KLlZcAie2bZaDjtExWuulFkNBM+hInhol1Mo9rxTMNVi7uYbuSbxp+Nij7/+c/75k6oakZDB4WXCC8LRhwJX+u9xvBT1duiewwbr98sNi91DLMy7NJoa39cGEeNjXtipJdOJpu9IFBi4r0W7989sj/RPYYr+k13XGv46dJaDD9Gz9lFmM1jYMVmJIyQM3PDoAeb8tCZjrsMksd4z5HZTPJN2KnCT+U+k3QbNUxkNF3+4n3HsNGuJc5MwhJmJmlPl1aj+TGDzi7PbK7DrpmovUeBspjXyLjoxnHRPbKJdjlsK5wjNKJSzqARwiQbCyJQY7AZ4IgCX7zfmfCIHGPYaOMe/WJ60Y7uMWx0bwabPCMcYlBf5f3DrtW8k2xNqt8zOxIza86GOq94xSvc7Xj3WmYSw0f3MpvoHsOV/XU+/wQkUM4/0yWRYhztjaNt5ZtmJAlDQxwf7HKYVj3nfumEIhSxux4jczSaxbWmhIkjlAhQ1UbQaJQZ/WTUF0EqjtjjHvkWGdJw8lKM4coj/sWwjXrMiOJO21IddVfWrLHjHWqG3BMvJGbcoqog4Vjjwkwb916NIfHirAa84R550uGKgleRB2xxR2iN9bzo3wzHUejmBc7aHu471gc6lWyfjyoc2+JjGP2ljsU6B0/iRBPrHDNDsS7CBubV6iLxqIu0D7Gex7SazabTw6AQnfKXvvSlPuMLA+6NusSsLztfMtLOzoRxtgI2PL9llpEL9ZYyiaPsU7Wl8MKPeM3Oslj23AuCOM8aMzbYsIiGtgB+MIqziMShXjLryLNdNsThead8eH4JSxxMtXrKdflhKDfitIJhHSOaMQyEoLLJLs/FNaqRC3UTXtVYxmc+tpfE4X1OeJhxXjS4UU8xsT0p+jf6MaqotIlox6AOTJ2DAXWJdpJBONQ1CQdTdnNFnZVw1FPClg2MYh2Owil1jB/1sRwnMqftIAwcm83wvMbZWtpM1jjCIb5/ttkacvpEDGiy2ysGNsThvvmVDVyodzChPGJdpM2o9lwTn7pIuNgel9PU+fwTkEA5/0yXRIrMDtG5ZBaODj4d12h4iGmQaQTQhy92EmKYVrZp+BAmmdHg3vm2Gh3NosEdNjR2vHBY88PLqWhYK8DLiwXqsCYOnVYayrimKIanY4AQSxwaXdYVxE5YDNMMNvdBnSL//PgeGp3EaPCjXrFGA6GTtWhsuU68KCAW6xudHFjRqYQddZO1FaznY7MA2BcNbNkMgWsSjk5/MxrqFffLfXLPZUPd4B7jy5v7JCxsuX82QYgdceKiwkYdxT3WRdapkAbcscudUuou6ZOP2Jkq56MZzqknfKqC9VR8eiWuBYUh6tg7bWDDdgt1NTmec55X2kfWRdIOwolOeTTUXTaLYGOT2JEiDKxgWTbUbVjCmHDN+FxzT9TDYl2EI+p8PK/ULbgUnzeeRdZJUX+YEcbQJsASTrSzZQMnnmnC055yPeKzmQf1unh9juP6QJg2g2phzD92PC4zgA3CJN8q5t5/wT7ZUNTyIDzPKn50zqmjMCsLL5FlrM/UP+IgBPCuKRvcaJ+p043MMnIrM+T5o87xXDKDxmAmzx6sGMzh3hBeuE+Y2a7iXl95B+FH/S0b3sf84BbXBlIvqfvU7fL7h4ES6inPBOGK7UY57UY+5x1B3qlTxfcxeYYp7xbs+P7huSYsfGkLiu0AcXj/UK95rmlbSROmlAvhi4Z0cYt9IcqnWdvM4n01w/HkIb5myLXyuOgEeEAZfeKhLS9Y54GOnXUa5zgyteiZXoAMIMDwnTl+vBze+973huc+97mTrkyDyMgdjSIvFUbrii8kXmysN+CljrDOS52XPzzx44XHSywaRur44DcvOwQhZqHiKGEM0ww2XKhXb37zm/2bVMwM8U0uviXJWiA67DDgW3J8m+ptb3ubd7IRohmVR2WpaOjUM7rMC4xNU+gcoAZKx5zw5Y4RHQUEVfJBuNgpLabZDMe8RPlmJ50T6lDRUN/oFPJi5v4wPM8w4b6pi2XBBo50yhEoqYs805QDXLkGOxjS4cRgsyFXkXu8jgdowj+0aQjb/IqGc549eMSOKlx5rokDy/+/vbtZmaTIAjDsMDcyl+HSjaBXIIigGwUXioi4EpzBhaAg4kpw0xtvQbeNeF8x50mIprq6WwZnxs7sfgOKqq++zKzI95w4fxGZyUbeNuwloeRjrNJdLI1vQaYbJm2Wjm9c00tBGh32fqW2uejz7Wdjkc7h5QZS7N1to7f0iO7QO40tFHzSTzonoNwNI8fR9p0f6bPr1tllfoqsbpvvzDCzl7tQcPv/M3++Zbn7aWzPYy6OZMj5fP/998ezS/f/9/u2swJ3xQ0sd3BvGzrqO9vRU8fiT+gpfSaX20Zf+XyBP5ZkepW2ObKZViDw2QrC/I2XJcPffffdMaY9B/arr746/Lub6kie991wjelbu3nr1x2bX9P2dYP8DN27bdv/SJx2Anr7/zN9xu32dds3PsIY5F/vz9FYpF/YsX+a8c0WSCjp0a3P2rEQtsY/ljsWorNioVsbSxfZTH7pyrHQLc+rfC6hvIqkTtZP1SQX+Rv4lnW6FmsHqqr1HlnAQLjltoDpZWgCIheb48GYznP9jmuunlUdE1C5Jotjmud1HrNxGHLw+2/O2aMf8GZELbXh4BlkwYIbhQiq3M79xx9/PJJSzK8WdG794KA4GsuznOv9izPBgrPFjsPgvMwccSK4kQMnZKmi69sEkW6ewvFrmLq2AyNJqYRV8k+X5/lVR3Xf//cNlHbfrvSu7woZ9ENQhA1nTbdc9+ecJSduJrPbPmcP6bYNJ63IYbbj119/PZJHD9qWaGv/mKVLls5iN8/sPAKB7eBxl1DO8/8OO7B/44rvxie9U9xwkwl64jwFSoJNOiNIpFe7vfrqq8dNJ+b5s688fPjwKP7Y/ueffz7GuQDdHXZ30CigwtJsOpYKI37Du3HuNz02Z2+/f+eM7wI6QeMukNE7jW3znb991ugQe4WrsSig9v/ffvvtlQcPHhy2zTi3RE6TALGHAu6ffvrpWA6/9dr284zAQ6f38k420yyyG4BgyUYqJNmHjzILhbkH0rMrZ2tY6quxqECBq3ezs3TC/zZLCSBdcYmAawDn2X2HDZMU3je+R9EDS/bWIzJcTsBuSgKwNSvvsRdbr/mx11577diPPcGSH/L7HiLvwfP6447HZ/L5eBlLkl08N0t+03ebo+2ML+OQ32EPvfubPaVL9I//5U8k2F7+pp9iIPdMwA/H33///UhOFUTo8PbJjsU+kCGdx91n+7Ells+7lGPr/L3sntfff6SL9+Oab3EzOHrB/0j66K6CmfMzThUnMN6NzrIHfLj/Y8JmiifZWWOYvuKIu335dMVOeq+YRKaKHXSTr2NbrlTc2Cyu+v73f067aufr9/MjwEkxrpwYR23wq9AxogY/56Pax7lwXi9DEzjOA+CPGS7GTzXN3eLMUrg2Q+XNjINZnZ1kclKMIOdtxlFVzbWDjDAD7mL2eUDwIwdtP6wt1eLUOURJA+6eLcgou15GQntV7pJKfTfrQ8+8fOddYiNR4XjmAdpHMOR7HDktusiZ484pubuuoMCNATj+3QQ8HI5ZN3qr+jkPlT6CfU7svVkmdru8ce93lXdOlJ7RPedJrzheeibRFkRZii3Y3oG0wJLOuU5IkijAoWOq9QIGwaS7xe7tcbc9dnRWYEkGji+opYOWhUlar6qL5C3QpFNYGm8SEPpFtyQ+kiD6hY/ihoaRfWwjyLaNBAZLgdXrr7/+yltvvfVoXNNfQS9Z2c4+e1xLtgRSHp0juD17Y8f2uWJmHNILYw4HCR2dMdPIh1gaxz76n2AfWysSFMkE4m+//fajpMa50zu65jfwYguNXbaBrOgovabP7Ibknf7uWXbL4bAlOwGva9vdhVLhwLHP1PDYQTmWfKsZbH7A+fjs3CSHzscz/rDme9hIjLyMT/uzqTsgd5748CdukMImCPix/OWXXw77gaXkhoyMYQU8+k9WfD/+Ani+xzEUnN55552jP2cZ88YVVm7yhpHEz6UUzt0Y5QOcDzYSSjpw63twojPuTsqvS7LZtt2wcRx+hP8xds0++g1MjHV+nH5pxrqX7fky747P7vLj7MP7779/FOPY8LM0ukg3xCZ0SdFR3+mi86CLtjGuvfa4piNe/r/HnDjImKNbkkMNE9/zUY7D/+Dn98jQBIZYaMdOjk93scPbPnQSR7/DVvJxZHW2cX0Wmf4v+zE3nfwXA1yLwJ8mMMZ5ffrpp2uc1xrDsCaQXePM19x6e40R+dPHveKOs1RmzQB95msc7Prss8/WBOmPnd4Y5eP7qditMaprAqE1sxHrhx9+WGMk1wTtj20/DmtN8LTeeOONNQHZGue3ZoZkvfvuu+vhw4ePbfui/fHJJ5+suWZyTfV9jcN57PTmmqE1DmfN9TtrHMiambQ1wc0ap7RmlvKxbcdxrXGCx3Gmmrom2F3jvNcEROvbb79dE6Q9tv0V/5ggZ02Asuah0od+OEf6MkWe9eDBgzWJ8xOnhekURdYETWsc9vGaSvmau0WuCTYXbvfNb0xytCaoPbjP7NGapclrKtH3m1727wmG1hdffLFmZuHQL2yc5ySR6+uvv16TsD9xbjN7s7788ss1RZ5DvyYQOj7PDOSaJOgJnTTOJ2FYc7fYNTOiB8sJcNfc0GtNcPrE8c/6xawQOFjd2sIJ3h/ZxZmxWZOorCmwHacwweKalR3rzTffXJP8HfZsAvf1wQcfrEkqFz2+b+Tx8ccfr5mhOPzOJPCHXWCD2cf7ZjzTx7mWcE1SdOzjNz788MM1ydD95qf5e5KdNcv/H7HD9JblFDDWe++9d/iUWRXw2Ha3/Pfnb7755hjHtyc4CfxhI2ZW92DPh8/SzjWz62uKnbebHp+nGLBm1cKagtshL37fvmzzJBxPbP+8v5gi0JoCxdHHzQHDW4787czKPrOrU/BYk5isSVDWFEie2I7O4TVFziMG4pNtP89aXPjeNzrtezosduL3cZ9VJUc/pqB3v8tz/ZttoosfffTRIx27Z0gX5xFKx3Y66xwniV9T4F6TYB6+hF2b4tvx/dN8LJv5+eefr5kBPpjwyXzRzEAePvlpsdAULw+fxh7jPivjDjldyWY+V+H+j358xtbKYQNEAAAGYUlEQVQrf3MsH2oR+DMEVONUiFU2fVbZUxG2hMv7GJ0/c9hL7qMKqrqu4jaG71hquYeXdxVby4csBd6zPE5UVc6+OJoZwgw7y+ietcTNTImlnSr9qneqdZbl3R/7kiD/oNOq72ZANh9Vzd2wUGk2w7iZmDEah/1oJmhv652MVFZVQjd3y5NU+71ehGZMGpvOcRz8MT7NMtAtN864H5+YmM30omP01oyG7enW/fYYmS2ii6rQfoP+W5JoaSw5vQjNGKVbZmfo375u0kywarxxej8jY5tblthhiYvtn8bSsekkllYumNXD0uzGrc04M9O9tM1Y1fgEMwR44Lj1w7jEQ3O+WBm7tjELwZ7Zxvb3zbHonNkJY9fxjV06Sh5Pa/R5EtFjRm/bB+OcLMxmnrEZv5aVmgmiL1jQM4ww2PrBr5iptOwPi6f5H/tbIuic7bcbFpulsWx/tgHLPeO+t93vfgtLs0L6YiZts9wzSHvb5/2uf/pr9tD4wtDrltH2J+zc05r9+PY93tnQ+0aH+XEzvWRDp+iwWc2n6TDu2/+QM7mascfxWdzvf/Ov/Jtu6O8f6eL2t3tm1ZhjN41T54uDc2TPjP17G4gbhrc+ecvmWbEQ2ejTjoXoNu5keRWb+VfK8f/1WyPLKdPsiPf/9SsdNwIvAQHD6N44vgSn/dxPMe7/nQhu+d1+/u+O2t6x/M90IE7/GacrbfWiyfRFO5+/Qpdi9ldQPtdvlFCeSx71JgIRiEAEIhCBCEQgAhGIwGUISChfjrulXEYkdTQCEYhABCIQgQhEIAIRiMB1CJRQXkdW9TQCEYhABCIQgQhEIAIRiMCpCJRQnkocdSYCEYhABCIQgQhEIAIRiMB1CJRQXkdW9TQCEYhABCIQgQhEIAIRiMCpCJRQnkocdSYCEYhABCIQgQhEIAIRiMB1CJRQXkdW9TQCEYhABCIQgQhEIAIRiMCpCJRQnkocdSYCEYhABCIQgQhEIAIRiMB1CJRQXkdW9TQCEYhABCIQgQhEIAIRiMCpCJRQnkocdSYCEYhABCIQgQhEIAIRiMB1CJRQXkdW9TQCEYhABCIQgQhEIAIRiMCpCJRQnkocdSYCEYhABCIQgQhEIAIRiMB1CJRQXkdW9TQCEYhABCIQgQhEIAIRiMCpCJRQnkocdSYCEYhABCIQgQhEIAIRiMB1CJRQXkdW9TQCEYhABCIQgQhEIAIRiMCpCJRQnkocdSYCEYhABCIQgQhEIAIRiMB1CJRQXkdW9TQCEYhABCIQgQhEIAIRiMCpCJRQnkocdSYCEYhABCIQgQhEIAIRiMB1CJRQXkdW9TQCEYhABCIQgQhEIAIRiMCpCJRQnkocdSYCEYhABCIQgQhEIAIRiMB1CJRQXkdW9TQCEYhABCIQgQhEIAIRiMCpCJRQnkocdSYCEYhABCIQgQhEIAIRiMB1CJRQXkdW9TQCEYhABCIQgQhEIAIRiMCpCJRQnkocdSYCEYhABCIQgQhEIAIRiMB1CJRQXkdW9TQCEYhABCIQgQhEIAIRiMCpCJRQnkocdSYCEYhABCIQgQhEIAIRiMB1CJRQXkdW9TQCEYhABCIQgQhEIAIRiMCpCJRQnkocdSYCEYhABCIQgQhEIAIRiMB1CJRQXkdW9TQCEYhABCIQgQhEIAIRiMCpCJRQnkocdSYCEYhABCIQgQhEIAIRiMB1CJRQXkdW9TQCEYhABCIQgQhEIAIRiMCpCJRQnkocdSYCEYhABCIQgQhEIAIRiMB1CJRQXkdW9TQCEYhABCIQgQhEIAIRiMCpCJRQnkocdSYCEYhABCIQgQhEIAIRiMB1CJRQXkdW9TQCEYhABCIQgQhEIAIRiMCpCJRQnkocdSYCEYhABCIQgQhEIAIRiMB1CJRQXkdW9TQCEYhABCIQgQhEIAIRiMCpCJRQnkocdSYCEYhABCIQgQhEIAIRiMB1CJRQXkdW9TQCEYhABCIQgQhEIAIRiMCpCJRQnkocdSYCEYhABCIQgQhEIAIRiMB1CJRQXkdW9TQCEYhABCIQgQhEIAIRiMCpCJRQnkocdSYCEYhABCIQgQhEIAIRiMB1CJRQXkdW9TQCEYhABCIQgQhEIAIRiMCpCJRQnkocdSYCEYhABCIQgQhEIAIRiEAEIhCBCEQgAhGIQAQiEIEIRCACLziBfwPKSQXqds6oDwAAAABJRU5ErkJggg==;" vertex="1" parent="1">
          <mxGeometry x="812" y="552" width="266" height="199.79" as="geometry" />
        </mxCell>
        <mxCell id="s63r-YuF349uBnM-Qt6y-18" value="" style="endArrow=classic;html=1;rounded=0;startArrow=none;startFill=0;endFill=1;" edge="1" parent="1">
          <mxGeometry width="50" height="50" relative="1" as="geometry">
            <mxPoint x="410" y="600" as="sourcePoint" />
            <mxPoint x="430" y="600" as="targetPoint" />
          </mxGeometry>
        </mxCell>
      </root>
    </mxGraphModel>
  </diagram>
  <diagram id="61lWKL9mKk29mkUWi6o5" name="Page-2">
    <mxGraphModel dx="1434" dy="974" grid="1" gridSize="10" guides="1" tooltips="1" connect="1" arrows="1" fold="1" page="1" pageScale="1" pageWidth="1169" pageHeight="827" math="1" shadow="0">
      <root>
        <mxCell id="0" />
        <mxCell id="1" parent="0" />
        <mxCell id="HBH_yUrh0nz4Uv9-0THY-1" value="" style="rounded=0;whiteSpace=wrap;html=1;fontSize=18;" vertex="1" parent="1">
          <mxGeometry x="350" y="230" width="220" height="280" as="geometry" />
        </mxCell>
        <mxCell id="HBH_yUrh0nz4Uv9-0THY-2" value="&lt;b&gt;DPC&lt;/b&gt;" style="text;html=1;align=center;verticalAlign=middle;whiteSpace=wrap;rounded=0;fontSize=18;" vertex="1" parent="1">
          <mxGeometry x="430" y="250" width="60" height="30" as="geometry" />
        </mxCell>
        <mxCell id="HBH_yUrh0nz4Uv9-0THY-3" value="DPCParameters" style="rounded=1;whiteSpace=wrap;html=1;fontSize=18;" vertex="1" parent="1">
          <mxGeometry x="380" y="290" width="160" height="80" as="geometry" />
        </mxCell>
        <mxCell id="HBH_yUrh0nz4Uv9-0THY-4" value="PredictorMatrices&lt;div style=&quot;font-size: 18px;&quot;&gt;RegularizationMatrices&lt;/div&gt;&lt;div style=&quot;font-size: 18px;&quot;&gt;(from training data)&lt;/div&gt;" style="rounded=1;whiteSpace=wrap;html=1;fontSize=18;" vertex="1" parent="1">
          <mxGeometry x="365" y="380" width="190" height="106" as="geometry" />
        </mxCell>
        <mxCell id="HBH_yUrh0nz4Uv9-0THY-5" value="" style="endArrow=classic;html=1;rounded=0;fontSize=18;" edge="1" parent="1">
          <mxGeometry width="50" height="50" relative="1" as="geometry">
            <mxPoint x="180" y="310" as="sourcePoint" />
            <mxPoint x="350" y="310" as="targetPoint" />
          </mxGeometry>
        </mxCell>
        <mxCell id="HBH_yUrh0nz4Uv9-0THY-6" value="$$z_p$$" style="edgeLabel;html=1;align=center;verticalAlign=middle;resizable=0;points=[];fontSize=18;" vertex="1" connectable="0" parent="HBH_yUrh0nz4Uv9-0THY-5">
          <mxGeometry x="-0.4941" y="-2" relative="1" as="geometry">
            <mxPoint as="offset" />
          </mxGeometry>
        </mxCell>
        <mxCell id="HBH_yUrh0nz4Uv9-0THY-7" value="" style="endArrow=classic;html=1;rounded=0;fontSize=18;" edge="1" parent="1">
          <mxGeometry width="50" height="50" relative="1" as="geometry">
            <mxPoint x="180" y="400" as="sourcePoint" />
            <mxPoint x="350" y="400" as="targetPoint" />
          </mxGeometry>
        </mxCell>
        <mxCell id="HBH_yUrh0nz4Uv9-0THY-8" value="$$u_r, y_r$$" style="edgeLabel;html=1;align=center;verticalAlign=middle;resizable=0;points=[];fontSize=18;" vertex="1" connectable="0" parent="HBH_yUrh0nz4Uv9-0THY-7">
          <mxGeometry x="-0.4941" y="-2" relative="1" as="geometry">
            <mxPoint as="offset" />
          </mxGeometry>
        </mxCell>
        <mxCell id="HBH_yUrh0nz4Uv9-0THY-9" value="" style="endArrow=classic;html=1;rounded=0;fontSize=18;" edge="1" parent="1">
          <mxGeometry width="50" height="50" relative="1" as="geometry">
            <mxPoint x="570" y="350" as="sourcePoint" />
            <mxPoint x="740" y="350" as="targetPoint" />
          </mxGeometry>
        </mxCell>
        <mxCell id="HBH_yUrh0nz4Uv9-0THY-10" value="$$u_f$$" style="edgeLabel;html=1;align=center;verticalAlign=middle;resizable=0;points=[];fontSize=18;" vertex="1" connectable="0" parent="HBH_yUrh0nz4Uv9-0THY-9">
          <mxGeometry x="-0.4941" y="-2" relative="1" as="geometry">
            <mxPoint as="offset" />
          </mxGeometry>
        </mxCell>
      </root>
    </mxGraphModel>
  </diagram>
</mxfile>
